<?xml version="1.0" encoding="UTF-8" standalone="no"?>
<svg
   xmlns:dc="http://purl.org/dc/elements/1.1/"
   xmlns:cc="http://creativecommons.org/ns#"
   xmlns:rdf="http://www.w3.org/1999/02/22-rdf-syntax-ns#"
   xmlns:svg="http://www.w3.org/2000/svg"
   xmlns="http://www.w3.org/2000/svg"
   xmlns:sodipodi="http://sodipodi.sourceforge.net/DTD/sodipodi-0.dtd"
   xmlns:inkscape="http://www.inkscape.org/namespaces/inkscape"
   version="1.1"
   id="svg2"
   xml:space="preserve"
   width="2666.6667"
   height="2666.6667"
   viewBox="0 0 2666.6667 2666.6667"
   sodipodi:docname="vecteezy_untact_illustration3_aa0121.eps"><metadata
     id="metadata8"><rdf:RDF><cc:Work
         rdf:about=""><dc:format>image/svg+xml</dc:format><dc:type
           rdf:resource="http://purl.org/dc/dcmitype/StillImage" /></cc:Work></rdf:RDF></metadata><defs
     id="defs6"><clipPath
       clipPathUnits="userSpaceOnUse"
       id="clipPath114"><path
         d="m 9250.37,15077.4 -1358.78,194 -39.71,-162.3 c -26.09,-106.7 -123.04,-168.1 -240.59,-152 l -1247.38,171 c -122.76,16.8 -237.95,109.4 -285.08,229.3 l -71.94,183.1 -1509.39,215.6 770.53,-12324.6 5168.47,236.4 z"
         id="path112" /></clipPath></defs><sodipodi:namedview
     pagecolor="#ffffff"
     bordercolor="#666666"
     borderopacity="1"
     objecttolerance="10"
     gridtolerance="10"
     guidetolerance="10"
     inkscape:pageopacity="0"
     inkscape:pageshadow="2"
     inkscape:window-width="640"
     inkscape:window-height="480"
     id="namedview4" /><g
     id="g10"
     inkscape:groupmode="layer"
     inkscape:label="ink_ext_XXXXXX"
     transform="matrix(1.3333333,0,0,-1.3333333,0,2666.6667)"><g
       id="g12"
       transform="scale(0.1)"><path
         d="M 20000,0 H 0 V 20000 H 20000 V 0"
         style="fill:#fee9d4;fill-opacity:1;fill-rule:nonzero;stroke:none"
         id="path14" /><path
         d="m 12060.4,14993.6 c -661.1,735.9 -739.4,1471.8 278.8,1905.1 1556.6,662.5 4116,1313.2 5311.2,-331.5 407.5,-560.7 673.9,-1222.6 801.7,-1908 111.7,-599.2 119.5,-1213.5 102.3,-1823.2 -28,-991.1 -93.4,-5237.3 -1888,-4565.1 -756,283.2 -1283.6,1128.7 -1692.1,1788.9 -478.3,772.9 -866.9,1598.1 -1283.8,2405.8 -461,892.9 -957.8,1779.8 -1630.1,2528"
         style="fill:#f0d2b9;fill-opacity:1;fill-rule:nonzero;stroke:none"
         id="path16" /><path
         d="m 960,2687.4 h 18090 c 391.4,759.5 66.3,1854.9 -462.3,2522.6 -528.6,667.8 -1267.7,1119.3 -1947.9,1625 -740.4,550.5 -1429.4,1183.2 -1976.4,1932.4 -448.9,614.7 -796.1,1298.7 -1156.9,1971 -570.3,1062.4 -1182.6,2107.8 -1938.4,3042.4 -443,548 -937.4,1058.8 -1511.6,1461.2 -634.86,445 -1356.58,749.7 -2097.41,966.1 -737.95,215.6 -1512.15,346.6 -2274.1,251.2 -1325.33,-166 -2524.02,-1038 -3200.14,-2210.9 -676.12,-1173 -846.28,-2615.4 -567.45,-3945.5 145.29,-693.2 406.32,-1361.3 491.45,-2064.8 83.98,-693.9 -9.07,-1409.3 -267.56,-2057 C 1907.65,5595.7 1545.79,5073.7 1261.89,4511.8 977.992,3949.9 850.824,3309.5 960,2687.4"
         style="fill:#f0d2b9;fill-opacity:1;fill-rule:nonzero;stroke:none"
         id="path18" /><path
         d="m 16704.5,1527.9 c 0,-318.6 -1530.2,-576.9 -3417.9,-576.9 -1887.5,0 -3417.76,258.3 -3417.76,576.9 0,318.7 1530.26,577 3417.76,577 1887.7,0 3417.9,-258.3 3417.9,-577"
         style="fill:#f0d2b9;fill-opacity:1;fill-rule:nonzero;stroke:none"
         id="path20" /><path
         d="m 11360.1,2557.1 c 0,-397.4 -1908.86,-719.6 -4263.55,-719.6 -2354.69,0 -4263.54,322.2 -4263.54,719.6 0,397.5 1908.85,719.7 4263.54,719.7 2354.69,0 4263.55,-322.2 4263.55,-719.7"
         style="fill:#f0d2b9;fill-opacity:1;fill-rule:nonzero;stroke:none"
         id="path22" /><path
         d="m 19887.1,2340.4 c 0,-269.6 -1294.6,-488.1 -2891.7,-488.1 -1597,0 -2891.6,218.5 -2891.6,488.1 0,269.6 1294.6,488.1 2891.6,488.1 1597.1,0 2891.7,-218.5 2891.7,-488.1"
         style="fill:#f0d2b9;fill-opacity:1;fill-rule:nonzero;stroke:none"
         id="path24" /><path
         d="m 951.152,2687.4 c 0,153.3 825.698,277.5 1844.258,277.5 1018.55,0 1844.24,-124.2 1844.24,-277.5 0,-153.3 -825.69,-277.5 -1844.24,-277.5 -1018.56,0 -1844.258,124.2 -1844.258,277.5"
         style="fill:#f0d2b9;fill-opacity:1;fill-rule:nonzero;stroke:none"
         id="path26" /><path
         d="m 1964.2,5920.8 c -38.56,77.1 -51.57,163.9 -56.45,249 -2.59,46 -3.16,93.2 11.28,137 42.69,129.1 201.4,185.4 323.17,135.8 100.27,-40.8 128.63,-195.5 114.77,-289.4 -11.42,-76.9 -42.32,-152.2 -95.4,-209 -72.75,-78 -235.24,-147.9 -297.37,-23.4 z m -501.03,831.3 c -92.1,-62 -214.26,-39.2 -310.67,0.1 -83.75,34.1 -153.062,96.6 -182.187,183.7 -24.766,74.1 -32.051,186 18.417,251.1 35.85,46.4 89.3,59.1 144.74,63.1 90.14,6.5 183.26,-7.3 262.31,-51.1 79.05,-43.7 142.37,-119.7 159.54,-208.3 17.21,-88.7 -17.16,-188.2 -92.15,-238.6 z M 625.012,5680 c 64.476,-89.9 137.316,-173.8 218.914,-246.3 6.277,8.3 13.648,16 21.894,22.4 36.481,28.1 87.293,34.1 131.332,20.7 44.038,-13.3 81.348,-44.6 107.338,-82.6 17.18,-25.2 30.01,-53.9 33.38,-84.1 2.32,-20.6 0.13,-41.2 -4.99,-61.3 11.82,-4.9 23.77,-9.7 35.87,-14.1 40.38,-14.9 81.73,-26.4 123.7,-34.9 -17.16,61.1 -15.43,129.7 17.08,184.1 46.38,77.7 143.26,110 233.49,116.1 61.45,4.1 124.58,-1.3 181.15,-25.6 56.61,-24.1 106.11,-68.8 127.41,-126.6 9.83,-26.8 12.86,-55.2 10.38,-83.3 54.54,24.4 106.71,53.9 155.43,88.6 32.53,23.2 63.49,48.5 92.69,75.7 5.86,5.4 11.63,10.9 17.27,16.5 177.65,173.8 286.4,417.7 296.89,666.6 4.12,97.5 -6.05,196.2 -37.36,288.6 -28.8,84.9 -74.58,162.5 -124,237.7 -40.76,-48.5 -96.55,-84.6 -158.19,-99.6 -108.4,-26.4 -229.33,12.4 -304.76,94.7 -75.54,82.2 -103.92,203.9 -75.97,312 10.87,41.9 29.87,82.1 58.87,114.1 24.38,26.9 55.32,47.2 89.17,60.6 -142.86,125 -311.09,216.5 -487.83,288.5 -31.51,-30.1 -71.61,-51.2 -114.48,-59.1 -63.8,-11.7 -132.51,5.9 -182.66,47.1 -27.96,22.9 -51.25,55.5 -50.64,91.7 0.24,13 3.67,25.2 9.37,36.4 -41.11,12.2 -82.44,24.1 -123.772,35.7 2.192,-50.4 -10.937,-101.4 -39.785,-142.8 -58.933,-84.5 -176.711,-121.7 -274.215,-88.4 -97.511,33.3 -167.617,133 -168.304,236 -0.168,23 2.898,46.5 12.089,67.7 8.95,20.7 24.008,38.2 42.45,51.1 -34.782,11.2 -69.379,22.8 -103.813,34.9 -87.883,31.1 -177.414,68 -245.957,129.8 -11.113,9.9 -21.676,20.5 -31.558,31.9 0.558,-7.6 1.152,-15.3 1.644,-22.9 5.934,-79.3 11.402,-160.2 17.059,-242 30.808,0.3 62.754,-11.7 86.215,-32.2 39.523,-34.4 59.023,-86.5 68.921,-138 10.766,-55.8 11.965,-113.5 3.457,-169.6 -4.925,-32.5 -13.664,-65.9 -35.5,-90.5 -21.246,-24 -53.136,-36.2 -85.367,-36.6 6.446,-64.3 13.637,-128.6 21.813,-192.8 20.621,43.9 47.75,83.9 85.871,113.3 149.847,115.2 300.492,1.7 381.422,-129.8 82.156,-133.5 97.476,-273.1 -27.676,-387.9 -69.977,-64.3 -165.34,-100 -260.246,-97.7 -30.934,0.8 -61.746,5.7 -91.488,14.2 22.64,-92.4 49.066,-182.9 80.144,-271 11.461,21 24.863,41 39.508,59.4 74.73,93.9 177.66,160.9 298.789,173.5 92.738,9.6 186.977,-9.7 273.516,-44.6 95.453,-38.6 184.933,-98.1 243.873,-182.6 68.95,-98.7 84.39,-221.6 35.3,-331.9 -60.05,-135.1 -193.55,-234.7 -340.173,-253.8 -98.489,-12.8 -200.497,11.1 -284.965,63"
         style="fill:#2f4120;fill-opacity:1;fill-rule:nonzero;stroke:none"
         id="path28" /><path
         d="m 750.57,6998.5 c 139.719,-149.1 288.04,-294.6 431.36,-435.3 155.82,-153 316.99,-311.1 467.43,-474.1 171.67,-186.2 353.39,-405.1 460.72,-660.3 5.86,5.4 11.63,10.9 17.27,16.5 -109.06,254.8 -290.32,473.1 -461.64,658.8 -150.84,163.5 -312.13,321.8 -468.17,475 -143.19,140.5 -291.294,285.8 -430.743,434.7 -278.75,297.5 -480.582,567.7 -622.344,834.8 -11.113,9.9 -21.676,20.5 -31.558,31.9 0.558,-7.6 1.152,-15.3 1.644,-22.9 143.172,-275.3 349.117,-552.9 636.031,-859.1"
         style="fill:#90a563;fill-opacity:1;fill-rule:nonzero;stroke:none"
         id="path30" /><path
         d="m 2728.01,5807.4 c -80.93,56.8 -139.08,142.3 -173.44,235.1 -41.85,113.1 -47.09,312.9 66.92,389.9 138.46,93.6 350.62,65.2 437.54,-84.2 29.44,-50.7 41.09,-109.5 49.93,-167.5 16.22,-107 22.79,-218.5 -4.97,-324.4 -44.66,-171.2 -265.09,-126.8 -375.98,-48.9 z m 604.21,1486.7 c -1.88,114.8 56.98,225.8 143.84,301 86.86,75.1 199.07,116.6 312.88,132.2 70,9.6 139.82,7.7 196.54,-40.5 79.84,-67.8 100.12,-208.9 88.71,-307.5 -13.39,-116 -83.22,-211.9 -178.45,-276.3 -109.63,-74 -255.59,-134.5 -386.39,-81.5 -106.48,43 -175.29,157.8 -177.13,272.6 z M 4494.84,5754.6 c -187.38,-14.7 -379.53,74.3 -489.62,226.6 -89.96,124.3 -102.95,281.2 -43.07,422.1 51.18,120.5 146.89,217.9 255.5,290.9 98.48,66.2 210.64,114.9 328.52,127.2 153.94,16.1 299.52,-40.3 417.1,-137.6 23.03,-19 44.93,-40.3 64.68,-63.4 15.59,117.6 24.73,237.2 28.69,358 -34.77,-18.4 -71.81,-32.6 -110.1,-41.6 -117.42,-27.7 -245.4,-8.3 -349.26,53.3 -185.75,110 -203.3,287.7 -136.08,475.3 66.2,184.7 223.82,365.4 440.4,261.3 55.11,-26.5 99.33,-69.1 136.49,-118.4 -6.64,82 -14.55,163.8 -23.37,245.5 -40.19,-8 -83.06,-1.1 -115.77,23.1 -33.61,24.9 -53.22,64.1 -67.88,103.3 -25.29,67.6 -38.91,139.7 -40.14,211.9 -1.17,66.6 9.42,136.5 49.56,189.7 23.83,31.6 60.41,54.9 98.79,62.7 -14.4,103.2 -28.78,205.2 -42.19,305.4 -1.38,9.6 -2.64,19.3 -3.94,28.9 -9.33,-16.7 -19.68,-32.7 -30.89,-48 -69.07,-94.8 -170.77,-164.1 -271.93,-225.8 -39.65,-24.1 -79.64,-47.6 -119.97,-70.6 26.32,-11.2 49.64,-29.1 66.2,-52.5 16.98,-23.9 26.94,-52.3 32.78,-81 26.13,-128.3 -34.96,-270.7 -147.51,-337.6 -112.56,-67 -268.79,-51.6 -364.22,38 -46.73,44 -76.43,104 -86.91,167.2 -48.37,-25.2 -96.66,-50.9 -144.59,-76.8 10.03,-12.5 17.48,-26.7 21.2,-42.9 10.22,-44.8 -10.18,-91.5 -38.97,-127.3 -51.59,-64.3 -132.42,-104.3 -214.85,-106.3 -55.39,-1.5 -110.81,14.3 -157.87,43.4 -200.96,-135.8 -386.23,-293.8 -531.18,-486.6 45.61,-7.8 89.41,-24.9 126.79,-52 44.46,-32.2 78.63,-77.3 103.13,-126.5 63.08,-127.1 59.67,-286 -12.73,-408 -72.27,-122.1 -212.52,-202 -354.27,-197.6 -80.59,2.5 -159.45,32.8 -222.84,82.4 -41.79,-106.4 -78.36,-215 -91.94,-328.2 -14.74,-123.1 -1.53,-248.5 29.13,-368.7 78.28,-306.8 277.44,-581.7 543.95,-751.3 8.48,-5.5 17.11,-10.8 25.8,-16 43.45,-26.2 88.58,-49.5 135.13,-69.9 69.67,-30.3 142.3,-53.4 216.54,-69.5 -10.47,34.4 -14.13,70.5 -8.93,106.4 11.37,77.4 61.22,146 125.3,190.8 64.01,45 141.11,68.3 218.62,79.3 113.8,16.1 242.77,1.3 320.82,-83.1 54.69,-59.2 74.82,-144.1 69.5,-224.7 49.96,21.7 98.38,46.9 144.71,75.9 13.89,8.6 27.49,17.8 40.91,27 -11.62,23.6 -19.75,48.7 -22.26,74.9 -3.72,38.5 4.7,77.5 19.48,113.4 22.37,54 60.57,102.7 111.85,130.9 51.27,28.1 116.05,33.9 168.79,8.5 11.93,-5.7 23.1,-13.3 33.1,-22.1 82.49,111.6 151.1,235.1 207.74,363.7 -91.45,-86.7 -212.07,-143.1 -337.92,-153"
         style="fill:#2f4120;fill-opacity:1;fill-rule:nonzero;stroke:none"
         id="path32" /><path
         d="m 4331.1,7514.7 c -134.71,-222 -281.07,-441.9 -422.44,-654.5 -153.74,-231 -312.75,-470 -457.16,-712.2 -164.76,-276.4 -333.41,-596.3 -400.04,-941.9 -8.69,5.2 -17.32,10.5 -25.8,16 68.87,345.5 237.13,664.5 401.56,940.4 144.78,242.8 303.89,482 457.86,713.4 141.27,212.3 287.4,431.9 421.85,653.5 268.73,443.2 448.99,832.1 555.33,1201.4 11.21,15.3 21.56,31.3 30.89,48 1.3,-9.6 2.56,-19.3 3.94,-28.9 C 4791.16,8370 4607.73,7970.8 4331.1,7514.7"
         style="fill:#90a563;fill-opacity:1;fill-rule:nonzero;stroke:none"
         id="path34" /><path
         d="m 1716.6,6898.5 c -102.1,23.5 -193.3,84.3 -264,161.6 -86.2,94.4 -171,288.4 -89.8,409.5 98.6,147.1 318.2,203.8 463.1,91.8 49.1,-38 84,-91.1 115.8,-144.5 58.6,-98.6 109.5,-205.4 124.5,-320.5 24.41,-185.8 -209.7,-230.1 -349.6,-197.9 z m 0.3,1700.4 c -47.6,111.9 -34.1,244.4 21.21,352.8 55.29,108.4 148.89,193.9 254.39,254.6 64.9,37.3 134.2,63.3 209.1,38.6 105.4,-34.7 181.6,-165.2 209.7,-266.5 33.1,-119.2 2.8,-241.2 -65,-342.4 -78.1,-116.4 -197.3,-233.9 -346.8,-234.1 -121.7,-0.2 -235,85 -282.6,197 z M 3472.1,7551.2 c -178.1,-89.1 -402.2,-78.4 -571,27.2 -137.9,86.2 -213.19,235 -210.6,397.2 2.21,138.7 57.3,272.5 134.8,387.5 70.31,104.2 161,196.7 271.8,255.8 144.7,77.2 310.1,79.9 464.3,31.3 30.2,-9.5 60.2,-21.7 88.81,-36.5 -31.61,121.7 -70.31,242.7 -114.6,362.9 -26.81,-31.9 -57.5,-60.6 -91.51,-84.7 -104.2,-74.1 -237.6,-106 -364.1,-87 -226.2,33.9 -314.3,201.4 -323.1,412.3 -8.7,207.8 74,448 328.1,432.2 64.7,-4.1 125.1,-28.3 181.2,-61.8 -39.2,77.8 -79.6,155 -120.79,231.6 -36.31,-23.8 -81.11,-34.2 -122.91,-23.4 -42.9,11 -77.8,41.7 -107.8,74.3 -51.79,56.3 -93.9,121.6 -123.9,192 -27.69,64.9 -45.19,137.8 -27,206 10.8,40.5 37.4,78 72,100.9 -55.3,95.6 -110.1,190 -163.2,283 -5.2,8.9 -10.3,17.9 -15.4,26.8 -2.5,-20.1 -6.3,-39.9 -11.2,-59.4 -30,-120.6 -102.2,-229.2 -176.9,-330.1 -29.3,-39.5 -59.2,-78.5 -89.6,-117.2 30.3,-0.5 60.3,-8.7 85.91,-25.1 26.19,-16.7 47.3,-40.6 64.49,-66.5 76.8,-115.5 73.6,-279.6 -10.2,-390.2 -83.8,-110.6 -243.3,-157.8 -372.7,-107.9 -63.4,24.5 -116.5,71.6 -152,129.5 -37.4,-44.1 -74.59,-88.5 -111.3,-133.1 14.8,-8.2 27.8,-19.2 37.9,-33.6 27.9,-39.9 26.51,-93.9 12.5,-140.5 -25,-83.7 -88.4,-155.2 -168.49,-190.1 -53.81,-23.5 -114.51,-30.1 -172.31,-20.3 -143.09,-213.5 -262,-442.4 -327.4,-689.5 47.9,10.5 97.7,11.2 145.2,-0.5 56.5,-13.9 108,-44.5 151.7,-83.1 112.61,-99.6 172.61,-256.9 150.2,-405.6 -22.3,-148.6 -128.1,-283 -269,-335.2 -80.1,-29.7 -169.6,-31.4 -251.6,-8 1.4,-121.1 8.8,-242.3 40.6,-358.8 34.6,-126.7 97.61,-244.6 175.6,-350.3 199.2,-270 504.31,-460.4 833.6,-520.7 10.51,-2 21.1,-3.8 31.7,-5.4 53.1,-8.4 106.71,-13.3 160.5,-14.7 80.5,-2 161.01,4.3 240.3,18.1 -24,29.6 -41.99,63.6 -51.2,100.9 -19.7,80.5 1.91,167.7 46.91,237.3 44.89,69.7 111.29,123.3 182.99,165 105.3,61.2 237.8,98.1 348.1,46.3 77.3,-36.3 130.9,-111.6 157.8,-192.8 40.4,41.2 77.9,85.2 111.8,132.2 10.2,14 19.9,28.4 29.4,42.8 -20.8,18.5 -38.8,39.9 -51.7,64.6 -19,36.3 -26.3,78 -26.09,119.1 0.4,62 18.49,125 57.59,173.1 39.1,48.1 100.4,79.6 162.3,75.7 14,-0.9 28.01,-3.9 41.3,-8.5 36.51,142.4 54.6,291 58.9,439.9 -55.2,-121.6 -151.1,-225.1 -270.7,-285"
         style="fill:#5b6c3c;fill-opacity:1;fill-rule:nonzero;stroke:none"
         id="path36" /><path
         d="m 2609.5,9213.8 c -43.7,-271.7 -99.7,-545.9 -153.7,-811 -58.8,-288.1 -119.6,-586.1 -164.8,-881.4 -51.5,-337.1 -89.5,-718.4 -17.1,-1084.2 -10.6,1.6 -21.19,3.4 -31.7,5.4 -70.2,366.7 -32.2,746.9 19.2,1083.3 45.3,296.1 106.1,594.4 165,882.9 54.01,264.8 109.9,538.6 153.5,809.8 87.1,542.2 109,995.8 66.1,1400.8 4.9,19.5 8.7,39.3 11.2,59.4 5.1,-8.9 10.2,-17.9 15.4,-26.8 47.5,-415.2 26.6,-880.2 -63.1,-1438.2"
         style="fill:#90a563;fill-opacity:1;fill-rule:nonzero;stroke:none"
         id="path38" /><path
         d="m 2734.14,4271 c -38.13,478.8 -132.89,953.1 -281.65,1409.8 -18.66,57.2 -38.57,115.6 -57.84,172 -93.03,272.5 -189.23,554.3 -189.67,846 h 40 c 0.44,-285.1 95.55,-563.7 187.53,-833.1 19.31,-56.5 39.27,-115 58.02,-172.6 149.72,-459.6 245.1,-937 283.48,-1418.9 l -39.87,-3.2"
         style="fill:#2f4120;fill-opacity:1;fill-rule:nonzero;stroke:none"
         id="path40" /><path
         d="m 2375.02,4278.2 c -14.21,495.3 -150.52,985.2 -394.18,1416.7 l 34.84,19.7 C 2262.51,5277.5 2400.6,4781.2 2415,4279.4 l -39.98,-1.2"
         style="fill:#2f4120;fill-opacity:1;fill-rule:nonzero;stroke:none"
         id="path42" /><path
         d="m 2939.97,4428 c -21.97,433.5 56.21,873.8 226.09,1273.3 l 36.81,-15.7 C 3035.35,5291.7 2958.25,4857.5 2979.92,4430 l -39.95,-2"
         style="fill:#2f4120;fill-opacity:1;fill-rule:nonzero;stroke:none"
         id="path44" /><path
         d="m 2795.41,2687.4 h -0.01 c -635.13,0 -1149.99,514.9 -1149.99,1150 v 969.5 h 2300 v -969.5 c 0,-635.1 -514.88,-1150 -1150,-1150"
         style="fill:#ca5b30;fill-opacity:1;fill-rule:nonzero;stroke:none"
         id="path46" /><path
         d="m 3945.41,4288.8 h -2300 v 110 h 2300 v -110"
         style="fill:#dbb58a;fill-opacity:1;fill-rule:nonzero;stroke:none"
         id="path48" /><path
         d="m 3945.41,4018.8 h -2300 v 110 h 2300 v -110"
         style="fill:#dbb58a;fill-opacity:1;fill-rule:nonzero;stroke:none"
         id="path50" /><path
         d="m 18120.4,2395.7 c -221.8,68.3 -642.4,114.4 -1125,114.4 -482.5,0 -903.1,-46.1 -1124.9,-114.4 h -166.7 v -110.6 c 0,-124.3 578.3,-225.1 1291.6,-225.1 713.4,0 1291.7,100.8 1291.7,225.1 v 110.6 h -166.7"
         style="fill:#7b7b94;fill-opacity:1;fill-rule:nonzero;stroke:none"
         id="path52" /><path
         d="m 18287.1,2395.7 c 0,-124.3 -578.3,-225 -1291.7,-225 -713.3,0 -1291.6,100.7 -1291.6,225 0,124.3 578.3,225 1291.6,225 713.4,0 1291.7,-100.7 1291.7,-225"
         style="fill:#a199b0;fill-opacity:1;fill-rule:nonzero;stroke:none"
         id="path54" /><path
         d="m 16883.8,6076 h 223.3 V 2340.4 h -223.3 V 6076"
         style="fill:#7b7b94;fill-opacity:1;fill-rule:nonzero;stroke:none"
         id="path56" /><path
         d="m 17107.1,6076 h -223.3 v -696.8 l 223.3,-145.7 V 6076"
         style="fill:#2b2b44;fill-opacity:1;fill-rule:nonzero;stroke:none"
         id="path58" /><path
         d="m 18982.6,6271.5 c -391.7,120.6 -1134.8,202 -1987.2,202 -852.3,0 -1595.4,-81.4 -1987.1,-202 h -294.5 V 6076 c 0,-219.5 1021.5,-397.5 2281.6,-397.5 1260.2,0 2281.7,178 2281.7,397.5 v 195.5 h -294.5"
         style="fill:#7b7b94;fill-opacity:1;fill-rule:nonzero;stroke:none"
         id="path60" /><path
         d="m 19277.1,6271.5 c 0,-219.6 -1021.5,-397.5 -2281.7,-397.5 -1260.1,0 -2281.6,177.9 -2281.6,397.5 0,219.5 1021.5,397.5 2281.6,397.5 1260.2,0 2281.7,-178 2281.7,-397.5"
         style="fill:#a199b0;fill-opacity:1;fill-rule:nonzero;stroke:none"
         id="path62" /><path
         d="m 17360.3,6271.5 c 0,-62.2 -490.4,-112.6 -1095.4,-112.6 -604.9,0 -1095.3,50.4 -1095.3,112.6 0,62.1 490.4,112.5 1095.3,112.5 605,0 1095.4,-50.4 1095.4,-112.5"
         style="fill:#7b7b94;fill-opacity:1;fill-rule:nonzero;stroke:none"
         id="path64" /><path
         d="m 18850.3,6271.5 c 0,-62.2 -490.4,-112.6 -1095.4,-112.6 -604.9,0 -1095.3,50.4 -1095.3,112.6 0,62.1 490.4,112.5 1095.3,112.5 605,0 1095.4,-50.4 1095.4,-112.5"
         style="fill:#7b7b94;fill-opacity:1;fill-rule:nonzero;stroke:none"
         id="path66" /><path
         d="m 17851.2,7932.9 h -975 l -43.7,967.1 c -5.9,130.4 39.4,253 127.6,345.3 88,92.1 208.3,142.9 338.5,142.9 268.5,0 496.7,-218.4 508.9,-486.9 z m -946.4,30 h 915 l -42.3,937.1 c -11.4,252.6 -226.2,458.2 -478.9,458.2 -122,0 -234.5,-47.5 -316.8,-133.6 -82.5,-86.3 -124.9,-201.1 -119.4,-323.3 l 42.4,-938.4"
         style="fill:#ef4c48;fill-opacity:1;fill-rule:nonzero;stroke:none"
         id="path68" /><path
         d="m 18601.2,6271.5 h -1050 l 260,2322.5 h 530 l 260,-2322.5"
         style="fill:#f04a48;fill-opacity:1;fill-rule:nonzero;stroke:none"
         id="path70" /><path
         d="m 16632.9,8594 h -530 l -260,-2322.5 h 2128.3 V 8594 h -1338.3"
         style="fill:#cc2028;fill-opacity:1;fill-rule:nonzero;stroke:none"
         id="path72" /><path
         d="m 16302,7962.9 h 914.3 l 199.5,940.9 c 26.3,123.6 2.3,239.1 -67.4,325.2 -67.5,83.3 -170.6,129.2 -290.2,129.2 -253.8,0 -504.2,-206.7 -558,-460.7 z m 938.6,-30 h -975.7 l 205.9,970.9 c 56.7,267.1 320.2,484.4 587.4,484.4 128.9,0 240.2,-49.9 313.5,-140.3 75.5,-93.3 101.6,-217.7 73.5,-350.4 l -204.6,-964.6"
         style="fill:#cc2028;fill-opacity:1;fill-rule:nonzero;stroke:none"
         id="path74" /><path
         d="m 16099.1,7390.6 h 605.4 l -28,620 c -7.6,167.1 -149.7,303.1 -316.9,303.1 -80.7,0 -155.1,-31.4 -209.6,-88.4 -54.6,-57.1 -82.6,-133 -79,-213.8 z m 626.1,-19.9 h -645.1 l -28.9,639.9 c -3.9,86.3 26.1,167.4 84.4,228.4 58.3,61 137.8,94.6 224,94.6 177.6,0 328.7,-144.5 336.7,-322.1 l 28.9,-640.8"
         style="fill:#fec753;fill-opacity:1;fill-rule:nonzero;stroke:none"
         id="path76" /><path
         d="m 15919.2,7808.1 h -350.7 l -172,-1536.6 h 1408.1 v 1536.6 h -885.4"
         style="fill:#fba94b;fill-opacity:1;fill-rule:nonzero;stroke:none"
         id="path78" /><path
         d="m 17221.5,6271.5 h -694.7 l 172,1536.6 h 350.6 l 172.1,-1536.6"
         style="fill:#fec753;fill-opacity:1;fill-rule:nonzero;stroke:none"
         id="path80" /><path
         d="m 15700.2,7390.6 h 605 l 132,622.5 c 17.3,81.8 1.5,158.2 -44.7,215.2 -44.6,55.1 -112.8,85.4 -192,85.4 -167.9,0 -333.5,-136.7 -369.2,-304.8 z m 621,-19.9 h -645.5 l 136.2,642.4 c 37.5,176.7 211.8,320.5 388.6,320.5 85.3,0 159,-33 207.5,-92.9 49.9,-61.6 67.2,-144 48.6,-231.8 l -135.4,-638.2"
         style="fill:#fba94b;fill-opacity:1;fill-rule:nonzero;stroke:none"
         id="path82" /><path
         d="m 12827.1,14874 h -1741.3 c -132.6,0 -240,107.4 -240,240 v 510 c 0,132.5 107.4,240 240,240 h 1741.3 c 132.6,0 240,-107.5 240,-240 v -510 c 0,-132.6 -107.4,-240 -240,-240"
         style="fill:#fba94b;fill-opacity:1;fill-rule:nonzero;stroke:none"
         id="path84" /><path
         d="m 11190.2,15369 c 0,64.9 52.6,117.5 117.5,117.5 64.9,0 117.5,-52.6 117.5,-117.5 0,-64.9 -52.6,-117.5 -117.5,-117.5 -64.9,0 -117.5,52.6 -117.5,117.5"
         style="fill:#ffffff;fill-opacity:1;fill-rule:nonzero;stroke:none"
         id="path86" /><path
         d="m 11622.7,15369 c 0,64.9 52.6,117.5 117.5,117.5 64.9,0 117.5,-52.6 117.5,-117.5 0,-64.9 -52.6,-117.5 -117.5,-117.5 -64.9,0 -117.5,52.6 -117.5,117.5"
         style="fill:#ffffff;fill-opacity:1;fill-rule:nonzero;stroke:none"
         id="path88" /><path
         d="m 12055.2,15369 c 0,64.9 52.6,117.5 117.5,117.5 64.9,0 117.5,-52.6 117.5,-117.5 0,-64.9 -52.6,-117.5 -117.5,-117.5 -64.9,0 -117.5,52.6 -117.5,117.5"
         style="fill:#ffffff;fill-opacity:1;fill-rule:nonzero;stroke:none"
         id="path90" /><path
         d="m 12487.7,15369 c 0,64.9 52.6,117.5 117.5,117.5 64.9,0 117.5,-52.6 117.5,-117.5 0,-64.9 -52.6,-117.5 -117.5,-117.5 -64.9,0 -117.5,52.6 -117.5,117.5"
         style="fill:#ffffff;fill-opacity:1;fill-rule:nonzero;stroke:none"
         id="path92" /><path
         d="m 17551.2,15746.9 c 0,-605.9 -491.1,-1097.1 -1097,-1097.1 -605.9,0 -1097.1,491.2 -1097.1,1097.1 0,605.9 491.2,1097.1 1097.1,1097.1 605.9,0 1097,-491.2 1097,-1097.1"
         style="fill:#f04a48;fill-opacity:1;fill-rule:nonzero;stroke:none"
         id="path94" /><path
         d="m 17411.2,15746.9 c 0,-528.6 -428.4,-957.1 -957,-957.1 -528.6,0 -957.1,428.5 -957.1,957.1 0,528.6 428.5,957.1 957.1,957.1 528.6,0 957,-428.5 957,-957.1"
         style="fill:#fee9d4;fill-opacity:1;fill-rule:nonzero;stroke:none"
         id="path96" /><path
         d="m 16571.2,15746.9 c 0,-64.6 -52.4,-117.1 -117,-117.1 -64.7,0 -117.1,52.5 -117.1,117.1 0,64.7 52.4,117.1 117.1,117.1 64.6,0 117,-52.4 117,-117.1"
         style="fill:#783f4b;fill-opacity:1;fill-rule:nonzero;stroke:none"
         id="path98" /><path
         d="m 16459.1,15705.1 -567.9,289.2 31.8,62.3 526.2,-267.9 635.2,541.9 45.4,-53.2 -670.7,-572.3"
         style="fill:#783f4b;fill-opacity:1;fill-rule:nonzero;stroke:none"
         id="path100" /><path
         d="M 10164.5,2497.8 5126.76,2170 c -294.44,-19.1 -549.61,222 -567.44,537.4 l -774.56,13699.8 c -14.1,249.3 189.99,416.7 453.86,375 l 4557.97,-719.3 c 226.83,-35.8 428.93,-250.8 453,-481.4 L 10558.6,3045.1 c 29.8,-285.6 -145.8,-531.2 -394.1,-547.3"
         style="fill:#926e75;fill-opacity:1;fill-rule:nonzero;stroke:none"
         id="path102" /><path
         d="M 10453.4,2516.6 5466.24,2192.1 c -291.36,-18.9 -544.63,221 -563.22,534.7 L 4094.9,16360.3 c -14.72,248.3 186.87,415.1 448.3,373.9 l 4517.33,-712.9 c 224.89,-35.5 425.77,-249.6 450.27,-479.2 l 1331.5,-12481 c 30.3,-284.3 -142.9,-528.5 -388.9,-544.5"
         style="fill:#2b0e0d;fill-opacity:1;fill-rule:nonzero;stroke:none"
         id="path104" /><path
         d="m 9250.37,15077.4 -1358.78,194 -39.71,-162.3 c -26.09,-106.7 -123.04,-168.1 -240.59,-152 l -1247.38,171 c -122.76,16.8 -237.95,109.4 -285.08,229.3 l -71.94,183.1 -1509.39,215.6 770.53,-12324.6 5168.47,236.4 -1186.13,11409.5"
         style="fill:#eaedef;fill-opacity:1;fill-rule:nonzero;stroke:none"
         id="path106" /><g
         id="g108"><g
           id="g110"
           clip-path="url(#clipPath114)"><path
             d="m 9546.29,4955.3 -261.77,-39.6 -36.5,334.4 259.71,37 z m -891.68,791.6 -295.43,636.5 572.75,11.9 62.99,-577.2 z m 325.79,-1921.3 -177.73,6.7 -60.33,1002.9 48.59,243.9 121.62,-102.2 z m -146.07,3464.2 88.89,-814.7 -591.83,-12.3 -113.79,750.9 z m -221.1,3777.7 c 0,-0.1 0,-0.1 0,-0.1 l -0.01,0.1 z m -1187.24,949.9 10.27,-354.5 h -145.03 l -235.18,445.8 320.59,242.6 120.34,-40.8 26.4,-269.2 79.62,7.8 -22.87,233.2 462.97,-156.9 z m -922.14,516.3 529.98,-203.5 -481.54,-364.3 z m 243.25,1679.6 v -588 l -322.7,-160.3 -63.84,748.3 z m -1666.93,550.8 524.62,-65.3 377.08,-295.5 h -844.18 z m 1390.39,-360.8 H 6289.9 l -609.37,477.6 -631.51,78.5 -41.29,259 674.37,27.7 v -108.5 z m 321.21,428.1 360.89,-95.9 -327.98,-332.2 h -75.35 l -280.32,261.1 z m 1001.75,-299 v 0 c 0,0 0,0 0,-0.1 l 16.88,-362.4 -507.61,-569.5 -39.37,802.9 h -326.33 l 309.43,313.4 538.04,8 z m 331.67,-100.8 c 45.91,-0.4 98.33,-0.6 157.08,-0.6 74.97,0 160.33,0.3 255.34,0.9 v -529.1 l -210.84,-55 -323.33,261.4 -15.12,324.5 c 36.5,-1 82.23,-1.7 136.87,-2.1 z m 523.03,1.1 c 131.44,1.1 263.39,2.5 379.62,3.9 V 14205 h -410.23 v 227.5 c 10.17,0.1 20.24,0.1 30.61,0.2 z m -1847.54,-870.2 310.24,71.5 29.2,-595.5 h -679.33 l -29.08,340.8 z m 281.83,650.8 24.43,-498.1 -279.84,-64.5 v 562.6 z m 26.44,-1826.3 -612.66,235.3 -28.68,336.2 h 676.43 l 25.76,-525.5 z m 244.87,172.6 -37.76,770.2 232.24,260.5 504.65,-530.5 -497.83,-568.4 z m 1684.16,911.8 -434.11,-13.8 -920.35,-1009.7 -46.4,15.7 524.13,598.5 -559.54,588.1 352.71,395.7 353.46,-285.7 272.23,71 467.78,-62.1 z m 33.22,-332.4 -731.04,-913.7 -460.24,156 810.27,889 359,11.4 z m -578.68,-965.4 -71.76,24.3 666.99,833.7 72.36,-469.2 -73.94,-318.4 -591.81,-87.2 z m 922.65,-39.6 42.79,-250 h -255.33 l 0.9,-8.5 -229.33,-49.6 -294.68,-18.6 29.97,-602.2 c -6.33,-1.4 -12.55,-2.9 -18.6,-4.3 -34.34,-8 -64.26,-15.2 -89.87,-21.5 l -97.97,897.9 648.71,95.6 6.79,29.3 z m -295.08,-836.4 c -22.82,-5 -45.06,-9.9 -66.7,-14.7 l -31.47,471.5 190.11,41.1 49.6,-466.8 c -46.52,-10.2 -94.08,-20.6 -141.54,-31.1 z m -356.74,434.8 179.11,11.4 31.92,-478.5 c -69.1,-15.4 -131.1,-29.4 -185.7,-41.9 z m 604.42,-971 c 1.17,-30.9 1.36,-54.7 0.19,-66.6 -25.99,-24.1 -145.89,-87.7 -248.08,-135.5 l -25.22,-11.9 2.33,-27.7 c 16.31,-194.8 38.09,-465.8 51.65,-654.1 l -141.58,-26.9 -18.14,275.3 h -271.65 l -57.71,528.9 z m -206.6,-1112 c -2.01,-10.9 -10.96,-29.4 -19.63,-47.3 -16.07,-33.1 -36.07,-74.4 -40.15,-119.7 -1.95,-21.7 20.35,-175.8 52.95,-383.4 l -98.31,-3.6 -36.39,552.3 141.14,26.8 c 0.48,-12.2 0.64,-20.8 0.39,-25.1 z m -220.71,-16.8 40.86,-620 185.6,6.8 c 29.23,-183.9 64.45,-398.2 97.51,-597 l -358.81,-34.5 -132.35,1212.9 z M 8726,10034 h 188.01 l 13.87,-210.4 -175.29,-33.3 z m 652.76,-3110.6 -309.11,-38.7 -155.34,1423.6 363.29,35 c 38.04,-227.9 71.54,-425.6 87.15,-517.4 l -80.08,-301.1 z m -176.38,-1255 c 137.97,28.2 307.97,62.8 361.32,73 l 5.9,-37.7 -78,-277.8 6.89,-59.3 -259.15,-36.9 z m -124.05,1136.8 312.8,39.2 110.62,-707 -343.55,-64.1 z m 100.54,-921.4 352.26,65.8 20.2,-129.1 c -60.61,-11.6 -255.25,-51.3 -357.66,-72.3 z m -1674.24,2643.3 -100.44,765.5 777.49,-172.4 88.97,-526.1 z m 2462.73,-5307.6 79.54,9 -248.14,2180.9 -221.04,-31.5 -4.83,41.6 78.44,279.3 -285.02,1821.7 80.23,301.6 -1.46,8.6 c -106.47,626.1 -264.37,1579.5 -263.95,1645.2 2.94,30.5 18.59,62.8 32.4,91.3 11.96,24.7 23.27,48 26.81,70.6 6.12,39 -39.07,594.2 -61.32,860.9 248.59,118.4 260.2,154 264.66,167.7 10.51,32.3 1.92,170.7 -8.53,294.3 l 335.23,57 -13.41,78.9 -407.99,-69.4 3.28,-36.8 c 4.36,-48.7 8.36,-101.2 11.33,-148.6 l -712.73,-119.2 -29.06,266.3 c 198.7,49.7 784.3,177.7 1161.75,258.5 l -39.76,185.8 c -2.36,-0.6 -182.38,-39.1 -403.54,-87.3 l -48.67,458.1 h 472.09 v 80 h -224.54 l -53.78,314.2 -308.69,81.9 57.2,246.2 331.5,61.6 -14.6,78.6 -316.69,-58.8 -104.33,676.6 483.76,15.4 -6.06,189.9 -489.33,-15.6 12.14,364.9 -512.64,68 v 218.1 h 490.23 v 312.6 c 174.3,2.3 297.18,4.2 299.33,4.3 l -3.05,190 c -228.87,-3.7 -521.02,-7.4 -786.51,-9.4 v 1007.3 h -80 v -1007.9 c -241.45,-1.5 -451.76,-1.3 -558.14,1.9 l -40.39,867.1 -189.8,-8.8 31.55,-677.4 -511.27,-7.6 v 832.7 h -80 v -821.3 l -407.12,108.1 -375.6,-194.3 -211.5,197 704.57,415.2 -40.61,68.9 -725.02,-427.3 -262.18,244.2 v 33.6 l 453.4,18.6 -7.79,189.8 -445.61,-18.2 v 419.9 h -190 v -427.7 l -773.59,-31.8 -605.26,173.3 -52.29,-182.7 561.84,-160.8 132.49,-831 H 4367.1 v -190 h 1802.76 l 70.37,-824.8 -1745.12,-104.2 4.77,-79.9 1747.15,104.4 54.94,-644 -1805.87,-63.2 2.79,-79.9 1809.89,63.3 60.04,-703.8 H 4897.09 v -190 h 1487.94 l 7.22,-84.6 189.31,16.2 -10.17,119.2 420.02,317.8 251.57,-476.9 h 195.6 l 30.74,-1061 79.97,2.3 -41.33,1426.3 289.73,50.7 50.75,-1286.4 79.94,3.1 -51.17,1297.2 323.94,56.7 115.64,-39.2 107.56,-985.7 c 0,0 0,0 0,-0.1 v 0 l 389.37,-3568.1 -267.72,-33 -294.42,1741 -941.57,208.7 115.84,-882.8 -840.12,-249.2 22.75,-76.7 869.01,257.8 806.55,70.4 82.27,-486.5 -823.01,-103.3 -39.15,272 -720.55,-63.3 7,-79.7 645.15,56.7 171.76,-1193.7 79.18,11.3 -131.99,917.5 824.96,103.6 86.85,-513.6 -571.03,-70.4 23.25,-188.6 219.44,27 115.98,-765.3 -370.36,-304.5 50.81,-61.8 347.99,286.1 167.92,-361.8 -485.77,-104.7 16.86,-78.2 503.44,108.5 107.9,-232.4 71.71,-504.5 56.42,-47.4 -59.21,-297.2 60.48,-1005.4 -775.27,29.2 -239.97,-201.9 V 3224 h 80 v 401.4 l 187.84,158 929.57,-35 -687.27,-491.9 46.56,-65.1 800.35,572.9 -73.77,1251.6 -250.82,211 -62.97,442.9 327.05,68.4 294.03,-2694.5 188.87,20.6 -181.39,1662.4 263.09,39.8 155.7,-1339.6 79.46,9.2 -216.44,1862.3 141.62,20.2 238.78,-2099.1"
             style="fill:#ffffff;fill-opacity:1;fill-rule:nonzero;stroke:none"
             id="path116" /><path
             d="m 5927.1,7880.5 1302.46,-28.4 237.42,-963.2 260.12,-175.2 102.62,-554.8 v -504.1 h 557.38 l 190.51,-590.2 54.1,-990.8 -801.99,-55 L 7469.95,3624 7357.61,3204 H 5307.1 l -320,-239.1 -194.93,4467.8 1134.93,447.8"
             style="fill:#a1cbe2;fill-opacity:1;fill-rule:nonzero;stroke:none"
             id="path118" /><path
             d="m 9916.87,3524 140.13,340 -731.51,5524.2 206.75,562.3 -62.07,595.4 c -12.95,124.1 73.18,236.9 196.41,257.1 v 0 c 135.18,22.1 260.71,-75.2 272.96,-211.6 l 642.26,-7159.9 -664.93,92.5"
             style="fill:#a1cbe2;fill-opacity:1;fill-rule:nonzero;stroke:none"
             id="path120" /><path
             d="m 7703.77,13690.7 256.67,286.6 170,-166.6 -320.04,-283.4 -106.63,163.4"
             style="fill:#d3dadd;fill-opacity:1;fill-rule:nonzero;stroke:none"
             id="path122" /><path
             d="m 8043.1,14374 9.85,-183.3 114.15,-28.1 -16.66,211.4 H 8043.1"
             style="fill:#d3dadd;fill-opacity:1;fill-rule:nonzero;stroke:none"
             id="path124" /><path
             d="m 8225.55,14374 21.55,-133.3 h 243.34 v 133.3 h -264.89"
             style="fill:#d3dadd;fill-opacity:1;fill-rule:nonzero;stroke:none"
             id="path126" /><path
             d="m 8673.77,14687.3 v 144.1 l 283.33,-6.7 c 0,0 134.86,-142 114.1,-143 -20.76,-1 -397.43,5.6 -397.43,5.6"
             style="fill:#d3dadd;fill-opacity:1;fill-rule:nonzero;stroke:none"
             id="path128" /><path
             d="m 8490.44,14664 -14.88,196.7 -370.46,13.3 -62,-210 h 447.34"
             style="fill:#d3dadd;fill-opacity:1;fill-rule:nonzero;stroke:none"
             id="path130" /><path
             d="m 8660.44,14374 v -105.7 h 270 l -56.87,105.7 h -213.13"
             style="fill:#d3dadd;fill-opacity:1;fill-rule:nonzero;stroke:none"
             id="path132" /><path
             d="m 8660.44,14077.1 v -99.8 l 333.33,99.8 z"
             style="fill:#d3dadd;fill-opacity:1;fill-rule:nonzero;stroke:none"
             id="path134" /><path
             d="m 8993.77,13730.7 v -163.4 h -288 l -32,203.4 320,-40"
             style="fill:#d3dadd;fill-opacity:1;fill-rule:nonzero;stroke:none"
             id="path136" /><path
             d="m 9160.11,13547.3 26.99,156.7 143.34,-35 13.33,-141.7 -183.66,20"
             style="fill:#d3dadd;fill-opacity:1;fill-rule:nonzero;stroke:none"
             id="path138" /><path
             d="m 9190.44,13214 36.66,-255.5 160,73.1 -30,182.4 h -166.66"
             style="fill:#d3dadd;fill-opacity:1;fill-rule:nonzero;stroke:none"
             id="path140" /><path
             d="m 9240.44,12907.6 48.33,-234.9 c 0,0 145,23.3 135,48.9 -10,25.7 -36.67,219.1 -36.67,219.1 l -146.66,-33.1"
             style="fill:#d3dadd;fill-opacity:1;fill-rule:nonzero;stroke:none"
             id="path142" /><path
             d="m 9047.89,12862 -324.12,-370.6 162.06,-43.5 136.09,179.3 -28.15,88.2 54.12,25.3 35.88,-68 -35.88,189.3"
             style="fill:#d3dadd;fill-opacity:1;fill-rule:nonzero;stroke:none"
             id="path144" /><path
             d="m 8673.77,12400.1 c 0,-9.4 -133.1,-150.3 -133.1,-150.3 l 249.76,27.5 23.34,122.8 h -140"
             style="fill:#d3dadd;fill-opacity:1;fill-rule:nonzero;stroke:none"
             id="path146" /><path
             d="m 9288.77,12490.4 c 0,0 -51.67,-121.9 -48.33,-139.1 3.33,-17.3 146.66,-50.6 146.66,-50.6 v 220 l -98.33,-30.3"
             style="fill:#d3dadd;fill-opacity:1;fill-rule:nonzero;stroke:none"
             id="path148" /><path
             d="m 8000.44,12410.7 324.36,363.3 c 0,0 191.36,-223.9 183.5,-240.3 -7.86,-16.4 -197.86,-233 -197.86,-233 l -310,110"
             style="fill:#d3dadd;fill-opacity:1;fill-rule:nonzero;stroke:none"
             id="path150" /><path
             d="m 7950.44,11965.9 246.66,54.8 90,-100 37.7,-540 -271.85,56.6 -102.51,528.6"
             style="fill:#d3dadd;fill-opacity:1;fill-rule:nonzero;stroke:none"
             id="path152" /><path
             d="m 8613.22,12020.7 17.22,-120 610,65.2 -20,168.1 -607.22,-113.3"
             style="fill:#d3dadd;fill-opacity:1;fill-rule:nonzero;stroke:none"
             id="path154" /><path
             d="m 8927.88,8909.9 52.52,-382.8 198.47,23.4 -88.41,359.4 h -162.58"
             style="fill:#d3dadd;fill-opacity:1;fill-rule:nonzero;stroke:none"
             id="path156" /><path
             d="m 9019.64,8184 33.73,-452.1 194.65,226 -69.15,267.1 -159.23,-41"
             style="fill:#d3dadd;fill-opacity:1;fill-rule:nonzero;stroke:none"
             id="path158" /><path
             d="m 9078.33,7537.3 186.1,246.7 -85.56,-246.7 85.56,-535.9 h -130.6 l -55.5,535.9"
             style="fill:#d3dadd;fill-opacity:1;fill-rule:nonzero;stroke:none"
             id="path160" /><path
             d="m 9171.38,6662.4 31,-338.4 108.65,71.3 -20.99,267.1 h -118.66"
             style="fill:#d3dadd;fill-opacity:1;fill-rule:nonzero;stroke:none"
             id="path162" /><path
             d="m 6189.14,13228.6 c -27.21,146.5 -44.24,295 -50.93,443.8 -4.59,102.1 -4,206.6 28.65,303.4 4.5,13.3 13.63,29.1 27.6,27.3 92.62,-11.9 98.88,-302.7 98.61,-364.8 -0.32,-72.1 -9.43,-144.1 -27.26,-213.9 -8.68,-34.1 -19.42,-67.6 -32.21,-100.3 -7.19,-18.4 -47.66,-78.3 -44.46,-95.5"
             style="fill:#630110;fill-opacity:1;fill-rule:nonzero;stroke:none"
             id="path164" /><path
             d="m 8636.3,11873.7 c -5.56,15.4 -19.99,25.7 -34.27,33.7 -134.55,75.7 -303.45,33.4 -446.3,-25.1 -14.71,-6 -29.83,-12.5 -40.56,-24.3 -14.67,-16 -18.6,-38.8 -21.69,-60.4 -9.04,-62.9 -16.24,-126.1 -21.75,-189.4 -222.66,-250.2 -445.44,-498.4 -666.28,-750.4 -133.24,135.9 -267.49,273 -369.98,433.3 -102.38,160.1 -171.58,320.8 -295.66,464.8 l -152.57,-6.4 -323.58,-434.8 c 238.64,-378.1 541.11,-715.8 890.74,-994.5 103.6,-82.6 239.23,-163.9 360.63,-110.8 61.07,26.7 103.57,82.5 142.44,136.7 242.11,337.2 401.36,718.4 607.95,1076 9.95,8.7 20.03,17.2 30.35,25.5 70.17,56.3 146.4,106.4 205.71,174 49.59,56.6 85.63,123.5 121.22,189.8 10.39,19.3 21.05,41.6 13.6,62.3"
             style="fill:#d88361;fill-opacity:1;fill-rule:nonzero;stroke:none"
             id="path166" /><path
             d="m 7725.6,10507.5 c -80.43,-73.7 -178.73,-139.4 -287.83,-138.7 -119.45,0.7 -223,80 -309.91,161.9 -190.87,180 -351.31,392.1 -472.48,624.7 -15.41,29.6 -30.42,60.3 -34.2,93.4 -4.49,39.2 7.13,78.3 18.61,116.1 37.89,124.7 75.79,249.4 113.68,374 -4.64,5.7 -8.86,11.4 -13.66,17 l -152.57,-6.4 -323.58,-434.8 c 238.64,-378.1 541.11,-715.8 890.74,-994.5 103.61,-82.6 239.23,-163.9 360.63,-110.8 61.07,26.7 103.57,82.5 142.44,136.7 62.66,87.2 119.56,177.5 173.36,269.5 -33.36,-37.7 -68.12,-74.1 -105.23,-108.1"
             style="fill:#d38571;fill-opacity:1;fill-rule:nonzero;stroke:none"
             id="path168" /><path
             d="m 8733.72,11567.2 h -524.24 c -59.04,0 -106.9,47.8 -106.9,106.9 v 1070.5 c 0,59.1 47.86,106.9 106.9,106.9 h 524.24 c 59.04,0 106.9,-47.8 106.9,-106.9 v -1070.5 c 0,-59.1 -47.86,-106.9 -106.9,-106.9"
             style="fill:#282f39;fill-opacity:1;fill-rule:nonzero;stroke:none"
             id="path170" /><path
             d="m 8202.04,12741.7 h 539.12 v -387.1 h -539.12 v 387.1"
             style="fill:#ffffff;fill-opacity:1;fill-rule:nonzero;stroke:none"
             id="path172" /><path
             d="m 8343.34,12548.2 c 0,70.8 57.42,128.2 128.26,128.2 70.84,0 128.26,-57.4 128.26,-128.2 0,-70.9 -57.42,-128.3 -128.26,-128.3 -70.84,0 -128.26,57.4 -128.26,128.3"
             style="fill:#64c9fd;fill-opacity:1;fill-rule:nonzero;stroke:none"
             id="path174" /><path
             d="m 8453.96,12474.4 -65.2,65 6.63,3.7 58.87,-58.7 95.91,87.5 6.39,-3.9 -102.6,-93.6"
             style="fill:#ffffff;fill-opacity:1;fill-rule:nonzero;stroke:none"
             id="path176" /><path
             d="m 8359.91,12179.4 h -136.02 v 90.3 h 136.02 v -90.3"
             style="fill:#d3dadd;fill-opacity:1;fill-rule:nonzero;stroke:none"
             id="path178" /><path
             d="m 8540.67,12179.4 h -136.02 v 90.3 h 136.02 v -90.3"
             style="fill:#d3dadd;fill-opacity:1;fill-rule:nonzero;stroke:none"
             id="path180" /><path
             d="m 8721.43,12179.4 h -136.01 v 90.3 h 136.01 v -90.3"
             style="fill:#d3dadd;fill-opacity:1;fill-rule:nonzero;stroke:none"
             id="path182" /><path
             d="m 8359.91,12012.8 h -136.02 v 90.3 h 136.02 v -90.3"
             style="fill:#d3dadd;fill-opacity:1;fill-rule:nonzero;stroke:none"
             id="path184" /><path
             d="m 8540.67,12012.8 h -136.02 v 90.3 h 136.02 v -90.3"
             style="fill:#d3dadd;fill-opacity:1;fill-rule:nonzero;stroke:none"
             id="path186" /><path
             d="m 8721.43,12012.8 h -136.01 v 90.3 h 136.01 v -90.3"
             style="fill:#d3dadd;fill-opacity:1;fill-rule:nonzero;stroke:none"
             id="path188" /><path
             d="m 8359.91,11846.2 h -136.02 v 90.3 h 136.02 v -90.3"
             style="fill:#d3dadd;fill-opacity:1;fill-rule:nonzero;stroke:none"
             id="path190" /><path
             d="m 8540.67,11846.2 h -136.02 v 90.3 h 136.02 v -90.3"
             style="fill:#d3dadd;fill-opacity:1;fill-rule:nonzero;stroke:none"
             id="path192" /><path
             d="m 8721.43,11846.2 h -136.01 v 90.3 h 136.01 v -90.3"
             style="fill:#d3dadd;fill-opacity:1;fill-rule:nonzero;stroke:none"
             id="path194" /><path
             d="m 8359.91,11679.6 h -136.02 v 90.3 h 136.02 v -90.3"
             style="fill:#4b74db;fill-opacity:1;fill-rule:nonzero;stroke:none"
             id="path196" /><path
             d="m 8721.43,11679.6 h -136.01 v 90.3 h 136.01 v -90.3"
             style="fill:#c62249;fill-opacity:1;fill-rule:nonzero;stroke:none"
             id="path198" /><path
             d="m 8067.88,11726.7 c -0.24,-46.3 -26.33,-90.3 -25.52,-136.5 0.82,-46.4 17.45,-94.4 55.7,-125.6 7.75,-6.3 16.68,-12 27,-13.7 12.71,-2 25.65,2.4 36.81,8.2 53.82,28.1 78.37,88.3 75.88,144 -2.49,55.7 -27.31,108.4 -52.13,159.6 -24.83,51.1 -50.41,103.4 -54.59,159 -3.84,51.3 8.32,110 -30.06,148.2 -14.49,14.4 -41.65,23 -57.1,9.4 -11.09,-9.7 -10.32,-25.6 -8.78,-39.5 10.27,-92.2 33.49,-177.2 32.79,-313.1"
             style="fill:#d88361;fill-opacity:1;fill-rule:nonzero;stroke:none"
             id="path200" /><path
             d="m 8663.95,12940.7 c -48.2,72.4 -119.78,114 -196.38,114 -71.13,0 -139.32,-36.8 -187.1,-100.8 l -18.32,20.1 c 52.46,70.3 127.33,110.7 205.42,110.7 84.09,0 162.68,-45.6 215.6,-125.1 l -19.22,-18.9"
             style="fill:#fba949;fill-opacity:1;fill-rule:nonzero;stroke:none"
             id="path202" /><path
             d="m 8761.84,13136.9 c -72.81,109.4 -180.93,172.1 -296.64,172.1 -107.44,0 -210.45,-55.5 -282.62,-152.2 l -18.32,20.1 c 76.85,103 186.54,162.1 300.94,162.1 123.21,0 238.33,-66.8 315.86,-183.2 l -19.22,-18.9"
             style="fill:#fba949;fill-opacity:1;fill-rule:nonzero;stroke:none"
             id="path204" /><path
             d="m 8854.51,13381.7 c -96.11,144.4 -238.83,227.2 -391.56,227.2 -141.81,0 -277.78,-73.3 -373.04,-200.9 l -18.31,20.1 c 99.93,134 242.58,210.8 391.35,210.8 160.23,0 309.95,-86.9 410.78,-238.3 l -19.22,-18.9"
             style="fill:#fba949;fill-opacity:1;fill-rule:nonzero;stroke:none"
             id="path206" /><path
             d="m 7019.6,3043.4 c -68.95,878.4 -29.08,1761.2 -25.8,2642.3 3.84,1029.9 -42.38,2059.3 -88.6,3088.2 -707.71,21.8 -1412.68,66 -2120.39,87.8 -13.69,-1922.9 67.85,-3846.4 244.22,-5761.2 142.39,21.9 284.76,43.8 427.15,65.7 178.44,1213.1 266.84,2804.7 445.29,4017.8 174.39,-588 179.06,-1647.2 156.7,-2260.1 -22.48,-616.4 -13.52,-1234 26.83,-1849.5 l 934.6,-31"
             style="fill:#202d36;fill-opacity:1;fill-rule:nonzero;stroke:none"
             id="path208" /><path
             d="m 6651.48,12318.1 c -87.84,117.3 -216.58,197.6 -359.58,229.4 -185.95,41.3 -373.67,74.7 -562.49,99.9 -66.31,8.8 -133.66,16.7 -199.92,7.4 -57.03,-7.9 -111.5,-28.4 -165.01,-49.6 -200.43,-79.7 -395.16,-173.8 -582.2,-281.2 -56.92,-32.6 -114,-67.3 -158.29,-115.7 -68.34,-74.8 -99.94,-175.1 -129.6,-271.9 L 4766.7,8650.7 c 730.07,-206.6 1516.93,-123.1 2262.05,20 -14.28,856 -71.19,1711.2 -170.46,2561.5 116.28,-139.8 241.64,-280.2 378.14,-400.4 28.82,14.3 53.53,35.5 77.9,56.5 106.08,91.4 -143.4,140.9 -57.18,250.3 -205.64,326 -280.05,547.9 -470.05,943.7 -43.79,91.2 -85.31,168.7 -135.62,235.8"
             style="fill:#f04a48;fill-opacity:1;fill-rule:nonzero;stroke:none"
             id="path210" /><path
             d="m 5313.14,12667.9 c -104.27,-132.5 -135.82,-318.8 -80.96,-478.1 35.27,-102.5 102.28,-190.8 172.59,-273.2 50.66,-59.5 105.85,-118.6 177.47,-149.8 10.19,-4.4 21.26,-8.3 32.21,-6.4 12.97,2.1 23.26,11.8 31.97,21.7 70.73,80.1 90.17,191.8 106.79,297.3 68.64,-77.5 160.15,-123.2 252.04,-170.9 24.69,-12.8 56.07,-24 78.7,-7.8 12.74,9.1 18.94,24.7 23.03,39.8 17.8,65.9 7.52,136.2 -10.92,201.9 -69.91,249 -261.74,460.7 -502.72,554.6 l -280.2,-29.1"
             style="fill:#fec753;fill-opacity:1;fill-rule:nonzero;stroke:none"
             id="path212" /><path
             d="m 5265.86,13290.5 c 8.52,-169.6 15.37,-339.3 20.56,-509.1 1.88,-61.7 3.53,-123.6 -3.82,-184.9 -4.66,-38.8 -12.93,-77.6 -10.66,-116.6 5.35,-92.1 67.42,-170 128.14,-239.5 78.12,-89.4 164.58,-180.3 278.38,-214.3 43.52,-13 94.84,-15.5 130.28,12.9 35.4,28.4 44.12,78.9 41.01,124.2 -5.25,76.3 -36.55,148.7 -75.5,214.5 -10.23,17.3 -21.14,34.6 -26.68,53.9 -5.82,20.3 -5.4,41.9 -5.07,63 3.53,223.8 -8.73,447.8 -36.65,669.9 l -439.99,126"
             style="fill:#d88361;fill-opacity:1;fill-rule:nonzero;stroke:none"
             id="path214" /><path
             d="m 5747.57,12431.6 c -5.82,20.3 -5.4,41.8 -5.07,63 3.53,223.8 -8.73,447.8 -36.65,669.9 l -439.99,126 c 0.14,-2.7 0.25,-5.3 0.38,-8 29.68,-96.7 79.47,-186.5 110.86,-288.5 30,-120 40,-240 90,-360 62.14,-141.2 178.52,-221.8 311.29,-263.4 -1.37,2.4 -2.74,4.8 -4.14,7.1 -10.23,17.3 -21.14,34.6 -26.68,53.9"
             style="fill:#ba6243;fill-opacity:1;fill-rule:nonzero;stroke:none"
             id="path216" /><path
             d="m 5395.18,13125.1 c 48.77,-101.9 98.08,-204.8 167.46,-294 69.38,-89.2 161.38,-165 270.44,-194.6 109.06,-29.7 236.03,-6.6 314.12,75.1 72.22,75.5 92.9,185.7 103.57,289.7 24.37,237.5 10.5,477 2.55,715.7 -8.97,269.4 -242.29,341.8 -433.08,389.6 -116.73,29.3 -250.67,21.3 -343.43,-55.3 -76.89,-63.6 -113.61,-163.3 -135.53,-260.6 -53.36,-236.9 -50.87,-446.5 53.9,-665.6"
             style="fill:#fdaf89;fill-opacity:1;fill-rule:nonzero;stroke:none"
             id="path218" /><path
             d="m 5563.4,13912.1 c -0.92,-69.1 -1.97,-139.1 -20.65,-205.5 -18.68,-66.5 -57.37,-130.2 -117.47,-164.2 25.98,-102.2 20.83,-212.1 -14.6,-311.4 -13.45,40.8 -46.66,71.6 -78.58,100.4 -34.39,31 -68.77,62 -103.16,93.1 -23.25,20.9 -46.87,42.4 -62.85,69.3 -12.66,21.4 -20.04,45.5 -25.75,69.6 -25.6,108.5 -19.05,224.4 18.63,329.3 l 404.43,19.4"
             style="fill:#630110;fill-opacity:1;fill-rule:nonzero;stroke:none"
             id="path220" /><path
             d="m 5445.46,13297.2 c -24.74,70.6 -63.43,136.3 -113.21,192.3 -34.18,38.4 -108.23,89.1 -163.21,75.2 -81.83,-20.6 -41.97,-163.1 -29.09,-217.8 31.89,-135.6 155.61,-244.5 294.18,-258.8 l 11.33,209.1"
             style="fill:#fdaf89;fill-opacity:1;fill-rule:nonzero;stroke:none"
             id="path222" /><path
             d="m 5385.91,13202.9 c -24.58,-12.8 -55.21,-13.3 -80.17,-1.2 -29.07,14 -48.4,42.6 -61.59,72 -8.76,19.6 -15.53,41 -12.57,62.2 2.96,21.3 17.94,42 39.04,45.9 -8.67,26.4 -32.96,47 -60.43,51.2 -6.06,-15 -12.13,-30.1 -18.2,-45.1 -9.84,29.5 -12.42,61.4 -7.46,92.2 0.89,5.5 2.71,11.9 7.93,13.9 4.03,1.6 8.55,-0.1 12.51,-1.9 61.88,-27.8 111.4,-81.9 133.55,-146 -14.68,13.4 -32.49,-8.5 -38.37,-27.5 -5.89,-19 1.66,-39.3 9.74,-57.5 13.07,-29.4 43.97,-61 76.02,-58.2"
             style="fill:#d38571;fill-opacity:1;fill-rule:nonzero;stroke:none"
             id="path224" /><path
             d="m 6024.8,13226.5 c -9.38,74.6 -18.76,149.2 -28.14,223.8 34.05,-17 47.27,-34 65.82,-62.3 16.94,-25.9 33.42,-53.3 33.01,-83.3 -0.41,-30.1 -33.61,-68.6 -70.69,-78.2"
             style="fill:#f75785;fill-opacity:1;fill-rule:nonzero;stroke:none"
             id="path226" /><path
             d="m 5464.23,12885 c 22.71,141.1 28.66,294.4 18.38,437.2 267.69,1 535.34,10.6 802.41,28.9 9.39,-61.4 11.51,-122.6 11.07,-184.7 -0.6,-85 -2.22,-170.6 -19.47,-253.7 -17.26,-83.1 -51.25,-164.3 -108.91,-224.7 -98.23,-103.1 -256.66,-131 -390.29,-87.1 -133.62,43.9 -244.92,157.5 -313.19,284.1"
             style="fill:#64c9fd;fill-opacity:1;fill-rule:nonzero;stroke:none"
             id="path228" /><path
             d="m 5365.69,13442.3 c -0.16,12 -26.51,38.2 -26.51,38.2 86.8,-75.3 113.8,-108.2 190.64,-184.3 1.38,-9.6 1.81,-25.3 -3.21,-33.5 l -160.92,179.6"
             style="fill:#64c9fd;fill-opacity:1;fill-rule:nonzero;stroke:none"
             id="path230" /><path
             d="m 5783.63,13580.8 c -5.41,-48.4 -5.91,-100 17.47,-142.8 5.57,-10.2 14.71,-20.8 26.26,-19.7 11.92,1.3 18.64,14.1 22.31,25.5 6.45,20 10.23,40.9 11.21,61.8 0.75,16.1 -0.15,32.3 -1.05,48.3 -0.97,17.4 -2.1,35.3 -10.22,50.6 -25.19,47.5 -61.65,15.1 -65.98,-23.7"
             style="fill:#3f3335;fill-opacity:1;fill-rule:nonzero;stroke:none"
             id="path232" /><path
             d="m 6098.57,13591.9 c -5.42,-48.4 -5.91,-100 17.46,-142.8 5.57,-10.2 14.72,-20.8 26.27,-19.6 11.91,1.2 18.63,14.1 22.31,25.4 6.45,20 10.23,40.9 11.2,61.9 0.75,16.1 -0.15,32.2 -1.04,48.3 -0.97,17.3 -2.1,35.2 -10.22,50.5 -25.2,47.6 -61.65,15.1 -65.98,-23.7"
             style="fill:#3f3335;fill-opacity:1;fill-rule:nonzero;stroke:none"
             id="path234" /><path
             d="m 6166.64,13759.1 -12.55,6.9 c -16.3,3.2 -32.82,5.2 -49.39,6.1 -7.61,0.4 -15.44,0.6 -22.6,-2 -7.16,-2.7 -13.58,-8.6 -14.63,-16.1 -1.06,-7.6 3.6,-15.2 9.99,-19.5 6.4,-4.2 14.22,-5.7 21.88,-6.4 28.71,-2.6 57.26,4.9 85.11,12.4 -2.54,8.5 -9.38,15.7 -17.81,18.6"
             style="fill:#3f3335;fill-opacity:1;fill-rule:nonzero;stroke:none"
             id="path236" /><path
             d="m 6223.65,13921.2 c 6.67,2.2 120.87,66.2 262.93,55.3 142.05,-10.8 186.55,-128.7 186.55,-128.7 l -497.04,15.6 47.56,57.8"
             style="fill:#630110;fill-opacity:1;fill-rule:nonzero;stroke:none"
             id="path238" /><path
             d="m 6263.55,13935.6 c 2.33,102.6 -32.01,202.5 -75.6,294.4 -21.32,44.9 -45.56,89.4 -80.67,123.4 -47.76,46.3 -111.66,69.2 -174.96,84.1 -189.8,44.6 -392.51,26 -572.14,-52.5 -56.82,-24.8 -112.33,-56.3 -154.92,-103.1 -52.75,-57.9 -82.26,-136.2 -92.97,-215.7 -10.71,-79.5 -4.92,-276.2 7.61,-355.4 378.33,81.5 765.31,143.2 1143.65,224.8"
             style="fill:#f04a48;fill-opacity:1;fill-rule:nonzero;stroke:none"
             id="path240" /><path
             d="m 5317.07,13123.9 27.12,-12.7 c 92.89,-110.2 98.55,-118.6 200.03,-220.4 -4.18,-9.5 -14.45,-22.1 -22.41,-28.6 l -204.74,261.7"
             style="fill:#64c9fd;fill-opacity:1;fill-rule:nonzero;stroke:none"
             id="path242" /><path
             d="M 7568.7,8983.2 H 5352.94 v 2357.1 H 7568.7 V 8983.2"
             style="fill:#cba26e;fill-opacity:1;fill-rule:nonzero;stroke:none"
             id="path244" /><path
             d="m 7568.7,8983.2 h 1118.23 v 2357.1 H 7568.7 V 8983.2"
             style="fill:#dfba90;fill-opacity:1;fill-rule:nonzero;stroke:none"
             id="path246" /><path
             d="m 7829.72,9153.4 h -176.78 v 245.2 h 176.78 v -245.2"
             style="fill:#cba26e;fill-opacity:1;fill-rule:nonzero;stroke:none"
             id="path248" /><path
             d="m 8111.57,9153.4 h -176.78 v 245.2 h 176.78 v -245.2"
             style="fill:#cba26e;fill-opacity:1;fill-rule:nonzero;stroke:none"
             id="path250" /><path
             d="m 8393.41,9153.4 h -176.78 v 245.2 h 176.78 v -245.2"
             style="fill:#cba26e;fill-opacity:1;fill-rule:nonzero;stroke:none"
             id="path252" /><path
             d="m 5205.77,10876.8 c 89,-180.3 180.39,-359.4 274.13,-537.3 55.23,-104.8 111.66,-209.8 184.55,-303.2 72.6,-93 160.42,-173 251.74,-247.7 276.97,-226.5 590.66,-408.1 925.08,-535.4 58.08,27.9 125.34,41.9 189.53,36 41.35,-3.8 81.95,-14.8 123.47,-16.1 54.03,-1.7 107.07,13.1 160.77,19.3 4.1,0.4 8.58,0.8 12.05,-1.4 5.61,-3.6 5.71,-11.8 4.25,-18.3 -7.99,-35.6 -41.95,-60.1 -76.91,-70.6 -34.95,-10.5 -72.12,-10.4 -108.18,-16.1 -36.9,-5.9 -72.8,-17.9 -105.76,-35.5 -1.14,-43.7 37.51,-96.5 75.9,-117.3 38.39,-20.8 81.87,-32.1 117.84,-56.9 7.55,-5.2 15.24,-11.8 16.78,-20.8 2.59,-15.3 -14.03,-27.5 -29.44,-28.9 -15.4,-1.4 -30.73,3.7 -46.19,3.2 -30.34,-1 -55.4,-23 -83.8,-33.7 -46.59,-17.5 -98.92,-3.5 -148.15,-10.9 -20.93,-3.1 -41.37,-10.1 -62.53,-10.3 -48.08,-0.6 -89.36,32.9 -123.01,67.2 -32.53,33.2 -62.44,69 -89.35,107 -373.74,95.9 -755.74,220.5 -1083.07,424.9 -393.04,245.3 -706.28,616.3 -882.26,1045 l 502.56,357.8"
             style="fill:#d88361;fill-opacity:1;fill-rule:nonzero;stroke:none"
             id="path254" /><path
             d="m 4580.66,12178.4 c 60.91,43.8 148.58,32.4 211.62,-8.3 63.04,-40.7 106.51,-104.9 146.06,-168.7 244.11,-393.3 405.8,-831 565.86,-1265.3 -278.5,-131.9 -557,-263.7 -835.49,-395.5 l -88.05,1837.8"
             style="fill:#f04a48;fill-opacity:1;fill-rule:nonzero;stroke:none"
             id="path256" /><path
             d="m 5541.19,13691.1 c 165.71,-21.6 336.64,-49.5 497.67,-4.8 38.39,10.7 76.39,25.8 106.83,51.5 30.49,25.7 51.66,60.5 76.48,91.7 31.95,40.1 70.53,75 113.71,102.8 48.02,30.8 105.45,53.2 161.52,42.6 -22.7,10.1 -57.19,9.9 -81.99,8.5 -123.07,-6.8 -244.42,-31.3 -364.99,-56.9 -302.2,-64.1 -569.85,-119.3 -868.35,-198.9 34.11,-1.7 265.68,-24.2 359.12,-36.5"
             style="fill:#9e0416;fill-opacity:1;fill-rule:nonzero;stroke:none"
             id="path258" /></g></g><path
         d="m 9118.97,14970.6 c 0,-493.5 -400,-893.5 -893.42,-893.5 -493.42,0 -893.42,400 -893.42,893.5 0,493.4 400,893.4 893.42,893.4 493.42,0 893.42,-400 893.42,-893.4"
         style="fill:#fec753;fill-opacity:1;fill-rule:nonzero;stroke:none"
         id="path260" /><path
         d="m 7751.78,15124 376.03,-460 1404.43,1270 78.23,-130 -1503.37,-1380 -454.16,620 98.84,80"
         style="fill:#01848f;fill-opacity:1;fill-rule:nonzero;stroke:none"
         id="path262" /><path
         d="m 3287.5,12785.9 c 8.6,-10.7 20.59,-16.1 35.97,-16.1 14.75,0 26.57,5.4 35.49,16.1 8.9,10.8 13.37,26 13.37,45.7 0,19 -4.47,34 -13.37,44.7 -8.92,10.8 -20.74,16.1 -35.49,16.1 -15.38,0 -27.37,-5.3 -35.97,-16.1 -8.61,-10.7 -12.9,-25.7 -12.9,-44.7 0,-19.7 4.29,-34.9 12.9,-45.7 z m 146.61,160 c 28.26,-27 42.41,-65.1 42.41,-114.3 0,-49.2 -14.15,-87.4 -42.41,-114.8 -28.28,-27.4 -65.16,-41 -110.64,-41 -44.88,0 -81.6,13.6 -110.18,41 -28.59,27.4 -42.88,65.6 -42.88,114.8 0,49.2 14.29,87.3 42.88,114.3 28.58,27.1 65.3,40.6 110.18,40.6 45.48,0 82.36,-13.5 110.64,-40.6 z m -534.77,202.4 c 8.6,-10.8 20.28,-16.1 35.04,-16.1 15.36,0 27.66,5.3 36.88,16.1 9.21,10.8 13.83,25.7 13.83,44.7 0,19.1 -4.62,34 -13.83,44.7 -9.22,10.8 -21.52,16.2 -36.88,16.2 -14.76,0 -26.44,-5.4 -35.04,-16.2 -8.61,-10.7 -12.9,-25.6 -12.9,-44.7 0,-19 4.29,-33.9 12.9,-44.7 z m 484.05,190.4 -355.89,-653.7 h -152.13 l 355.89,653.7 z m -336.99,-31.3 c 28.59,-27.1 42.88,-65.2 42.88,-114.4 0,-49.2 -14.29,-87.3 -42.88,-114.3 -28.58,-27.1 -65.32,-40.6 -110.18,-40.6 -46.1,0 -83.44,13.5 -112.02,40.6 -28.58,27 -42.88,65.1 -42.88,114.3 0,49.2 14.3,87.3 42.88,114.4 28.58,27 65.92,40.5 112.02,40.5 44.86,0 81.6,-13.5 110.18,-40.5"
         style="fill:#ffffff;fill-opacity:1;fill-rule:nonzero;stroke:none"
         id="path264" /><path
         d="m 3415.11,11747.2 h -572.38 c -43.97,0 -79.6,35.6 -79.6,79.6 v 0 c 0,43.9 35.63,79.6 79.6,79.6 h 572.38 c 43.97,0 79.61,-35.7 79.61,-79.6 v 0 c 0,-44 -35.64,-79.6 -79.61,-79.6"
         style="fill:#ffffff;fill-opacity:1;fill-rule:nonzero;stroke:none"
         id="path266" /><path
         d="m 3415.11,11487.6 h -572.38 c -43.97,0 -79.6,35.6 -79.6,79.6 v 0 c 0,44 35.63,79.6 79.6,79.6 h 572.38 c 43.97,0 79.61,-35.6 79.61,-79.6 v 0 c 0,-44 -35.64,-79.6 -79.61,-79.6"
         style="fill:#ffffff;fill-opacity:1;fill-rule:nonzero;stroke:none"
         id="path268" /><path
         d="m 3415.11,11228 h -572.38 c -43.97,0 -79.6,35.6 -79.6,79.6 v 0 c 0,44 35.63,79.6 79.6,79.6 h 572.38 c 43.97,0 79.61,-35.6 79.61,-79.6 v 0 c 0,-44 -35.64,-79.6 -79.61,-79.6"
         style="fill:#ffffff;fill-opacity:1;fill-rule:nonzero;stroke:none"
         id="path270" /><path
         d="m 3239.61,13942.2 c 0,-28.8 -23.41,-52.3 -52.29,-52.3 -28.88,0 -52.3,23.5 -52.3,52.3 0,28.9 23.42,52.3 52.3,52.3 28.88,0 52.29,-23.4 52.29,-52.3"
         style="fill:#ffffff;fill-opacity:1;fill-rule:nonzero;stroke:none"
         id="path272" /><path
         d="m 2740.75,14605.2 c -7.45,33 -32.6,63.3 -65.82,69.7 -33.22,6.4 -79.46,-17.2 -82.02,-50.9 -2.57,33.7 -48.8,57.3 -82.02,50.9 -33.22,-6.4 -58.37,-36.7 -65.83,-69.7 -8.69,-38.5 3.43,-79.3 24.4,-112.7 20.98,-33.4 50.21,-60.7 79.09,-87.5 13.13,-12.2 31.23,-46.8 44.36,-59.1 13.13,12.3 31.23,46.9 44.36,59.1 28.88,26.8 58.11,54.1 79.08,87.5 20.98,33.4 33.09,74.2 24.4,112.7"
         style="fill:#ffffff;fill-opacity:1;fill-rule:nonzero;stroke:none"
         id="path274" /><path
         d="m 5881.85,17865.1 63.94,-327.5 204.37,-44.9 -165.04,-156.5 63.34,-324.4 -166.61,226.5 -169.17,-160.5 64.93,302.2 -170.8,232.1 210.73,-46.3 64.31,299.3"
         style="fill:#ffffff;fill-opacity:1;fill-rule:nonzero;stroke:none"
         id="path276" /><path
         d="m 6633.93,17689.1 59.63,-315.8 190.68,-41.9 -154,-152.4 59.1,-312.8 -155.41,217.6 -157.71,-156.1 60.51,292.2 -159.17,222.8 196.4,-43.1 59.97,289.5"
         style="fill:#ffffff;fill-opacity:1;fill-rule:nonzero;stroke:none"
         id="path278" /><path
         d="m 7336.1,17524.7 55.74,-304.8 178.32,-39.2 -144.02,-148.4 55.25,-302.2 -145.29,209.4 -147.39,-151.9 56.55,282.8 -148.71,214.3 183.5,-40.3 56.05,280.3"
         style="fill:#ffffff;fill-opacity:1;fill-rule:nonzero;stroke:none"
         id="path280" /><path
         d="m 7993.16,17370.9 52.22,-294.7 167.12,-36.7 -134.98,-144.6 51.78,-292.2 -136.14,201.8 -138.04,-147.9 52.95,274 -139.23,206.4 171.81,-37.7 52.51,271.6"
         style="fill:#ffffff;fill-opacity:1;fill-rule:nonzero;stroke:none"
         id="path282" /><path
         d="m 8609.32,17226.7 49.03,-285.2 156.95,-34.5 -126.78,-141 48.63,-282.8 -127.83,194.7 -129.55,-144.1 49.69,265.8 -130.64,199 161.22,-35.5 49.28,263.6"
         style="fill:#ffffff;fill-opacity:1;fill-rule:nonzero;stroke:none"
         id="path284" /><path
         d="m 4926.12,17416.6 -1087.17,197.8 c -28.96,5.2 -52.49,43.4 -52.49,85.1 v 1285.4 c 0,41.8 23.53,70 52.49,63 l 1284.34,-307.7 c 26,-6.2 47.02,-43.3 47.02,-82.7 0,-39.4 -21.02,-66.5 -47.02,-60.4 l -1232.06,287.7 v -1129.4 l 1003.35,-188.6 395.32,1303.7 c 7.35,24.2 24.09,36.9 42.57,32.3 l 365.46,-90.9 c 24.75,-6.1 44.76,-42.3 44.76,-80.8 0,-38.5 -20.01,-64.8 -44.76,-58.8 l -335.05,81.3 -392.85,-1301.5 c -7.55,-25.1 -24.8,-39 -43.91,-35.5"
         style="fill:#ffffff;fill-opacity:1;fill-rule:nonzero;stroke:none"
         id="path286" /><path
         d="m 4051.33,17387.9 c -29.69,5.1 -53.9,-25.8 -53.9,-69 0,-43.1 24.21,-82.3 53.9,-87.3 29.62,-5 53.67,26 53.67,68.9 0,43 -24.05,82.2 -53.67,87.4 z m 0,-305.9 c -86.75,14 -157.78,128.3 -157.78,254.7 0,126.4 71.03,216.4 157.78,200.8 86.15,-15.6 155.79,-129.6 155.79,-254.4 0,-124.8 -69.64,-215.1 -155.79,-201.1"
         style="fill:#ffffff;fill-opacity:1;fill-rule:nonzero;stroke:none"
         id="path288" /><path
         d="m 4804.56,17256.6 c -27.91,4.8 -50.66,-25.3 -50.66,-67.1 0,-41.9 22.75,-79.7 50.66,-84.4 27.83,-4.7 50.44,25.4 50.44,67.1 0,41.7 -22.61,79.5 -50.44,84.4 z m 0,-296.6 c -81.52,13.2 -148.26,123.7 -148.26,246.2 0,122.5 66.74,210.1 148.26,195.4 80.97,-14.6 146.43,-124.8 146.43,-245.8 0,-121 -65.46,-208.9 -146.43,-195.8"
         style="fill:#ffffff;fill-opacity:1;fill-rule:nonzero;stroke:none"
         id="path290" /><path
         d="m 14898.8,2363.6 c 45,-164.1 3.2,-338.8 -50.8,-500 -54.1,-161.3 -121.1,-322 -127.4,-492 -1.4,-37.2 1.2,-77.3 24.3,-106.4 28.3,-35.6 78,-44.1 123.2,-48.9 157.1,-16.7 315.8,-19.5 473.4,-8.2 45.1,3.2 92.1,8.2 130.2,32.7 60.7,39 83.3,118.3 81.1,190.5 -4.4,140.8 -82,267 -134,397.9 -70.2,176.9 -94.6,371.7 -70.4,560.4 l -449.6,-26"
         style="fill:#fdaf89;fill-opacity:1;fill-rule:nonzero;stroke:none"
         id="path292" /><path
         d="m 13641.1,2496.2 c -2.8,-75.3 -7.9,-156.8 -57.1,-213.8 -24.9,-29 -58.9,-48.4 -92.5,-66.5 -165.2,-88.8 -340.6,-158.4 -521.7,-207 -98.7,-26.5 -202.7,-48.4 -283.3,-111.3 -80.6,-62.9 -128.3,-182.5 -75.1,-269.8 440.8,-25 878.4,-27.4 1319.1,0.5 94,5.9 189.5,13.4 277.4,47.1 44.3,293.4 -55.9,588 -14.1,881.7 l -552.7,-60.9"
         style="fill:#fdaf89;fill-opacity:1;fill-rule:nonzero;stroke:none"
         id="path294" /><path
         d="m 14202.8,1555.5 c -527,-31.2 -1059.2,-33.1 -1587,-19.6 -41,1 -74.2,33.7 -75.9,74.7 0,0.5 0,1 0,1.5 -1.8,45.7 35.7,83 81.4,81.1 521.7,-21.8 1045,-4.9 1564.3,50.5 42.6,4.5 80.9,-25.8 85.9,-68.4 1.3,-10.9 2.7,-21.9 4,-32.9 5.3,-44.4 -28,-84.2 -72.7,-86.9"
         style="fill:#026864;fill-opacity:1;fill-rule:nonzero;stroke:none"
         id="path296" /><path
         d="m 13011.9,1597.3 c -3,147.8 -37.4,294.9 -100.2,428.8 125.8,40.5 254.9,81.6 380.7,122.1 88.9,-164.9 153.5,-351.4 170.8,-537.9 l -451.3,-13"
         style="fill:#026864;fill-opacity:1;fill-rule:nonzero;stroke:none"
         id="path298" /><path
         d="m 13283.3,12479.7 c -37.3,75.4 -14,165.3 10.4,245.8 67.5,223.6 138.7,449.1 150.8,682.4 15.1,291.2 -62.6,579.1 -78.4,870.3 -5.8,106.5 -2,218.2 48.6,312.1 50.7,93.9 160.6,163.3 263.7,135.9 32.6,12.8 225.8,46.3 250.1,21.1 103.4,-107.2 199,-261.5 220.3,-408.9 53,-367 -141.3,-810.2 -116.8,-1180.2 6.8,-103.8 12.5,-209 -6.6,-311.4 -19.1,-102.3 -65.5,-203 -146.5,-268.4 -65.6,-53 -148.3,-79 -229.1,-103.1 -68.5,-20.5 -139,-40.6 -210.4,-36.2 -71.4,4.4 -124.4,-23.5 -156.1,40.6"
         style="fill:#2b0f0a;fill-opacity:1;fill-rule:nonzero;stroke:none"
         id="path300" /><path
         d="m 13197.9,9752.4 c 76.1,-464.3 19.8,-938.7 19,-1409.2 -0.5,-301.3 21.7,-602.1 45.2,-902.5 129.7,-1657.1 296.6,-3315.1 268.9,-4976.9 222.4,-135.8 507.7,-165.1 746.2,-60.1 13.5,242.3 -3.1,496.1 10.4,738.4 15.8,282.7 31.6,565.7 27.2,848.8 -6.3,411.3 -55.1,820.7 -80.6,1231.3 -91.7,1475.7 117.4,2965.6 -77.2,4431.3 l -959.1,98.9"
         style="fill:#f04a48;fill-opacity:1;fill-rule:nonzero;stroke:none"
         id="path302" /><path
         d="m 13854.3,7863.4 c -24.6,68.2 -47.7,138.7 -92.4,195.9 -42.3,54.2 -101,92.7 -156.9,132.7 -188.5,135.1 -366.1,319.5 -391.2,550 89.7,-89.5 182,-181 297.5,-233.4 97,-44 209.5,-60.2 290,-130 56.1,-48.8 89.5,-118 121.4,-185.2 86.8,-182.7 173.6,-365.4 260.3,-548.1 31.6,-66.5 63.6,-134.3 73.1,-207.2 31.1,-237.8 -103.9,-196.1 -194.4,-33.5 -81.7,146.6 -150.4,301 -207.4,458.8"
         style="fill:#c92d2d;fill-opacity:1;fill-rule:nonzero;stroke:none"
         id="path304" /><path
         d="m 13886.1,8884.1 c 84.5,-791.7 168.9,-1583.3 253.4,-2375 35.4,-332.1 70.8,-664.3 120.4,-994.6 160,-1067 467.7,-2120.9 451.4,-3199.7 240.8,-106.7 486,-104.1 736.7,-23.5 44.1,582.8 60.7,1165.4 17.5,1748.2 -23.3,313.2 -71.6,624.1 -95.1,937.3 -104.3,1389.5 371.8,2777.2 120.3,4147.7 l -1604.6,-240.4"
         style="fill:#f04a48;fill-opacity:1;fill-rule:nonzero;stroke:none"
         id="path306" /><path
         d="m 13536.2,12742.5 c -183.4,-1105.4 -310.2,-2220.2 -379.7,-3338.5 206.5,-171.4 450.4,-264 718.4,-277.5 268,-13.6 536.2,43.8 787.6,137.7 142.5,984.9 182.6,2005.4 120.7,2998.6 -10.2,163 -23.5,328 -78.4,481.7 -56.8,158.9 -157.9,301.8 -289,408.2 l -879.6,-410.2"
         style="fill:#783f4b;fill-opacity:1;fill-rule:nonzero;stroke:none"
         id="path308" /><path
         d="m 13592.2,11043.4 c 52.8,22.6 106.7,47.8 164.2,48.4 37.5,0.3 74.4,-9.9 110.1,-21.6 251.7,-82.3 484.5,-239.3 749,-252.7 -156.8,-96.8 -358.5,-34.3 -534.2,21.1 -145.2,45.7 -295.7,85.2 -447.7,76.7 -53.5,-3 -348.3,-75.5 -346.9,4 1.1,69.1 246.1,98.6 305.5,124.1"
         style="fill:#51242f;fill-opacity:1;fill-rule:nonzero;stroke:none"
         id="path310" /><path
         d="m 11257.1,11787.5 c 29,28.9 57,57.9 84.9,86.9 -142.5,145.7 -282.1,294 -418.9,444.9 -57.7,63.7 -48.8,174.9 -99.8,244.1 -22.3,30.4 -47.9,59.2 -80,79.1 -51.5,31.9 -114.4,37.9 -174.7,43.1 -112.8,9.8 -225.5,19.5 -338.3,29.2 -10.4,0.9 -21.8,1.6 -30.5,-4.2 -6.6,-4.4 -10.4,-11.8 -13.8,-18.9 -22.7,-47.4 -37.2,-98.7 -42.7,-151 -24.6,-19.4 -32,-59.4 -17.8,-87.3 14.2,-28 40.1,-47.8 65.2,-66.6 147.2,-110.7 295.2,-221.8 457.4,-309.1 144,-151.5 273.5,-305.9 395.1,-460.9 82.1,41.2 154.2,101 213.9,170.7"
         style="fill:#fdaf89;fill-opacity:1;fill-rule:nonzero;stroke:none"
         id="path312" /><path
         d="m 10518,12369.9 h -921.95 c -35.24,0 -63.81,28.5 -63.81,63.8 v 563.5 c 0,35.2 28.57,63.8 63.81,63.8 H 10518 c 35.3,0 63.8,-28.6 63.8,-63.8 v -563.5 c 0,-35.3 -28.5,-63.8 -63.8,-63.8"
         style="fill:#4b74db;fill-opacity:1;fill-rule:nonzero;stroke:none"
         id="path314" /><path
         d="M 10581.8,12907.6 H 9532.24 v -91.3 h 1049.56 v 91.3"
         style="fill:#282f39;fill-opacity:1;fill-rule:nonzero;stroke:none"
         id="path316" /><path
         d="M 10581.8,12816.3 H 9532.24 v -55.4 h 1049.56 v 55.4"
         style="fill:#eceaeb;fill-opacity:1;fill-rule:nonzero;stroke:none"
         id="path318" /><path
         d="m 9916.87,12490.4 h -306.4 v 136.8 h 306.4 v -136.8"
         style="fill:#92b1ef;fill-opacity:1;fill-rule:nonzero;stroke:none"
         id="path320" /><path
         d="m 10783.5,12433.1 c 15.3,36.9 28.1,76.5 23.3,116.1 -4.9,39.6 -67.1,118.8 -106.6,124.2 -127.7,17.4 -255.6,33.3 -383.7,47.6 -16,1.8 -37,0.4 -41.4,-15.1 -2,-7.1 0.7,-14.6 3.9,-21.3 22.4,-47.6 69.4,-82.8 121.4,-90.8 49,-7.6 101.1,7.2 147.5,-10.2 82.2,-30.8 105.4,-144.9 184.9,-181.9 16.6,-7.7 43.8,14.6 50.7,31.4"
         style="fill:#fdaf89;fill-opacity:1;fill-rule:nonzero;stroke:none"
         id="path322" /><path
         d="m 12970,8331.2 c 26.8,-93.5 104.9,-165.4 192.5,-207.8 87.6,-42.3 184.9,-59.3 280.8,-75.8 -56.2,499.7 -97.8,988.1 -113.7,1490.6 -15,475.4 33.7,950.2 87.6,1422.7 37.1,325.6 76.9,652.1 161.5,968.7 97.2,363.8 241.1,725.3 395.3,1068.9 -197.8,-60 -402.1,-107.9 -607.1,-134.6 -111.8,-14.6 -230.4,-26.4 -321.3,-93.3 -85.8,-63.2 -132.5,-165.2 -175.6,-262.6 -210.1,-474.7 -420.3,-949.4 -630.4,-1424.1 -367.4,331.6 -722.9,676.5 -1065.4,1033.8 -96.6,-116.1 -223.6,-243.7 -333.8,-347 181,-242.4 898.8,-1166 1121.9,-1334.3 113.8,-85.8 253.1,-157.5 393.4,-132.7 98.8,17.5 183.5,80.8 255.2,151 175.6,171.9 294.9,391.7 411.7,608 23.4,-132.8 41.1,-251.6 56,-385.6 86.9,-783 -326.1,-1588.7 -108.6,-2345.9"
         style="fill:#026864;fill-opacity:1;fill-rule:nonzero;stroke:none"
         id="path324" /><path
         d="m 14418.6,13363.9 c -5.6,-548.1 -11.1,-1096.3 -16.6,-1644.5 -2.8,-275.7 -5.5,-551.6 -25,-826.7 -71.2,-1006.6 -358.6,-1865.9 -245.9,-2868.7 198.7,0 397.6,30.3 592.2,70.9 309.8,64.7 639.2,139.8 859.6,366.9 15.2,496.3 0.9,912.2 -205.8,1442.2 -68.4,175.4 95,407.6 78.7,595.1 -66.7,770.6 -133.5,1541.1 -207.1,2311 -112.4,133.3 -240.7,271.2 -380.7,375.1 -140,103.9 -276.4,156.8 -449.4,178.7"
         style="fill:#026864;fill-opacity:1;fill-rule:nonzero;stroke:none"
         id="path326" /><path
         d="m 15203.3,10770.7 c -1.1,-122.2 -5.7,-259.1 -93.5,-344.1 -35.1,-33.9 -80,-55.5 -124,-76.5 -228.9,-109.3 -457.8,-218.5 -686.7,-327.7 105.4,-108.4 284.1,-73.2 429,-30.1 148.1,44.1 296.2,88.2 444.3,132.2 107.3,31.9 224.5,71.5 280.5,168.3 43.3,74.8 39.3,166.7 34.1,253 -22.6,372.6 -45.2,745.3 -67.7,1118 -9.8,161 -9.8,359.6 -95.3,500 -135.4,-418.4 -116.9,-955.7 -120.7,-1393.1"
         style="fill:#004547;fill-opacity:1;fill-rule:nonzero;stroke:none"
         id="path328" /><path
         d="m 13985.7,13223.2 c 22.7,-147.1 -16.3,-302.8 -105.7,-421.9 -28.5,-38 -63.9,-79 -57.1,-126 6.5,-45.2 50.4,-75.3 93.1,-91.5 158.6,-60 355,6 445.2,149.5 56.3,89.6 71.6,198.6 76.8,304.3 6.3,129.4 -0.8,259.5 -21.2,387.5 -5.3,33.4 -12.2,68.2 -33.7,94.4 -21.4,26.2 -61.9,39.8 -90,20.9 l -307.4,-317.2"
         style="fill:#fdaf89;fill-opacity:1;fill-rule:nonzero;stroke:none"
         id="path330" /><path
         d="m 14428.8,13335.1 c -3.3,30.1 -7.2,60.1 -12,90 -5.3,33.4 -12.2,68.2 -33.7,94.4 -21.4,26.2 -61.9,39.8 -90,20.9 l -307.4,-317.2 c 17.2,-111.4 -1.1,-227.7 -49.7,-329.3 147.7,61 279.2,195.1 391.1,300.1 45.6,43.1 77.7,90.6 101.7,141.1"
         style="fill:#d88666;fill-opacity:1;fill-rule:nonzero;stroke:none"
         id="path332" /><path
         d="m 12977.9,11629.8 c 33.4,187.3 107.7,364.4 181.6,539.6 -171.7,-154.4 -223.3,-396.3 -261,-624.2 -20.7,-125.1 -36.8,-250.9 -48.3,-377.1 -9.6,-105.2 -16.3,-212.1 -50.7,-312 -44.8,-130.3 -133.7,-240.3 -226.1,-342.6 -78.6,-87 -165.3,-173.3 -274.4,-214.7 18.9,0.1 37.8,1.5 56.7,4.9 98.8,17.5 183.5,80.8 255.2,151 175.6,171.9 294.9,391.7 411.7,608 -89,168.1 -78.2,379.9 -44.7,567.1"
         style="fill:#004547;fill-opacity:1;fill-rule:nonzero;stroke:none"
         id="path334" /><path
         d="m 13578.7,11929.6 c 97.2,363.8 241.1,725.3 395.3,1068.9 -42.1,-12.8 -84.5,-24.9 -127.2,-36.5 -112.7,-159.6 -243.1,-306.6 -388.4,-437.3 -46.5,-41.7 -97.9,-88.3 -103.7,-150.4 -8.1,-87 76.6,-157.9 83.2,-245 3.9,-51.1 -19.7,-99.8 -40.2,-146.8 -158.2,-362.2 -159.4,-771.7 -139.6,-1166.4 13.9,-276.4 37,-553 74.5,-827.3 13.3,324.8 47.7,649 84.6,972.1 37.1,325.6 76.9,652.1 161.5,968.7"
         style="fill:#119389;fill-opacity:1;fill-rule:nonzero;stroke:none"
         id="path336" /><path
         d="m 13965.4,9884.9 c -119.3,2.9 -231.3,53.7 -345,89.9 -148.2,47.1 -304,70.1 -459.5,67.8 -6.4,-0.2 -13.3,-0.4 -18.8,-3.7 -10.5,-6.5 -11.9,-22.2 -5.9,-33 6,-10.8 17.1,-17.6 28.1,-23.2 27.6,-14.2 57.3,-24.2 87.8,-29.5 40,-7.1 82.2,-6.5 119.3,-23.1 42.8,-19.3 72.6,-58.8 100.4,-96.6 -234.6,-9.1 -474.7,29.8 -694,113.6 -5.6,2.1 -11.9,4.3 -17.7,2.5 -12.7,-4.1 -12,-22.5 -6.8,-34.8 21.2,-49.8 72,-80.5 122.9,-98.9 50.9,-18.4 105.2,-28.1 153.3,-52.9 -87.5,-7.8 -177,8.1 -256.4,45.6 -17,-30.5 6.5,-67.3 31,-92.1 144.6,-146.5 360.3,-204.9 566.2,-201.3 205.8,3.6 406.3,62.4 603.7,120.7 l -8.6,249"
         style="fill:#fdaf89;fill-opacity:1;fill-rule:nonzero;stroke:none"
         id="path338" /><path
         d="m 14943.5,13100.9 c 120.3,-104.2 259.3,-186.7 408.3,-242.7 67.2,-25.2 137.3,-45.5 197.4,-84.8 123.2,-80.5 184.8,-226.7 227.7,-367.5 101.4,-332.7 136.9,-681.5 164.8,-1028.1 28,-347.9 48.9,-696.3 62.7,-1045.1 9.6,-241.6 -175.1,-485.4 -410.5,-541 -1.5,-0.3 -3.1,-0.7 -4.6,-1 -542.5,-127.6 -1098.3,-198.4 -1655.5,-211.1 -12.7,115.2 -27,248.7 -33.3,364.4 492.7,114.9 983.5,292.5 1453.4,479.8 -18.1,94.8 -11.2,195.1 -17.3,291.4 -25.7,404.5 -28.4,810.8 -75.5,1213.4 -47.1,402.5 -122.2,817.2 -317.6,1172.3"
         style="fill:#026864;fill-opacity:1;fill-rule:nonzero;stroke:none"
         id="path340" /><path
         d="m 14780.5,11654.9 c -27.7,128.4 -107.9,261.2 -55.1,381.5 29.9,68 98,115.2 121.2,185.8 25.3,76.7 -8.7,159.3 -44.2,232 -123,251.2 -272.9,492.4 -385.5,747.1 -4.9,-493.9 -9.9,-987.9 -14.9,-1481.9 -2.8,-275.7 -5.5,-551.6 -25,-826.7 -21.1,-298.6 -61.3,-584.3 -104.4,-864.6 113,353.1 241.7,701.2 386.2,1042.6 78.9,186.3 164.3,386.4 121.7,584.2"
         style="fill:#119389;fill-opacity:1;fill-rule:nonzero;stroke:none"
         id="path342" /><path
         d="m 14739.8,1331 c -26,-13.8 -27.4,-49.8 -25.4,-79.2 2.7,-38 6.1,-78.3 28.6,-109.1 32.8,-44.8 94.4,-55 149.5,-60.9 144.8,-15.5 290,-25.6 435.5,-30.3 49,-1.5 100.5,-1.9 143.9,21 45.3,24 76,73.6 77.2,125 1.2,51.3 -27.1,102.2 -71.3,128.4 l -738,5.1"
         style="fill:#026864;fill-opacity:1;fill-rule:nonzero;stroke:none"
         id="path344" /><path
         d="m 15450.4,1858.4 c 30.9,-96.4 58,-206.7 88.9,-303 -174,100 -384.6,126.4 -582.9,95.9 -77.4,-11.9 -158.2,-34.8 -210.9,-92.8 11.8,90.7 17.7,192.6 44.5,280 197.5,56.6 464.6,81.8 660.4,19.9"
         style="fill:#026864;fill-opacity:1;fill-rule:nonzero;stroke:none"
         id="path346" /><path
         d="m 14382.9,13471.2 c -80.4,-161 -226.6,-287.9 -397.4,-344.9 -64.9,-21.7 -136.4,-33.4 -201.3,-11.7 -112.7,37.7 -170.8,161.9 -197.8,277.6 -19.2,81.9 -29.1,165.6 -38,249.2 -15.7,147.9 -28.2,296.1 -37.3,444.5 -7.3,118.9 -8.4,250.6 68.7,341.3 27.1,31.9 66.4,57.4 108,53.7 36.4,-3.3 68,-28.1 104.4,-32.5 59.6,43.5 126.4,81 199.9,87.7 91.5,8.2 179.7,-47.2 233.4,-121.7 53.7,-74.5 78.4,-165.7 97,-255.6 48.7,-234.7 167.5,-473.1 60.4,-687.6"
         style="fill:#fdaf89;fill-opacity:1;fill-rule:nonzero;stroke:none"
         id="path348" /><path
         d="m 13653.7,13734.7 c 2.8,-49.4 -16.9,-90.6 -43.8,-92.1 -27,-1.6 -51.1,37.2 -53.9,86.6 -2.8,49.4 16.9,90.7 43.8,92.2 27,1.5 51.1,-37.3 53.9,-86.7"
         style="fill:#fc8e8b;fill-opacity:1;fill-rule:nonzero;stroke:none"
         id="path350" /><path
         d="m 13539.6,14181.5 c 24.4,23.5 64.7,31.2 97.5,22.5 6.5,-6.9 8.4,-17.8 4.6,-26.5 -29.8,4.4 -72,5.1 -102.1,4"
         style="fill:#2b0f0a;fill-opacity:1;fill-rule:nonzero;stroke:none"
         id="path352" /><path
         d="m 13852,14212.4 c -8.3,-8.7 -13.9,-26.4 -11.6,-38.2 75.7,12.2 153,23.7 228.4,10.8 -12.4,9.2 -26.2,19.2 -41.4,22.5 -42.2,8.9 -85.2,13.9 -128.4,14.8 -15.4,0.3 -36.4,1.3 -47,-9.9"
         style="fill:#2b0f0a;fill-opacity:1;fill-rule:nonzero;stroke:none"
         id="path354" /><path
         d="m 13558.8,14019.5 c 9,-13.1 19.7,-24 31.4,-31.8 2.8,-1.9 5.8,-3.8 7.9,-7 3.2,-4.7 3.9,-11.5 4.3,-17.9 2.8,-38.2 1.5,-76.8 1.6,-115.2 0.1,-16.9 2.4,-37.7 13.8,-43.2 11.3,-5.3 22.6,9.4 27.3,24.7 8.2,26.4 6.4,56.8 2.1,84.9 -3.8,25.4 -7.6,75.1 -24.5,91 -16,15.2 -50.5,-5 -63.9,14.5"
         style="fill:#2b0f0a;fill-opacity:1;fill-rule:nonzero;stroke:none"
         id="path356" /><path
         d="m 14058.2,13600.4 c 0.7,-21.5 -7.4,-42.5 -17.4,-61.6 -24.5,-47.1 -61.5,-88.1 -107.6,-114.2 -46.2,-26.1 -101.7,-36.6 -153.6,-25.7 -14.7,3.2 -29.6,8.2 -40.7,18.4 -12.5,11.4 -18.8,27.9 -24.2,43.9 -8.7,26.1 -24.8,63.2 -22.2,90.3 60.7,9.6 123.7,9.5 184.8,17.7 15.9,2.1 181.2,23.8 180.9,31.2"
         style="fill:#990a58;fill-opacity:1;fill-rule:nonzero;stroke:none"
         id="path358" /><path
         d="m 14110.8,13770.4 c 5.1,-47.9 -47.6,-92.8 -117.6,-100.2 -70.1,-7.5 -131,25.3 -136.1,73.2 -5.1,47.9 47.5,92.8 117.6,100.3 70.1,7.4 131,-25.4 136.1,-73.3"
         style="fill:#fc8e8b;fill-opacity:1;fill-rule:nonzero;stroke:none"
         id="path360" /><path
         d="m 13862.1,14534.8 c 86,-5.5 165.8,-52 224.7,-114.8 58.9,-62.8 98.9,-141.1 130.6,-221.2 80.5,-203.5 111.3,-422.8 134.2,-640.4 22.1,-211.3 37.4,-423.2 45.7,-635.5 11.9,-302.6 11.4,-614.5 127.6,-894.1 -71.7,310 -73.5,636 -5.5,946.9 -6.5,-288.9 22.8,-575.3 90.7,-856.1 3.7,-15.2 8.4,-31.7 21.3,-40.4 11.1,-7.5 25.4,-7.3 38.8,-6.7 112.8,5 225.1,19.2 335.6,42.3 -31.9,188.8 -59.8,381.4 -34.5,571.2 29.4,-194 68.1,-386.6 116,-577 55.9,1.7 111.8,6.6 167.2,14.8 -191.2,569.3 -184.3,1188.6 -244.2,1786.2 -19.9,198.6 -46.3,399.6 -125,583 -78.8,183.4 -217,349.5 -403.6,420.3 -211.3,80.2 -450.4,28.1 -658.7,-59.6 -105.6,-44.4 -214.8,-105.2 -261.3,-209.9 107.5,-3.1 193.1,-102.1 300.4,-109"
         style="fill:#2b0f0a;fill-opacity:1;fill-rule:nonzero;stroke:none"
         id="path362" /><path
         d="m 13874.4,14063.6 c 10.5,-13.2 23,-24.1 36.5,-31.8 3.3,-1.9 6.8,-3.7 9.3,-7 3.6,-4.7 4.6,-11.6 5.2,-18.1 4,-39 3.3,-78.3 4.1,-117.5 0.4,-17.2 3.5,-38.5 16.7,-43.8 13,-5.2 25.6,10.1 30.7,25.9 8.9,27.1 6.2,58 0.7,86.6 -4.9,25.8 -10.2,76.4 -29.8,92.3 -18.7,15.1 -57.8,-6.3 -73.4,13.4"
         style="fill:#2b0f0a;fill-opacity:1;fill-rule:nonzero;stroke:none"
         id="path364" /><path
         d="m 13794.4,13656.8 c -24.3,0.5 -48.7,1 -73,1.4 -18.7,0.4 -39,1.3 -53.3,13.7 -15,12.9 -19.3,35.4 -15.9,55.3 3.3,19.8 12.9,37.8 21.8,55.7 31.2,63.3 54.3,130.9 68.4,200.4 5.6,-88.2 -40.8,-172.5 -55.5,-259.6 -1.4,-8 -2.4,-16.4 0,-24.1 5.1,-16.1 22.9,-23.4 39,-26.7 21,-4.5 47.1,-18 68.5,-16.1"
         style="fill:#e26a5a;fill-opacity:1;fill-rule:nonzero;stroke:none"
         id="path366" /><path
         d="m 8371.08,4764.7 c 0,96.2 334.84,174.2 747.89,174.2 413.04,0 747.88,-78 747.88,-174.2 0,-96.2 -334.84,-174.2 -747.88,-174.2 -413.05,0 -747.89,78 -747.89,174.2"
         style="fill:#a199b0;fill-opacity:1;fill-rule:nonzero;stroke:none"
         id="path368" /><path
         d="m 9852.39,6900.8 c 0,405.1 -328.36,733.4 -733.42,733.4 -405.06,0 -733.43,-328.3 -733.43,-733.4 0,-1008.4 733.43,-2136.1 733.43,-2136.1 0,0 733.42,1072.7 733.42,2136.1"
         style="fill:#f04a48;fill-opacity:1;fill-rule:nonzero;stroke:none"
         id="path370" /><path
         d="m 8559.73,6900.8 c 0,308.9 250.38,559.3 559.24,559.3 308.86,0 559.23,-250.4 559.23,-559.3 0,-308.8 -250.37,-559.2 -559.23,-559.2 -308.86,0 -559.24,250.4 -559.24,559.2"
         style="fill:#fefefe;fill-opacity:1;fill-rule:nonzero;stroke:none"
         id="path372" /></g></g></svg>
