<?xml version="1.0" encoding="UTF-8" standalone="no"?>
<svg
   xmlns:dc="http://purl.org/dc/elements/1.1/"
   xmlns:cc="http://creativecommons.org/ns#"
   xmlns:rdf="http://www.w3.org/1999/02/22-rdf-syntax-ns#"
   xmlns:svg="http://www.w3.org/2000/svg"
   xmlns="http://www.w3.org/2000/svg"
   xmlns:sodipodi="http://sodipodi.sourceforge.net/DTD/sodipodi-0.dtd"
   xmlns:inkscape="http://www.inkscape.org/namespaces/inkscape"
   version="1.1"
   id="svg2"
   xml:space="preserve"
   width="2666.6667"
   height="2666.6667"
   viewBox="0 0 2666.6667 2666.6667"
   sodipodi:docname="vecteezyonline-delivery-illustrationyd0721.eps"><metadata
     id="metadata8"><rdf:RDF><cc:Work
         rdf:about=""><dc:format>image/svg+xml</dc:format><dc:type
           rdf:resource="http://purl.org/dc/dcmitype/StillImage" /></cc:Work></rdf:RDF></metadata><defs
     id="defs6" /><sodipodi:namedview
     pagecolor="#ffffff"
     bordercolor="#666666"
     borderopacity="1"
     objecttolerance="10"
     gridtolerance="10"
     guidetolerance="10"
     inkscape:pageopacity="0"
     inkscape:pageshadow="2"
     inkscape:window-width="640"
     inkscape:window-height="480"
     id="namedview4" /><g
     id="g10"
     inkscape:groupmode="layer"
     inkscape:label="ink_ext_XXXXXX"
     transform="matrix(1.3333333,0,0,-1.3333333,0,2666.6667)"><g
       id="g12"
       transform="scale(0.1)"><path
         d="M 0,0 H 20000 V 20000 H 0 Z"
         style="fill:#ffffff;fill-opacity:1;fill-rule:nonzero;stroke:none"
         id="path14" /><path
         d="m 14137.5,2524 c 2627.2,1457.2 4405.6,4258.9 4405.6,7476 0,4718.2 -3824.9,8543.1 -8543.1,8543.1 -4718.21,0 -8543.07,-3824.9 -8543.07,-8543.1 0,-3217.1 1778.34,-6018.8 4405.58,-7476 h 8274.99"
         style="fill:#ecf2fb;fill-opacity:1;fill-rule:nonzero;stroke:none"
         id="path16" /><path
         d="M 14300.7,17093.8 V 3117.4 c 0,-526.8 -427,-953.8 -953.9,-953.8 H 6653.22 c -526.79,0 -953.87,427 -953.87,953.8 v 13976.4 c 0,198 60.42,382.1 163.83,534.6 171.47,253 461.41,419.3 790.04,419.3 h 6693.58 c 526.9,0 953.9,-427 953.9,-953.9"
         style="fill:#1e2251;fill-opacity:1;fill-rule:nonzero;stroke:none"
         id="path18" /><path
         d="M 13858.2,17041 V 3170.3 c 0,-278.2 -225.5,-503.9 -503.7,-503.9 H 6645.79 c -278.31,0 -504.01,225.7 -504.01,503.9 V 17041 c 0,120.1 42.13,230.3 112.28,317 92.26,113.9 233.41,186.8 391.73,186.8 h 6708.71 c 224.7,0 415.2,-147.2 480,-350.5 15.4,-48.3 23.7,-99.9 23.7,-153.3"
         style="fill:#c0ebfb;fill-opacity:1;fill-rule:nonzero;stroke:none"
         id="path20" /><path
         d="m 13858.2,17041 v -823.9 l -7716.42,-133.3 v 412.4 l 7692.72,698.1 c 15.4,-48.3 23.7,-99.9 23.7,-153.3"
         style="fill:#ffffff;fill-opacity:1;fill-rule:nonzero;stroke:none"
         id="path22" /><path
         d="m 13858.2,14928.2 v -861.3 L 6141.78,12904.7 v 1950.9 l 7716.42,72.6"
         style="fill:#ffffff;fill-opacity:1;fill-rule:nonzero;stroke:none"
         id="path24" /><path
         d="M 13858.2,10090 V 3170.3 c 0,-278.2 -225.5,-503.9 -503.7,-503.9 H 6645.79 c -278.31,0 -504.01,225.7 -504.01,503.9 v 9105.6 h 484.09 v -776 h 804.62 v 3159.2 h 2278.33 v -2177.5 h 1903.98 v 753.2 h 1747.7 V 10090 h 497.7"
         style="fill:#97d2de;fill-opacity:1;fill-rule:nonzero;stroke:none"
         id="path26" /><path
         d="m 14300.7,11375.8 h -442.5 v 3194.8 h 442.5 v -3194.8"
         style="fill:#1b1f48;fill-opacity:1;fill-rule:nonzero;stroke:none"
         id="path28" /><path
         d="m 13858.2,11375.8 h -497.7 v 1859 h -657.2 v 658.2 l 1154.9,173.9 v -2691.1"
         style="fill:#a9d9e7;fill-opacity:1;fill-rule:nonzero;stroke:none"
         id="path30" /><path
         d="m 12703.3,13893 v 297.8 c 0,209.7 170.1,379.8 379.8,379.8 h 775.1 v -503.7 L 12703.3,13893"
         style="fill:#e7e7e6;fill-opacity:1;fill-rule:nonzero;stroke:none"
         id="path32" /><path
         d="m 13360.5,11375.8 h -277.4 c -209.7,0 -379.8,170.1 -379.8,379.8 v 1479.2 h 657.2 v -1859"
         style="fill:#86bbc6;fill-opacity:1;fill-rule:nonzero;stroke:none"
         id="path34" /><path
         d="m 6094.42,13235.7 h -395.07 v 405.8 h 442.43 v -402.9 c -15.52,-2 -31.32,-2.9 -47.36,-2.9"
         style="fill:#1b1f48;fill-opacity:1;fill-rule:nonzero;stroke:none"
         id="path36" /><path
         d="m 6141.78,13238.6 v 402.9 h 332.55 v -26 c 0,-193.8 -145.12,-353.6 -332.55,-376.9"
         style="fill:#e7e7e6;fill-opacity:1;fill-rule:nonzero;stroke:none"
         id="path38" /><path
         d="m 8660.54,16948.4 h 2679.06 c 257.5,0 491.7,149.4 600.4,383 l 217.2,467 H 7842.91 l 217.22,-467 c 34.35,-73.9 81.27,-139.4 137.52,-194.3 121.59,-118.9 286.77,-188.7 462.89,-188.7"
         style="fill:#1e2251;fill-opacity:1;fill-rule:nonzero;stroke:none"
         id="path40" /><path
         d="M 10703.6,17340.9 H 9046.13 c -25.35,0 -45.9,20.6 -45.9,45.9 0,25.4 20.55,45.9 45.9,45.9 h 1657.47 c 25.4,0 45.9,-20.5 45.9,-45.9 0,-12.6 -5.1,-24.1 -13.4,-32.4 -8.3,-8.3 -19.8,-13.5 -32.5,-13.5"
         style="fill:#ffffff;fill-opacity:1;fill-rule:nonzero;stroke:none"
         id="path42" /><path
         d="m 11164.9,17386.8 c 0,-53.8 -43.6,-97.4 -97.4,-97.4 -53.8,0 -97.4,43.6 -97.4,97.4 0,53.8 43.6,97.4 97.4,97.4 53.8,0 97.4,-43.6 97.4,-97.4"
         style="fill:#ffffff;fill-opacity:1;fill-rule:nonzero;stroke:none"
         id="path44" /><path
         d="m 15315.1,4702.6 c -4.5,-5.3 -9.9,-10.4 -15.9,-15.2 -38.6,-31.7 -102.3,-55.3 -140.3,-52 -2.6,0.2 -5.1,0.6 -7.4,1 -66.7,13.5 -245.2,182.4 -153.4,244.3 8.1,5.5 17.6,7.5 27.5,7.3 9.1,0 18.5,-1.9 27.6,-4.3 3,-0.9 6,-1.7 8.9,-2.6 1,-0.3 2,-0.6 3,-0.9 h 0.1 c 80.1,-24.6 157.9,-57 231.9,-96.6 44.6,-23.8 42,-54 18,-81 m -520.9,415.6 h -0.1 c -5,-6.6 -10.3,-13 -15.8,-19.1 -25.7,-28.4 -56.5,-52.3 -90.4,-69.2 -18,-9 -37.6,-16.6 -57.7,-16 -3.9,0.2 -7.5,0.5 -10.8,1 -2.3,0.5 -4.4,0.9 -6.5,1.5 -6.2,1.9 -11.3,4.6 -15.3,8.1 v 0 c -19.2,16.8 -16,51.1 -4.6,87.8 5.2,17.1 12.4,34.6 19.7,51.1 13.9,30.9 29.1,58.4 36.2,72.1 18.8,36.8 43.2,71.3 74.1,98.4 6.2,5.4 12.6,10.5 19.3,15.2 4,2.9 8.1,5.8 12.4,8.4 20.2,12.5 46.3,21.8 67.2,10.3 18.1,-10 25.5,-32.3 28.5,-52.9 10.3,-69.9 -13,-140.4 -56.2,-196.7 m -172.1,-868.8 c -27.3,-61.7 -80.5,-100.9 -138.6,-53 -118.5,97.5 -51,435.9 99.7,277.6 55.4,-58.3 71.3,-151 38.9,-224.6 m -772.7,491.7 c -67.2,36.1 -80.6,199.3 -74.2,262.7 3.2,30.4 16.1,66.7 46.5,71.2 13.7,2 27.3,-3.4 39.6,-9.7 66.7,-33.7 120.1,-100.1 123.5,-174.8 2.7,-57 -63.4,-187.9 -135.4,-149.4 m -393.3,-233.8 c -121,-161 -150,210.4 -144.1,279.4 2.4,26.8 8.1,56.3 29.7,72.1 22.3,16.3 55.1,11.7 77.3,-4.7 22.2,-16.4 35.8,-42 45.8,-67.7 22.1,-56.3 30.7,-117.8 25.2,-178.1 -3.3,-35.7 -12.1,-72.3 -33.9,-101 m 3192.1,470.7 c -10.5,-6.6 -21.1,-13.2 -31.9,-19.4 -42.6,-24 -88.4,-44 -135.5,-57.9 -80,-23.5 -164.3,-29.9 -244.8,-9.8 -115.8,28.8 -210.8,102.5 -333.1,109.1 -48.8,2.7 -98.3,0.7 -146.3,10.4 -48,9.6 -95.9,33.4 -121.2,75.4 -107.7,178.6 298.5,174 388.6,181.2 124.9,9.9 250.1,25.7 372.5,51.9 74.7,16 148.3,35.8 220.1,60.6 -0.8,4.9 -1.7,9.7 -2.6,14.4 -21.6,119.8 -52.1,238.2 -76.2,357.5 -0.9,4.6 -1.8,9.3 -2.7,13.8 -11.3,57.3 -21,114.8 -27.4,172.8 -8.4,76 -10.5,154.1 -3.1,230.6 10.8,115.5 43.1,227.7 107,323.8 -50.9,-15.2 -102.2,-27 -153.7,-35.5 -8.3,-1.3 -16.5,-2.7 -24.9,-3.9 -88.4,-13.1 -177.7,-17.2 -267.5,-15.1 -5.4,0.1 -10.7,0.2 -16.1,0.4 -91.7,7.8 -178.5,16.4 -270.1,24.3 -43.9,-57.4 -83.7,-117.6 -122.3,-179 -52.7,-83.7 -103,-169.3 -158.1,-251.5 -109.9,-164.3 -246.5,-321.2 -429.3,-396.7 -49.8,-20.8 -110.3,-33.8 -155.2,-3.8 -49.5,33.1 -56.4,107 -31.4,161.1 24.9,54.1 73.4,93 120.2,130 121.7,96.2 244,194 341.8,314.5 48.4,59.7 90.5,125.8 121.4,196.2 11.2,25.3 20.9,51.1 28.8,77.5 -56.4,10.7 -112.8,21.8 -169,32.7 -8.5,1.7 -17.1,3.3 -25.6,4.9 -86.7,16.8 -173.3,32.7 -259.5,45.6 -5.6,0.9 -11.2,1.6 -16.6,2.5 -2.1,0.3 -4.4,0.7 -6.6,0.9 -22.6,3.2 -45.3,6.3 -68,9.1 -7.9,1 -15.8,1.9 -23.7,2.8 -105.4,12.2 -211.4,19.5 -317.4,22.1 -0.3,-30.2 -1.3,-60.4 -3.2,-90.5 -20.3,-324 -137,-642.2 -335.6,-899.1 -24.2,-31.3 -55.7,-63.1 -90.1,-83.1 -7.3,-4.3 -14.9,-8 -22.5,-11.2 -5.4,-2.1 -11.1,-4 -16.7,-5.5 -23,-6 -46.4,-5.2 -69.2,5.7 -51.5,24.5 -69.5,91.9 -57.3,147.6 12.2,55.7 46.8,103.2 76.9,151.5 5.8,9.2 11.4,18.5 16.9,28.1 117.9,202.5 169.1,443.3 143.1,676.2 -2.7,23.6 -6.4,47 -10.7,70.4 -52.1,-4.2 -104.3,-9.5 -156.3,-15.9 -7.2,-0.8 -14.3,-1.7 -21.5,-2.6 l -0.7,-0.1 c -7.1,-1 -14,-1.9 -21.1,-2.9 -147.7,-20 -294.1,-49 -438.3,-86.8 -9.1,-2.3 -18.1,-4.8 -27.1,-7.3 -28.9,-7.7 -57.6,-15.9 -86.3,-24.4 -6.8,-2 -13.5,-4 -20.2,-6.1 -49.6,-15 -98.9,-31 -147.8,-48.2 8.8,-104.1 30,-208.8 56.4,-313.1 30.7,-122.1 68.6,-243.7 101.9,-363.3 26.2,-94.1 49.6,-193.3 27.5,-288.4 -14.5,-62.4 -54.9,-121.8 -108.5,-154.2 -3.9,-2.3 -7.8,-4.4 -11.8,-6.5 -1.2,-0.6 -2.5,-1.2 -3.7,-1.8 -3.7,-1.8 -7.6,-3.6 -11.5,-5.2 -20.8,-8.3 -43.1,-12.6 -66.3,-11.5 -76.9,3.1 -142.6,62.4 -175.7,131.9 -32.9,69.4 -39.5,148.2 -44.5,225 -4.5,68.4 -8.2,136.9 -11.1,205.4 -6.8,160.4 -9.4,321.1 -7.8,481.7 -25.5,-11.3 -50.9,-22.7 -76.1,-34.5 -10.8,-4.9 -21.6,-9.9 -32.2,-15.1 -203.6,-97 -398,-213.3 -579.3,-347.7 -36.2,-26.8 -71.8,-54.6 -106.9,-83.3 31.3,-58.5 74.9,-112.1 122.4,-159.2 6.1,-6 12.3,-12 18.5,-17.9 100.6,-94.5 217.6,-172.4 304.5,-279.6 60,-74 105,-175.5 67.5,-263.1 -45.8,-107 -197.1,-132.9 -300.7,-79.8 -103.6,53.2 -167.8,159.6 -218.8,264.1 -9.8,20.3 -19.4,40.5 -28.6,61 -48.5,107.1 -89.2,217.5 -123,330.2 -53.3,-54.8 -102.6,-113.2 -145.4,-175.6 -9.1,-13 -17.7,-26.3 -26.1,-39.8 -4.2,-6.7 -8.4,-13.5 -12.3,-20.2 -4.8,-8 -9.5,-16 -14,-24.2 -20.3,-36.4 -38.4,-74 -53.9,-113 -8,-20.1 -15.1,-40.6 -21.4,-61.5 -134.8,-447.6 -366.5,-922 -214.1,-1398.5 80.4,-251.3 260.6,-461.1 470,-621.4 157.9,-120.8 333,-216.3 510.3,-305 157.6,-78.9 245,-213.5 401,-296.5 103.6,-55.1 216.6,-89.2 332.2,-111.5 14.1,-2.8 28.4,-5.5 42.7,-7.8 26,-4.4 52.1,-8.3 78.3,-11.7 10,-1.4 20.1,-2.7 30.1,-3.8 6.7,-0.9 13.2,-1.6 19.9,-2.4 150.4,-17 302.3,-22.1 453.7,-15.6 13.5,0.5 27.1,1.1 40.8,2 30.6,1.7 61.3,3.8 91.9,6.5 -8.9,43.1 -22.1,85.7 -38.5,127.7 -41.9,107.2 -105.1,209.7 -173,301.6 -147.2,199 -324.8,388 -386.2,627.8 -18.2,70.9 -21.2,157.1 33.2,206.3 14.4,13 31.3,21.6 49.5,26.8 9,2.5 18.3,4.1 27.8,4.9 31.2,2.6 64,-3.8 92.3,-17.5 54.4,-26.1 95.2,-73.4 131.2,-121.6 204.5,-274.4 305.7,-622.6 500.8,-897.7 47.7,-67.2 101,-130.2 162.7,-186.5 2.8,-2.6 5.8,-5.1 8.5,-7.6 31.7,7.3 63.1,15 94.5,23.4 10.8,2.7 21.6,5.7 32.3,8.6 66.4,18.5 132.1,39.1 196.9,62.1 8.2,3 16.4,5.8 24.6,8.9 51.7,18.8 102.7,39.1 153.3,61 11.5,4.9 22.9,10 34.3,15.1 77.2,34.6 152.6,72.7 226.1,114.1 -133.8,4.4 -266.3,22.8 -394,62.2 -4.2,1.2 -8.4,2.6 -12.5,3.9 -273.8,87.5 -523.9,286.3 -614.1,559.2 -16.5,50.2 -27.6,104.2 -16.2,155.7 11.4,51.6 49.8,99.9 101.8,109.4 63.2,11.6 121.4,-34.2 168.4,-78.2 191.2,-178.1 368.4,-376.6 589.7,-514.1 11.5,-7.2 23.2,-14.3 35.1,-21.1 68.9,-39.9 141.6,-72.7 216.8,-98.2 26.3,-9 53,-17 79.9,-24.2 21.6,-5.8 43.4,-11 65.3,-15.6 88.2,61.8 172.9,129.1 252.9,202.1 21.6,19.6 42.9,39.7 63.8,60.2 5.5,5.5 11.1,11 16.5,16.6 12.2,12.1 24.2,24.4 36,36.8 5.4,5.4 10.5,11 15.8,16.5 67.6,72 130.8,148.2 189.5,227.8 -96.9,-20.9 -197.4,-25.6 -296,-14.4 -160.5,18.1 -316.1,78.1 -442.8,178.5 -44.2,35 -86,75.9 -108.1,127.6 -22.2,51.8 -20.9,116.7 15.5,159.7 2.1,2.5 4.3,4.9 6.5,7.2 5.2,5.4 11,10 17,14.2 34.4,24.2 80.6,31.7 123.2,26.6 53.1,-6.5 102.7,-29.6 151.9,-51 22.1,-9.7 44.6,-19 67.1,-28 210.1,-83.6 437,-136.6 658.6,-115 27,50.5 52.3,101.8 75.8,154 3.1,6.6 6.1,13.3 8.9,20 39.5,89.4 73.8,181 102.5,274.2 2.1,6.9 4.2,13.8 6.3,20.6 12.1,40.5 23.1,81.2 33,122.3 1.7,7 3.4,13.9 5,20.9 21.3,91.3 37.4,183.8 47.8,277 0.8,7.1 1.6,14.1 2.3,21.2 6.9,67.7 10.9,135.6 11.7,203.6"
         style="fill:#60c792;fill-opacity:1;fill-rule:nonzero;stroke:none"
         id="path46" /><path
         d="m 14502.9,5823.3 c 1.9,0.1 3.7,0.5 5.5,1.3 7.9,3.3 11.6,12.3 8.3,20.2 -243.5,579.7 -3.3,1216.5 161.6,1544.4 131.8,262.2 297.9,510.8 458.6,751.3 133.8,200.3 272.2,407.4 390.5,621.9 220.2,399.1 448.1,993.7 283.6,1560.5 -2.4,8.2 -11,12.9 -19.2,10.5 -8.2,-2.4 -12.9,-11 -10.5,-19.2 161.6,-556.5 -63.6,-1142.9 -280.9,-1536.8 -117.8,-213.4 -255.8,-419.9 -389.3,-619.7 -161.1,-241.2 -327.8,-490.7 -460.5,-754.6 -167.2,-332.7 -410.8,-979.1 -162.4,-1570.3 2.5,-6.1 8.5,-9.7 14.7,-9.5"
         style="fill:#4cb57f;fill-opacity:1;fill-rule:nonzero;stroke:none"
         id="path48" /><path
         d="m 16065.8,10362.9 c -1.2,-241.9 -107.5,-491.6 -230.8,-703 -14.6,241.8 -126.4,428.7 -200.6,651.4 -43.6,131 -56.7,272.4 -36.9,409.1 9.4,64.2 27.5,124.3 49.9,184.9 25.4,68.5 51.7,133.3 72.5,204.6 7.8,-117.2 110.3,-201.1 185.5,-291.4 116.2,-139.6 161.2,-295.9 160.4,-455.6"
         style="fill:#4cb57f;fill-opacity:1;fill-rule:nonzero;stroke:none"
         id="path50" /><path
         d="m 15434,9776.8 c -157.9,109.6 -343.1,171.6 -525.5,232.2 -44.1,-302.6 136.7,-623.9 418.2,-743.1 107.1,-45.3 306.9,-74.2 318.4,-219.1 52,102.1 69.5,221.4 49.1,334.2 -27.7,153.1 -133.7,308 -260.2,395.8"
         style="fill:#4cb57f;fill-opacity:1;fill-rule:nonzero;stroke:none"
         id="path52" /><path
         d="m 16189.5,9123.3 c 189.1,-33.9 364.1,-120.8 536,-206.6 -182.2,-245.6 -536.8,-345.5 -820.3,-231.1 -107.9,43.5 -269.8,164.1 -380.1,69.6 35.2,109 106.9,205.9 200.9,271.4 127.5,88.9 312,123.8 463.5,96.7"
         style="fill:#4cb57f;fill-opacity:1;fill-rule:nonzero;stroke:none"
         id="path54" /><path
         d="m 15755.3,8355.5 c 186.3,-47.2 354.6,-146.3 520,-244.2 -199.2,-232 -560.1,-306.4 -834.7,-172.1 -104.5,51 -257.4,182.9 -374.2,96.5 42.8,106.2 121.3,197.8 219.7,256.4 133.5,79.6 320,101.2 469.2,63.4"
         style="fill:#4cb57f;fill-opacity:1;fill-rule:nonzero;stroke:none"
         id="path56" /><path
         d="m 15380.4,7763.3 c 186.3,-47.2 354.6,-146.3 520,-244.2 -199.2,-232 -560.1,-306.4 -834.7,-172.1 -104.5,51 -257.4,182.9 -374.2,96.5 42.8,106.3 121.3,197.8 219.7,256.4 133.6,79.6 320,101.3 469.2,63.4"
         style="fill:#4cb57f;fill-opacity:1;fill-rule:nonzero;stroke:none"
         id="path58" /><path
         d="m 15070.8,7256.3 c 191.5,-15 374.2,-84.1 553.8,-152.6 -157.1,-262.3 -500.1,-396.8 -793.5,-311 -111.6,32.6 -284.7,136.6 -385.1,31.7 24.2,112 86,215.5 173.1,289.9 118.1,101.1 298.2,154 451.7,142"
         style="fill:#4cb57f;fill-opacity:1;fill-rule:nonzero;stroke:none"
         id="path60" /><path
         d="m 16474.9,9857.7 c 189.2,-33.9 364.1,-120.7 536.1,-206.6 -182.2,-245.5 -536.9,-345.5 -820.4,-231.1 -107.8,43.5 -269.7,164.1 -380.1,69.6 35.2,109.1 106.9,206 200.9,271.5 127.6,88.8 312,123.7 463.5,96.6"
         style="fill:#4cb57f;fill-opacity:1;fill-rule:nonzero;stroke:none"
         id="path62" /><path
         d="m 15090,9122.8 c -157.9,109.6 -343.1,171.6 -525.4,232.2 -44.1,-302.7 136.7,-623.9 418.1,-743.1 107.1,-45.3 306.9,-74.2 318.4,-219.1 52,102.1 69.6,221.4 49.2,334.2 -27.8,153 -133.8,308 -260.3,395.8"
         style="fill:#4cb57f;fill-opacity:1;fill-rule:nonzero;stroke:none"
         id="path64" /><path
         d="m 14724.3,8558.2 c -157.9,109.6 -343.1,171.6 -525.5,232.2 -44.1,-302.6 136.7,-623.9 418.2,-743.1 107.1,-45.3 306.9,-74.2 318.4,-219.1 52,102.1 69.6,221.4 49.1,334.2 -27.7,153.1 -133.7,308 -260.2,395.8"
         style="fill:#4cb57f;fill-opacity:1;fill-rule:nonzero;stroke:none"
         id="path66" /><path
         d="m 14368.2,7983.2 c -157.9,109.6 -343.1,171.6 -525.5,232.2 -44.1,-302.6 136.7,-623.9 418.2,-743.1 107.1,-45.3 306.9,-74.2 318.4,-219.1 52,102.1 69.5,221.4 49.1,334.2 -27.7,153.1 -133.8,308 -260.2,395.8"
         style="fill:#4cb57f;fill-opacity:1;fill-rule:nonzero;stroke:none"
         id="path68" /><path
         d="m 18105.4,7782.7 c 4,-2.4 7.9,-5 11.9,-7.5 -104.2,-95.6 -220.5,-174.4 -344.8,-239.6 -246.7,-129.6 -524.8,-206.1 -800.7,-255.7 -415.2,-74.8 -839.4,-97 -1249.6,-195.7 -410,-98.7 -790.3,-308.5 -1074.1,-620.7 -129.5,-142.5 -241.1,-300.6 -342.7,-463.9 -77.2,-124 -139.8,-310.7 -254.4,-405.5 -248,-205.1 -399.6,601.7 -430.2,741.3 -39.1,179.4 -55.4,343.6 -48.7,511.3 0.8,22.9 2.1,45.9 3.9,69 6.9,90.3 20.3,182.3 40.1,278.8 41.2,199.8 115.6,396.8 257.9,547.1 126.1,133.2 293.4,218.2 463.8,287.8 -31,-65.7 -56.5,-133.8 -75.8,-204 -17.8,-64.6 -30.2,-134.5 -8.3,-198 21.8,-63.3 88.9,-115.5 153.9,-98.8 51.2,12.8 85.3,63 98.5,114 13.6,51 11.4,104.5 16.7,157.1 9.1,88.4 41.1,174 88.8,249.2 24.7,39 53.6,74.6 84.6,108.6 151,47.4 304.4,87.4 459.3,119.2 4.9,1 9.9,2 14.7,3 127.3,25.7 255.6,46 384.5,60.6 -87.4,-88.4 -158,-192.7 -205.6,-307.5 -25.4,-61.4 -44.7,-130.9 -22.7,-193.8 21.7,-62.9 100.6,-108.7 157.8,-74.4 63,37.7 53.6,129.9 76.6,199.6 39.3,120.4 176.9,173.3 298.5,208.2 121,34.2 258.2,78.9 309,193.3 40.3,-1.3 80.5,-3.1 120.5,-5.5 204.2,-12.4 407.5,-40.6 607.5,-84.2 -94.6,-48.8 -180.6,-113.9 -251.7,-193 -16.6,-18 -32.9,-39.7 -30.4,-64.1 2.2,-24.1 24,-43 47.6,-49.5 23.3,-6.4 48.5,-3.2 72.3,1 186.1,31.3 364.8,103.8 521.3,209.2 298.8,-96 585.5,-228.3 850,-396.9"
         style="fill:#60c792;fill-opacity:1;fill-rule:nonzero;stroke:none"
         id="path70" /><path
         d="m 17461,7403 c -313.5,-149.3 -679.9,-213.9 -1010.1,-310.7 -363.7,-106.6 -724.4,-219.4 -1052.8,-422.1 -336.3,-207.6 -632.7,-487 -840.5,-824.6 -50.8,-82.5 -97.6,-168.6 -135.7,-257.7 -26.9,-62.1 -35.4,-133 -76.4,-187 -87.8,-115.5 -277.2,-212.1 -420.8,-213.6 -163.1,-1.6 -307.5,101.1 -430.9,207.8 -137.1,118.8 -268.6,255 -326.3,426.9 -12,35.7 -19.5,72.1 -23.1,108.8 -4.4,45.1 -2.9,90.9 3.3,136.4 68.2,-13.6 134.5,-36.4 196.3,-68.6 100.6,-52.3 191,-127.5 299.8,-160.5 162.7,-49.2 353,13 455.3,148.9 34.8,46 60.5,105.8 43.6,161.3 -15,49.7 -60.2,83.7 -105.3,109.5 -116.5,66.8 -250.5,103.1 -384.7,104 -32.8,0.2 -66.4,-1.5 -100,-3.2 -100.7,-5.2 -202.2,-10.3 -287.7,35.8 31.8,56.1 67.6,108.6 104,155.6 205.2,264.9 449.7,509.6 750.4,664 39.3,20.2 79.3,38.8 120,55.5 68,-27.3 130.8,-67.6 182.6,-119.2 66.7,-66.3 117,-150.1 194.5,-203.7 77.4,-53.2 199.6,-62.4 253.7,14.7 55.2,78.6 4.3,189.1 -64.2,256.6 -68.7,67.3 -152.4,115.5 -241.2,154 405.1,90.4 841.9,66.9 1261.6,40.5 264.3,-16.9 531.2,-53.5 795.5,-61.6 264.7,-8.2 577.8,12.7 839.1,52.2"
         style="fill:#76ce9c;fill-opacity:1;fill-rule:nonzero;stroke:none"
         id="path72" /><path
         d="m 4702.94,4783.6 c 73.95,39.6 151.74,72 231.9,96.6 h 0.09 c 1,0.3 2,0.6 2.99,0.9 2.92,0.9 5.92,1.7 8.92,2.6 9.03,2.4 18.43,4.3 27.57,4.3 9.88,0.2 19.36,-1.8 27.52,-7.3 91.74,-61.9 -86.72,-230.8 -153.38,-244.3 -2.36,-0.4 -4.81,-0.8 -7.43,-1 -37.99,-3.3 -101.73,20.3 -140.36,52 -5.97,4.8 -11.35,9.9 -15.89,15.2 -23.98,27 -26.54,57.2 18.07,81 m 446.63,531.3 c 3.05,20.6 10.38,42.9 28.57,52.9 20.82,11.5 46.96,2.2 67.15,-10.3 4.32,-2.6 8.41,-5.5 12.41,-8.4 6.72,-4.7 13.12,-9.8 19.31,-15.2 30.89,-27.1 55.26,-61.6 74.08,-98.4 7.14,-13.7 22.27,-41.2 36.17,-72.1 7.37,-16.5 14.49,-34 19.77,-51.1 11.39,-36.7 14.55,-71 -4.61,-87.8 h 0.01 c -4.07,-3.5 -9.14,-6.2 -15.3,-8.1 -2.08,-0.6 -4.26,-1 -6.53,-1.5 -3.29,-0.5 -6.93,-0.8 -10.76,-1 -20.11,-0.6 -39.71,7 -57.72,16 -33.97,16.9 -64.77,40.8 -90.4,69.2 -5.56,6.1 -10.79,12.5 -15.79,19.1 h -0.08 c -43.2,56.3 -66.59,126.8 -56.28,196.7 M 5416.8,4474 c 150.67,158.3 218.16,-180.1 99.67,-277.6 -58.12,-47.9 -111.31,-8.7 -138.57,53 -32.36,73.6 -16.54,166.3 38.9,224.6 m 598.37,416.5 c 3.4,74.7 56.8,141.1 123.55,174.8 12.29,6.3 25.92,11.7 39.58,9.7 30.36,-4.5 43.33,-40.8 46.5,-71.2 6.39,-63.4 -6.96,-226.6 -74.19,-262.7 -71.98,-38.5 -138.06,92.4 -135.44,149.4 m 494.86,-282.2 c -5.53,60.3 3.1,121.8 25.16,178.1 10.03,25.7 23.59,51.3 45.86,67.7 22.18,16.4 54.92,21 77.23,4.7 21.66,-15.8 27.32,-45.3 29.67,-72.1 5.92,-69 -23.04,-440.4 -144.1,-279.4 -21.72,28.7 -30.54,65.3 -33.82,101 m -3146.52,166.1 c 0.69,-7.1 1.45,-14.1 2.31,-21.2 10.36,-93.2 26.47,-185.7 47.78,-277 1.61,-7 3.31,-13.9 5.01,-20.9 9.88,-41.1 20.92,-81.8 32.98,-122.3 2.11,-6.8 4.24,-13.7 6.26,-20.6 28.73,-93.2 63.05,-184.8 102.55,-274.2 2.78,-6.7 5.83,-13.4 8.86,-20 23.55,-52.2 48.81,-103.5 75.88,-154 221.58,-21.6 448.45,31.4 658.55,115 22.55,9 44.99,18.3 67.15,28 49.17,21.4 98.72,44.5 151.88,51 42.61,5.1 88.77,-2.4 123.18,-26.6 5.99,-4.2 11.77,-8.8 17,-14.2 2.24,-2.3 4.42,-4.7 6.5,-7.2 36.35,-43 37.66,-107.9 15.48,-159.7 -22.1,-51.7 -63.9,-92.6 -108.08,-127.6 -126.7,-100.4 -282.27,-160.4 -442.82,-178.5 -98.56,-11.2 -199.12,-6.5 -295.95,14.4 58.66,-79.6 121.9,-155.8 189.48,-227.8 5.25,-5.5 10.42,-11.1 15.83,-16.5 11.73,-12.4 23.79,-24.7 35.91,-36.8 5.43,-5.6 11.02,-11.1 16.61,-16.6 20.86,-20.5 42.11,-40.6 63.76,-60.2 79.96,-73 164.65,-140.3 252.9,-202.1 21.89,4.6 43.66,9.8 65.29,15.6 26.89,7.2 53.54,15.2 79.85,24.2 75.21,25.5 147.94,58.3 216.81,98.2 11.9,6.8 23.6,13.9 35.11,21.1 221.35,137.5 398.49,336 589.67,514.1 47.02,44 105.23,89.8 168.47,78.2 51.95,-9.5 90.37,-57.8 101.82,-109.4 11.37,-51.5 0.31,-105.5 -16.28,-155.7 -90.16,-272.9 -340.3,-471.7 -614.04,-559.2 -4.17,-1.3 -8.32,-2.7 -12.49,-3.9 -127.75,-39.4 -260.28,-57.8 -394.07,-62.2 73.53,-41.4 148.92,-79.5 226.14,-114.1 11.37,-5.1 22.82,-10.2 34.34,-15.1 50.52,-21.9 101.52,-42.2 153.24,-61 8.21,-3.1 16.39,-5.9 24.59,-8.9 64.88,-23 130.51,-43.6 196.89,-62.1 10.75,-2.9 21.5,-5.9 32.33,-8.6 31.37,-8.4 62.77,-16.1 94.46,-23.4 2.79,2.5 5.73,5 8.59,7.6 61.68,56.3 114.93,119.3 162.62,186.5 195.1,275.1 296.3,623.3 500.86,897.7 35.97,48.2 76.81,95.5 131.14,121.6 28.3,13.7 61.15,20.1 92.37,17.5 9.46,-0.8 18.74,-2.4 27.74,-4.9 18.21,-5.2 35.16,-13.8 49.5,-26.8 54.46,-49.2 51.42,-135.4 33.25,-206.3 -61.44,-239.8 -239.05,-428.8 -386.19,-627.8 -67.98,-91.9 -131.12,-194.4 -173.04,-301.6 -16.43,-42 -29.57,-84.6 -38.47,-127.7 30.62,-2.7 61.29,-4.8 91.93,-6.5 13.65,-0.9 27.19,-1.5 40.74,-2 151.45,-6.5 303.29,-1.4 453.69,15.6 6.69,0.8 13.2,1.5 19.96,2.4 9.98,1.1 20.04,2.4 30.07,3.8 26.2,3.4 52.25,7.3 78.27,11.7 14.32,2.3 28.62,5 42.72,7.8 115.63,22.3 228.55,56.4 332.18,111.5 223.66,119 356.63,359.2 512.76,550.5 179.04,219.4 360.79,438.2 506.08,682.1 297.26,499 361.04,1048 73.03,1563.3 -4.45,8.2 -9.14,16.2 -13.91,24.2 -3.99,6.7 -8.15,13.5 -12.3,20.2 -8.41,13.5 -17.04,26.8 -26.09,39.8 -42.86,62.4 -92.12,120.8 -145.43,175.6 -33.77,-112.7 -74.48,-223.1 -123.06,-330.2 -9.2,-20.5 -18.76,-40.7 -28.58,-61 -51.01,-104.5 -115.2,-210.9 -218.74,-264.1 -103.63,-53.1 -254.93,-27.2 -300.79,79.8 -37.47,87.6 7.58,189.1 67.58,263.1 86.84,107.2 203.91,185.1 304.46,279.6 6.25,5.9 12.41,11.9 18.55,17.9 47.43,47.1 91.07,100.7 122.33,159.2 -35.05,28.7 -70.71,56.5 -106.89,83.3 -181.31,134.4 -375.71,250.7 -579.23,347.7 -10.69,5.2 -21.45,10.2 -32.2,15.1 -25.25,11.8 -50.64,23.2 -76.19,34.5 1.63,-160.6 -1,-321.3 -7.75,-481.7 -2.92,-68.5 -6.61,-137 -11.06,-205.4 -5.04,-76.8 -11.61,-155.6 -44.59,-225 -33.07,-69.5 -98.76,-128.8 -175.62,-131.9 -23.22,-1.1 -45.53,3.2 -66.39,11.5 -3.89,1.6 -7.72,3.4 -11.46,5.2 -1.24,0.6 -2.49,1.2 -3.74,1.8 -3.93,2.1 -7.87,4.2 -11.73,6.5 -53.64,32.4 -94.03,91.8 -108.53,154.2 -22.13,95.1 1.32,194.3 27.53,288.4 33.26,119.6 71.14,241.2 101.89,363.3 26.36,104.3 47.56,209 56.43,313.1 -48.93,17.2 -98.21,33.2 -147.81,48.2 -6.76,2.1 -13.42,4.1 -20.24,6.1 -28.65,8.5 -57.35,16.7 -86.27,24.4 -9.01,2.5 -18.01,5 -27.1,7.3 -144.19,37.8 -290.64,66.8 -438.28,86.8 -7.09,1 -14.08,1.9 -21.17,2.9 l -0.69,0.1 c -7.16,0.9 -14.33,1.8 -21.48,2.6 -52.04,6.4 -104.16,11.7 -156.35,15.9 -4.26,-23.4 -7.91,-46.8 -10.62,-70.4 -26.06,-232.9 25.14,-473.7 143.05,-676.2 5.5,-9.6 11.07,-18.9 16.89,-28.1 30.13,-48.3 64.73,-95.8 76.96,-151.5 12.14,-55.7 -5.82,-123.1 -57.29,-147.6 -22.82,-10.9 -46.24,-11.7 -69.2,-5.7 -5.68,1.5 -11.3,3.4 -16.79,5.5 -7.6,3.2 -15.18,6.9 -22.46,11.2 -34.4,20 -65.88,51.8 -90.12,83.1 -198.61,256.9 -315.29,575.1 -335.53,899.1 -1.95,30.1 -2.96,60.3 -3.21,90.5 -106.03,-2.6 -211.99,-9.9 -317.45,-22.1 -7.87,-0.9 -15.74,-1.8 -23.68,-2.8 -22.74,-2.8 -45.36,-5.9 -67.98,-9.1 -2.2,-0.2 -4.47,-0.6 -6.58,-0.9 -5.48,-0.9 -11.06,-1.6 -16.62,-2.5 -86.19,-12.9 -172.81,-28.8 -259.52,-45.6 -8.49,-1.6 -17.07,-3.2 -25.55,-4.9 -56.3,-10.9 -112.66,-22 -169.06,-32.7 7.95,-26.4 17.65,-52.2 28.85,-77.5 30.89,-70.4 72.95,-136.5 121.38,-196.2 97.74,-120.5 220.11,-218.3 341.83,-314.5 46.77,-37 95.24,-75.9 120.14,-130 25,-54.1 18.09,-128 -31.37,-161.1 -44.94,-30 -105.41,-17 -155.24,3.8 -182.75,75.5 -319.34,232.4 -429.32,396.7 -55.04,82.2 -105.32,167.8 -158.09,251.5 -38.59,61.4 -78.36,121.6 -122.24,179 -91.66,-7.9 -178.46,-16.5 -270.12,-24.3 -5.36,-0.2 -10.73,-0.3 -16.11,-0.4 -89.75,-2.1 -179.09,2 -267.47,15.1 -8.39,1.2 -16.62,2.6 -24.93,3.9 -51.54,8.5 -102.83,20.3 -153.74,35.5 63.9,-96.1 96.19,-208.3 107.08,-323.8 7.33,-76.5 5.22,-154.6 -3.12,-230.6 -6.45,-58 -16.11,-115.5 -27.41,-172.8 -0.89,-4.5 -1.77,-9.2 -2.75,-13.8 -24.07,-119.3 -54.53,-237.7 -76.17,-357.5 -0.88,-4.7 -1.75,-9.5 -2.63,-14.4 71.88,-24.8 145.47,-44.6 220.09,-60.6 122.47,-26.2 247.63,-42 372.57,-51.9 90.1,-7.2 496.32,-2.6 388.53,-181.2 -25.23,-42 -73.17,-65.8 -121.12,-75.4 -48.03,-9.7 -97.48,-7.7 -146.36,-10.4 -122.25,-6.6 -217.3,-80.3 -333.05,-109.1 -80.55,-20.1 -164.79,-13.7 -244.84,9.8 -47.12,13.9 -92.87,33.9 -135.48,57.9 -10.85,6.2 -21.4,12.8 -31.95,19.4 0.8,-68 4.84,-135.9 11.76,-203.6"
         style="fill:#60c792;fill-opacity:1;fill-rule:nonzero;stroke:none"
         id="path74" /><path
         d="m 5497.06,5823.4 c -1.84,0 -3.68,0.4 -5.47,1.2 -7.89,3.3 -11.59,12.3 -8.27,20.2 243.51,579.7 3.26,1216.5 -161.61,1544.4 -131.78,262.2 -297.91,510.8 -458.58,751.3 -133.83,200.3 -272.21,407.4 -390.56,621.9 -220.18,399.1 -448.11,993.7 -283.58,1560.5 2.36,8.2 10.96,12.9 19.17,10.5 8.21,-2.4 12.93,-11 10.54,-19.2 -161.55,-556.5 63.61,-1142.9 280.95,-1536.8 117.74,-213.4 255.74,-419.9 389.22,-619.7 161.18,-241.2 327.86,-490.7 460.5,-754.6 167.26,-332.7 410.8,-979.1 162.47,-1570.3 -2.56,-6.1 -8.56,-9.7 -14.78,-9.4"
         style="fill:#4cb57f;fill-opacity:1;fill-rule:nonzero;stroke:none"
         id="path76" /><path
         d="m 3934.17,10362.9 c 1.19,-241.9 107.52,-491.6 230.78,-703 14.7,241.8 126.47,428.7 200.67,651.4 43.62,131 56.71,272.4 36.85,409.1 -9.33,64.2 -27.48,124.3 -49.9,184.9 -25.35,68.5 -51.67,133.3 -72.47,204.6 -7.79,-117.2 -110.33,-201.1 -185.47,-291.4 -116.22,-139.6 -161.25,-295.9 -160.46,-455.6"
         style="fill:#4cb57f;fill-opacity:1;fill-rule:nonzero;stroke:none"
         id="path78" /><path
         d="m 4566,9776.8 c 157.91,109.6 343.11,171.6 525.5,232.2 44.09,-302.6 -136.71,-623.9 -418.2,-743.1 -107.07,-45.3 -306.88,-74.2 -318.39,-219.1 -51.99,102.1 -69.53,221.4 -49.12,334.2 27.71,153.1 133.75,308 260.21,395.8"
         style="fill:#4cb57f;fill-opacity:1;fill-rule:nonzero;stroke:none"
         id="path80" /><path
         d="m 3810.54,9123.3 c -189.18,-33.9 -364.11,-120.8 -536.07,-206.6 182.2,-245.6 536.87,-345.5 820.35,-231.1 107.83,43.5 269.78,164.1 380.1,69.6 -35.17,109 -106.89,205.9 -200.88,271.4 -127.58,88.9 -312,123.8 -463.5,96.7"
         style="fill:#4cb57f;fill-opacity:1;fill-rule:nonzero;stroke:none"
         id="path82" /><path
         d="m 4244.73,8355.5 c -186.29,-47.2 -354.6,-146.3 -520.02,-244.2 199.21,-232 560.08,-306.4 834.71,-172.1 104.47,51 257.43,182.9 374.19,96.5 -42.84,106.2 -121.27,197.8 -219.68,256.4 -133.58,79.6 -320.01,101.2 -469.2,63.4"
         style="fill:#4cb57f;fill-opacity:1;fill-rule:nonzero;stroke:none"
         id="path84" /><path
         d="m 4619.63,7763.3 c -186.3,-47.2 -354.6,-146.3 -520.02,-244.2 199.21,-232 560.08,-306.4 834.71,-172.1 104.46,51 257.42,182.9 374.19,96.5 -42.84,106.3 -121.27,197.8 -219.69,256.4 -133.57,79.6 -320,101.3 -469.19,63.4"
         style="fill:#4cb57f;fill-opacity:1;fill-rule:nonzero;stroke:none"
         id="path86" /><path
         d="m 4929.25,7256.3 c -191.6,-15 -374.25,-84.1 -553.84,-152.6 157.07,-262.3 500.14,-396.8 793.52,-311 111.6,32.6 284.66,136.6 385.12,31.7 -24.24,112 -86.04,215.5 -173.11,289.9 -118.19,101.1 -298.26,154 -451.69,142"
         style="fill:#4cb57f;fill-opacity:1;fill-rule:nonzero;stroke:none"
         id="path88" /><path
         d="m 3525.08,9857.7 c -189.18,-33.9 -364.11,-120.7 -536.07,-206.6 182.21,-245.5 536.87,-345.5 820.35,-231.1 107.83,43.5 269.78,164.1 380.11,69.6 -35.18,109.1 -106.9,206 -200.9,271.5 -127.57,88.8 -311.99,123.7 -463.49,96.6"
         style="fill:#4cb57f;fill-opacity:1;fill-rule:nonzero;stroke:none"
         id="path90" /><path
         d="m 4909.95,9122.8 c 157.91,109.6 343.1,171.6 525.49,232.2 44.1,-302.7 -136.7,-623.9 -418.19,-743.1 -107.07,-45.3 -306.88,-74.2 -318.39,-219.1 -51.99,102.1 -69.53,221.4 -49.11,334.2 27.7,153 133.74,308 260.2,395.8"
         style="fill:#4cb57f;fill-opacity:1;fill-rule:nonzero;stroke:none"
         id="path92" /><path
         d="m 5275.67,8558.2 c 157.9,109.6 343.11,171.6 525.49,232.2 44.09,-302.6 -136.71,-623.9 -418.19,-743.1 -107.07,-45.3 -306.88,-74.2 -318.39,-219.1 -52,102.1 -69.53,221.4 -49.12,334.2 27.71,153.1 133.75,308 260.21,395.8"
         style="fill:#4cb57f;fill-opacity:1;fill-rule:nonzero;stroke:none"
         id="path94" /><path
         d="m 5631.82,7983.2 c 157.9,109.6 343.1,171.6 525.49,232.2 44.09,-302.6 -136.71,-623.9 -418.2,-743.1 -107.07,-45.3 -306.87,-74.2 -318.38,-219.1 -52,102.1 -69.53,221.4 -49.12,334.2 27.71,153.1 133.75,308 260.21,395.8"
         style="fill:#4cb57f;fill-opacity:1;fill-rule:nonzero;stroke:none"
         id="path96" /><path
         d="m 1894.58,7782.7 c -4,-2.4 -7.91,-5 -11.88,-7.5 104.15,-95.6 220.53,-174.4 344.8,-239.6 246.74,-129.6 524.8,-206.1 800.73,-255.7 415.17,-74.8 839.4,-97 1249.55,-195.7 409.98,-98.7 790.31,-308.5 1074.14,-620.7 129.44,-142.5 241.09,-300.6 342.71,-463.9 77.2,-124 139.78,-310.7 254.32,-405.5 248.04,-205.1 399.68,601.7 430.21,741.3 39.17,179.4 55.43,343.6 48.78,511.3 -0.86,22.9 -2.16,45.9 -3.99,69 -6.83,90.3 -20.2,182.3 -40.08,278.8 -41.19,199.8 -115.62,396.8 -257.86,547.1 -126.06,133.2 -293.38,218.2 -463.82,287.8 31.04,-65.7 56.5,-133.8 75.77,-204 17.85,-64.6 30.22,-134.5 8.39,-198 -21.84,-63.3 -88.98,-115.5 -153.97,-98.8 -51.21,12.8 -85.31,63 -98.5,114 -13.55,51 -11.34,104.5 -16.72,157.1 -9.08,88.4 -41.06,174 -88.76,249.2 -24.74,39 -53.58,74.6 -84.61,108.6 -151.01,47.4 -304.35,87.4 -459.32,119.2 -4.91,1 -9.86,2 -14.7,3 -127.29,25.7 -255.53,46 -384.47,60.6 87.35,-88.4 158.01,-192.7 205.57,-307.5 25.4,-61.4 44.78,-130.9 22.69,-193.8 -21.66,-62.9 -100.53,-108.7 -157.76,-74.4 -63,37.7 -53.65,129.9 -76.57,199.6 -39.34,120.4 -176.92,173.3 -298.58,208.2 -120.96,34.2 -258.15,78.9 -308.99,193.3 -40.27,-1.3 -80.42,-3.1 -120.51,-5.5 -204.2,-12.4 -407.42,-40.6 -607.45,-84.2 94.63,-48.8 180.55,-113.9 251.69,-193 16.59,-18 32.9,-39.7 30.45,-64.1 -2.23,-24.1 -23.99,-43 -47.68,-49.5 -23.27,-6.4 -48.45,-3.2 -72.29,1 -186.03,31.3 -364.8,103.8 -521.28,209.2 -298.79,-96 -585.46,-228.3 -850.01,-396.9"
         style="fill:#60c792;fill-opacity:1;fill-rule:nonzero;stroke:none"
         id="path98" /><path
         d="m 2539.03,7403 c 313.47,-149.3 679.82,-213.9 1010.08,-310.7 363.72,-106.6 724.34,-219.4 1052.75,-422.1 336.38,-207.6 632.75,-487 840.51,-824.6 50.87,-82.5 97.63,-168.6 135.77,-257.7 26.81,-62.1 35.37,-133 76.39,-187 87.79,-115.5 277.22,-212.1 420.74,-213.6 163.15,-1.6 307.51,101.1 430.95,207.8 137.05,118.8 268.58,255 326.31,426.9 11.95,35.7 19.42,72.1 23.05,108.8 4.46,45.1 2.97,90.9 -3.26,136.4 -68.17,-13.6 -134.57,-36.4 -196.33,-68.6 -100.64,-52.3 -191,-127.5 -299.8,-160.5 -162.74,-49.2 -352.97,13 -455.29,148.9 -34.8,46 -60.55,105.8 -43.65,161.3 15.07,49.7 60.28,83.7 105.32,109.5 116.56,66.8 250.51,103.1 384.73,104 32.82,0.2 66.35,-1.5 99.96,-3.2 100.78,-5.2 202.27,-10.3 287.71,35.8 -31.81,56.1 -67.53,108.6 -103.97,155.6 -205.22,264.9 -449.75,509.6 -750.45,664 -39.27,20.2 -79.29,38.8 -119.97,55.5 -68.01,-27.3 -130.74,-67.6 -182.59,-119.2 -66.73,-66.3 -117.02,-150.1 -194.47,-203.7 -77.45,-53.2 -199.62,-62.4 -253.73,14.7 -55.23,78.6 -4.25,189.1 64.21,256.6 68.74,67.3 152.39,115.5 241.23,154 -405.15,90.4 -841.98,66.9 -1261.67,40.5 -264.23,-16.9 -531.17,-53.5 -795.45,-61.6 -264.74,-8.2 -577.85,12.7 -839.08,52.2"
         style="fill:#76ce9c;fill-opacity:1;fill-rule:nonzero;stroke:none"
         id="path100" /><path
         d="m 14129,7909.6 c 0,0 527.5,-1552.5 437.8,-2704.7 -89.8,-1152.1 -1619.3,-598.7 -1997.4,-175.7 -378.1,422.9 156.1,2336.3 156.1,2336.3 0,0 1131.7,544.1 1403.5,544.1"
         style="fill:#ee8763;fill-opacity:1;fill-rule:nonzero;stroke:none"
         id="path102" /><path
         d="m 12725.5,7365.4 v -0.7 c 0.6,-17.3 11.5,-370 29.6,-826.2 9.7,-243.2 21.3,-515.7 34.4,-782.5 23.8,-478.6 52.3,-938.9 82.8,-1178 19.5,-152.8 48.5,-449.8 85.1,-812.1 33.4,-332 73.4,-718.9 118.3,-1099.5 H 6922.15 c 80.44,840.2 143.35,1721.9 181.57,2022 22.02,172.3 26.97,368.6 22.49,563 -4.96,218 -21.73,433.4 -39.36,609.4 -0.48,4.7 -0.95,9.3 -1.43,13.9 -0.1,0.7 -0.19,1.7 -0.29,3.1 l -0.28,2.3 c -0.19,2 -0.39,4 -0.58,5.9 -0.09,1.1 -0.19,2.3 -0.38,3.6 -23.25,224.5 -47.08,378.2 -47.08,378.2 -246.95,-8 -487.81,10.9 -703.59,41.3 -55.09,7.6 -108.56,16.1 -160.12,25 -177.95,30.9 -332.74,67.5 -451.4,99.2 -157.17,42.1 -250.86,75.5 -250.86,75.5 0,0 98.74,429.6 250.86,997.7 123.43,460.8 282.03,1012.9 451.4,1500.4 194.43,559.5 403.07,1034.1 589.41,1188.7 548.89,455 3285.99,984.6 3285.99,984.6 0,0 391.4,-75.7 908,-194.5 192.3,-44.3 402,-94.4 615.2,-149 728.5,-186.1 1498.7,-422.3 1762.7,-641.1 210.9,-174.8 400.9,-597.4 555.1,-1051.7 247.2,-728.2 402,-1537.6 402,-1537.6 0,0 -155.5,-55.5 -402,-113.4 -294.7,-69.4 -719.4,-142.1 -1164,-127.5"
         style="fill:#ef2e31;fill-opacity:1;fill-rule:nonzero;stroke:none"
         id="path104" /><path
         d="m 10700.2,8906 c -113.6,0 -270.5,117.6 -416.6,292.8 -7.7,49.2 -16.3,102.1 -25.2,156.6 18.8,-27.7 39.7,-55.9 62.9,-84.2 158.1,-193.3 341.2,-200.6 367.8,-200.6 2.2,0 3.4,0 3.4,0 0,0 963,1340.8 970,1480.8 3.4,67.6 -43.8,182.5 -103.8,288.7 4.3,-1.1 8.7,-2.2 13,-3.4 56.6,-57.1 188.3,-204 188.3,-332.8 0,-164 -851.5,-1564.2 -1034.4,-1595.8 -8.2,-1.4 -16.7,-2.1 -25.4,-2.1"
         style="fill:#d02524;fill-opacity:1;fill-rule:nonzero;stroke:none"
         id="path106" /><path
         d="m 12894.7,9985.3 c -162.7,0 -325.6,35.5 -472.8,105.1 -196,92.9 -362.4,245.6 -474.1,431.2 -20.2,33.7 -66.2,90.5 -34.4,129.2 11.3,13.6 27.1,18.6 44.8,18.6 38.9,0 87,-24 116.1,-32.4 279.3,-80.5 585.2,-136.6 858.2,-257.2 82.1,-36.3 161.2,-78.4 235.7,-128.8 59.5,-40.2 135.4,-107.8 80.7,-183.4 -46.8,-64.7 -171.8,-69.6 -242.8,-76.7 -37,-3.7 -74.2,-5.6 -111.4,-5.6"
         style="fill:#f03a41;fill-opacity:1;fill-rule:nonzero;stroke:none"
         id="path108" /><path
         d="m 12729,7255.5 c -100.2,53.7 -200.5,107.5 -300.1,162.5 -11.8,55.9 -22.1,112.1 -30.8,168.5 -78.5,507.5 -32.3,1033.9 133.6,1519.9 7.3,21.2 17.1,44.8 38,52.8 4.5,1.7 9.1,2.4 13.7,2.4 18.5,0 36.9,-12.4 46.8,-28.7 12.4,-20.5 14.5,-45.3 16.1,-69.1 14.9,-227.6 5.9,-456.7 -26.8,-682.3 55.3,128.1 110.6,256.3 165.8,384.4 17.5,40.5 45.7,87.8 88.6,87.8 1.7,0 3.4,0 5.1,-0.2 34.5,-3.1 58.7,-39 60.7,-73.7 2.1,-34.6 -12.3,-67.8 -26.8,-99.5 -84.3,-184.3 -179.4,-366.3 -224.3,-563.9 -56,-247.3 -29.9,-505.9 36.9,-751.7 0.2,-5.4 1.4,-44.3 3.5,-109.2"
         style="fill:#d02524;fill-opacity:1;fill-rule:nonzero;stroke:none"
         id="path110" /><path
         d="m 7666.82,2666.4 h -744.67 c 80.44,840.2 143.35,1721.9 181.57,2022 8.78,68.7 14.84,141.2 18.68,215.9 65.53,111.1 122.6,211.9 158.16,275.5 h 955.27 v 1462 l 1306.36,395.8 h -275.71 l 155.88,47.3 22.42,1488 c 103.94,-41.4 175.08,-57.5 176.57,-57.9 0,0 0,0 0.01,0 0,0 0,0 0.01,0 v 0 0 0 0 c 382.73,-488.1 758.93,-981.6 1128.73,-1479.8 1.6,-2.2 3.2,-4.3 4.8,-6.5 0.2,-0.2 0.2,-0.3 0.4,-0.5 0.7,-1 1.4,-1.9 2.1,-2.8 0.1,-0.2 0.2,-0.3 0.3,-0.4 0.7,-1 1.4,-1.9 2.1,-2.8 0.1,-0.2 0.3,-0.5 0.4,-0.6 0.7,-1 1.4,-1.9 2.1,-2.9 0.1,-0.1 0.2,-0.2 0.2,-0.3 56.8,-76.6 113.4,-153.9 170,-231.5 0.3,-0.4 0.6,-0.8 0.9,-1.2 0.3,-0.4 0.5,-0.7 0.9,-1.2 0.5,-0.7 0.9,-1.3 1.5,-2.1 0,-0.1 0.1,-0.1 0.2,-0.2 556.6,-762.7 1120.6,-1555.8 1919.3,-2047.8 5.6,-59 11.2,-111.6 17,-156.4 19.5,-152.8 48.5,-449.8 85.1,-812.1 -398.6,208.2 -785.7,440 -1143.7,712.7 -752,572.7 -1382.8,1356.1 -1588.4,2278.7 44.6,-462.4 89.1,-924.9 133.7,-1387.3 3,-31.9 -387.55,-203.6 -431.58,-226 -157.93,-80.4 -316.82,-158.6 -476.75,-234.8 -313.19,-149.1 -630.2,-290.3 -950.54,-423.5 -156.79,-65.1 -314.34,-128.2 -472.75,-189.4 -146.97,-56.8 -321.67,-61.7 -324.53,-240.7 -4.1,-261.1 151.54,-522.9 390.11,-633.2 55.19,-25.5 120.76,-50.4 140.11,-108.1 20.2,-60.7 -26.5,-127.2 -85.21,-152.7 -39.26,-17.2 -82.16,-21 -125.45,-21 -21.34,0 -42.78,0.9 -63.94,1.6 -11.42,0.4 -22.97,0.7 -34.54,0.7 -53.25,0 -107.07,-5.8 -151.69,-33.7 -93.98,-58.6 -109.61,-187.3 -109.33,-298.1 0.1,-48.2 1.43,-96.5 3.91,-144.7"
         style="fill:#d02524;fill-opacity:1;fill-rule:nonzero;stroke:none"
         id="path112" /><path
         d="m 12725.5,7349.7 c -7.2,0 -13.7,5 -15.4,12.3 -2,9.3 -204.5,937.7 -134.9,1612.6 0.9,8.7 8.7,15 17.3,14.1 8.7,-0.9 15,-8.6 14.1,-17.3 -69.1,-670 132.3,-1593.3 134.3,-1602.6 1.9,-8.5 -3.5,-16.9 -12,-18.8 -1.1,-0.2 -2.3,-0.3 -3.4,-0.3"
         style="fill:#a81c22;fill-opacity:1;fill-rule:nonzero;stroke:none"
         id="path114" /><path
         d="m 12592.4,8204.3 c -3.4,0 -6.9,1.1 -9.8,3.4 -6.8,5.4 -7.9,15.4 -2.5,22.2 110.1,138 195.8,292.3 254.8,458.6 3,8.2 11.9,12.5 20.2,9.6 8.2,-2.9 12.5,-11.9 9.5,-20.1 -60.2,-169.7 -147.6,-327 -259.9,-467.8 -3.1,-3.9 -7.7,-5.9 -12.3,-5.9"
         style="fill:#a81c22;fill-opacity:1;fill-rule:nonzero;stroke:none"
         id="path116" /><path
         d="m 7036.81,6252.1 c -7.56,0 -14.23,5.5 -15.52,13.2 -0.55,3.3 -54.53,334 -28.88,802.6 23.68,432.6 121.94,1075.1 455.64,1679 4.21,7.6 13.78,10.4 21.41,6.2 7.62,-4.2 10.38,-13.8 6.17,-21.4 C 7145,8133.3 7047.5,7496.2 7023.93,7067.1 c -25.56,-465.4 27.91,-793.4 28.46,-796.6 1.42,-8.6 -4.38,-16.7 -12.96,-18.2 l -2.62,-0.2"
         style="fill:#a81c22;fill-opacity:1;fill-rule:nonzero;stroke:none"
         id="path118" /><path
         d="m 7056.72,7528.3 c -6.88,0 -13.2,4.5 -15.16,11.4 -94.19,334.1 -137.4,679.9 -128.43,1027.9 0.22,8.7 7.82,15.7 16.16,15.4 8.7,-0.2 15.57,-7.5 15.35,-16.2 -8.89,-344.8 33.93,-687.5 127.26,-1018.5 2.36,-8.4 -2.52,-17.1 -10.89,-19.4 -1.43,-0.5 -2.88,-0.6 -4.29,-0.6"
         style="fill:#a81c22;fill-opacity:1;fill-rule:nonzero;stroke:none"
         id="path120" /><path
         d="m 10995,11233.9 c 0,0 282.4,-103.7 373.4,-151.5 91,-47.9 301.1,-391 294.1,-531 -7,-140 -970,-1480.8 -970,-1480.8 0,0 -200.2,-8.5 -371.2,200.6 -171,209.1 -220.1,415.3 -220.1,415.3 l 893.8,1547.4"
         style="fill:#ef2e31;fill-opacity:1;fill-rule:nonzero;stroke:none"
         id="path122" /><path
         d="m 9207.47,11233.9 c 0,0 -282.46,-103.7 -373.47,-151.5 -91.01,-47.9 -301.04,-391 -294.04,-531 7,-140 970.02,-1480.8 970.02,-1480.8 0,0 200.17,-8.5 371.18,200.6 171.04,209.1 220.04,415.3 220.04,415.3 l -893.73,1547.4"
         style="fill:#f03d4c;fill-opacity:1;fill-rule:nonzero;stroke:none"
         id="path124" /><path
         d="m 11187.6,10555.5 c -71.2,-223.7 -553.1,-547.9 -850.6,-730.5 -137.7,-84.4 -235.8,-138.6 -235.8,-138.6 0,0 -982.21,541.9 -1086.48,869.1 -5.24,16.6 -9.63,32.6 -13.15,48.1 -66.34,291.1 159.83,407.1 216.64,671.9 59.76,278.8 47.65,1449.1 47.65,1449.1 h 1670.64 c 0,0 -12.1,-1170.3 47.7,-1449.1 40.7,-189.9 168.6,-303.2 213.1,-459.4 21,-73.3 23.6,-156.2 -9.7,-260.6"
         style="fill:#f9ab78;fill-opacity:1;fill-rule:nonzero;stroke:none"
         id="path126" /><path
         d="m 11197.3,10816.1 c -696.5,-260.5 -1462.22,-336 -2195.73,-212.5 -66.34,291.1 159.83,407.1 216.64,671.9 59.76,278.8 47.65,1449.1 47.65,1449.1 h 1670.64 c 0,0 -12.1,-1170.3 47.7,-1449.1 40.7,-189.9 168.6,-303.2 213.1,-459.4"
         style="fill:#ee8763;fill-opacity:1;fill-rule:nonzero;stroke:none"
         id="path128" /><path
         d="m 10190.9,9737.6 c -13.8,71.3 -27.3,135.5 -39.7,186.4 0,0 -14.2,85.7 -99,308.4 -32.5,85.3 -75.35,190.6 -131.69,319 51.41,2.7 102.79,6.3 154.09,10.8 43.9,-113.5 87.8,-227 131.7,-340.5 50.2,-129.8 100.8,-261.2 130.7,-396.7 -56.8,-34.8 -106.9,-64.5 -146.1,-87.4"
         style="fill:#c9895e;fill-opacity:1;fill-rule:nonzero;stroke:none"
         id="path130" /><path
         d="m 9920.51,10551.4 c -2.09,4.8 -4.2,9.6 -6.33,14.5 -59.84,135.6 -118.31,302.5 -172.97,474 55.97,-18.5 111.85,-31.8 164.65,-41.3 56.26,-145.5 112.54,-290.9 168.74,-436.4 -51.3,-4.5 -102.68,-8.1 -154.09,-10.8"
         style="fill:#bd6b4f;fill-opacity:1;fill-rule:nonzero;stroke:none"
         id="path132" /><path
         d="m 8995.77,12070.4 c -35.43,288.9 -70.98,578.4 -137.22,861.8 -17.3,74 -37.62,149.6 -82.69,210.9 -45.06,61.2 -120.58,105.7 -195.58,93.2 -60.83,-10.1 -111.13,-55.9 -141.29,-109.7 -113.88,-203.1 30.18,-404.2 147.29,-573.5 60,-86.8 126.47,-168.9 195.55,-248.5 41.32,-47.7 206.81,-176.1 213.94,-234.2"
         style="fill:#361a1e;fill-opacity:1;fill-rule:nonzero;stroke:none"
         id="path134" /><path
         d="m 11410.1,12070.4 c 6.9,56 13.7,112 20.8,168 14.9,116.8 32.6,232.9 49.4,349.4 12,83.5 -7.7,162.3 -4.6,246.9 7.9,214.5 31.9,428.4 71.5,639.4 39.6,211 94.8,419 165.1,621.9 35.1,101.4 74,201.5 116.5,300 16.2,37.5 146.3,251.7 132.7,279.1 161.9,-327 236,-697.1 212.5,-1061.3 -31.1,-480.7 -236.6,-948 -550,-1309.2 -41.3,-47.7 -206.8,-176.1 -213.9,-234.2"
         style="fill:#361a1e;fill-opacity:1;fill-rule:nonzero;stroke:none"
         id="path136" /><path
         d="m 8790.43,13752.4 c -57.5,88 -144.16,161.9 -252.06,170.1 -392.35,29.9 -321.63,-684.5 -268.25,-906.4 57.69,-239.9 261.93,-495.6 508.2,-267.1 91.12,84.5 134.74,209.5 151.26,332.7 27.93,208.3 -17.45,454.7 -119.84,638.7 -6.01,10.8 -12.45,21.5 -19.31,32"
         style="fill:#f9ab78;fill-opacity:1;fill-rule:nonzero;stroke:none"
         id="path138" /><path
         d="m 8596.46,12882.6 c -11.82,-30.2 -31.17,-63 -63.26,-67.8 -21.27,-3.2 -42.76,7.6 -57.44,23.3 -14.68,15.8 -23.66,35.8 -31.71,55.8 -88.89,220.4 -96.13,488.2 -0.84,708.1 7.77,17.9 17.01,36.3 33.17,47.3 26.89,18.2 52.46,1.8 68.47,-21.2 55.29,-79.3 71.36,-194.4 86.27,-287.7 17.48,-109.4 21.58,-221.4 1.2,-330.8 -8.07,-43.3 -19.81,-85.9 -35.86,-127"
         style="fill:#ee8763;fill-opacity:1;fill-rule:nonzero;stroke:none"
         id="path140" /><path
         d="m 8533.9,12795.4 c -4.25,0 -8.34,2.3 -10.4,6.4 -2.91,5.7 -0.62,12.7 5.11,15.7 106.35,54 100.78,246.7 97.45,361.9 -0.24,8.5 -0.48,16.6 -0.65,24.1 -2.63,113.8 -18.26,227.3 -46.46,337.3 l -3.54,13.9 c -21.91,86.5 -49.17,194.2 -142.28,220.6 -10.32,3 -21.2,4.3 -32.28,4.2 -6.61,-0.4 -11.73,5 -11.82,11.5 -0.1,6.4 5.04,11.7 11.47,11.8 13.46,0.2 26.5,-1.5 39.01,-5.1 106.02,-30.1 135.11,-145 158.49,-237.2 l 3.53,-13.9 c 28.64,-111.8 44.51,-227 47.18,-342.5 0.17,-7.5 0.4,-15.6 0.65,-24.1 3.48,-120.6 9.32,-322.6 -110.19,-383.3 -1.69,-0.9 -3.49,-1.3 -5.27,-1.3"
         style="fill:#c96d57;fill-opacity:1;fill-rule:nonzero;stroke:none"
         id="path142" /><path
         d="m 11647.4,13752.4 c 57.4,88 144.1,161.9 252,170.1 392.4,29.9 321.6,-684.5 268.3,-906.4 -57.7,-239.9 -262,-495.6 -508.2,-267.1 -91.2,84.5 -134.8,209.5 -151.3,332.7 -27.9,208.3 17.4,454.7 119.8,638.7 6.1,10.8 12.5,21.5 19.4,32"
         style="fill:#f9ab78;fill-opacity:1;fill-rule:nonzero;stroke:none"
         id="path144" /><path
         d="m 11841.3,12882.6 c 11.8,-30.2 31.2,-63 63.3,-67.8 21.2,-3.2 42.7,7.6 57.4,23.3 14.7,15.8 23.7,35.8 31.7,55.8 88.9,220.4 96.2,488.2 0.9,708.1 -7.8,17.9 -17,36.3 -33.2,47.3 -26.9,18.2 -52.5,1.8 -68.5,-21.2 -55.3,-79.3 -71.3,-194.4 -86.2,-287.7 -17.5,-109.4 -21.6,-221.4 -1.2,-330.8 8,-43.3 19.8,-85.9 35.8,-127"
         style="fill:#ee8763;fill-opacity:1;fill-rule:nonzero;stroke:none"
         id="path146" /><path
         d="m 11903.9,12795.4 c -1.8,0 -3.6,0.4 -5.3,1.3 -119.5,60.7 -113.7,262.7 -110.2,383.3 0.3,8.5 0.5,16.6 0.7,24.1 2.6,115.5 18.5,230.7 47.2,342.5 l 3.5,13.9 c 22.8,90.2 51.3,202.5 152.4,235.4 6.1,1.9 12.7,-1.4 14.6,-7.5 2,-6.1 -1.3,-12.7 -7.4,-14.7 -88.9,-28.9 -115.6,-134.3 -137,-218.9 l -3.6,-14 c -28.2,-110 -43.8,-223.5 -46.4,-337.3 -0.2,-7.5 -0.4,-15.6 -0.7,-24.1 -3.3,-115.2 -8.9,-307.9 97.5,-361.9 5.7,-3 8,-10 5.1,-15.7 -2.1,-4.1 -6.2,-6.4 -10.4,-6.4"
         style="fill:#c96d57;fill-opacity:1;fill-rule:nonzero;stroke:none"
         id="path148" /><path
         d="m 8644.71,14145.1 c 0,0 8.63,-1488.9 164.43,-1921.7 155.81,-432.8 667.52,-1090.6 913.76,-1177.2 168.75,-59.3 339.7,-69.8 430.5,-70.5 13.3,-0.3 24.8,-0.1 34.4,0.1 2.5,0 4.9,0.1 7.2,0.1 16,0.4 24.7,1 24.7,1 0,0 6.5,-0.4 18.5,-0.8 5.3,-0.2 11.7,-0.3 19,-0.4 8.3,-0.1 18,-0.3 28.8,0 90.8,0.7 261.9,11.2 430.7,70.5 246.3,86.6 758,744.4 913.8,1177.2 155.8,432.8 164.4,1921.7 164.4,1921.7 0,0 18.2,944.3 -946.4,1255.4 -190.3,61.4 -418.8,98.2 -693.2,98.2 -641.35,0 -1011.81,-210.4 -1225.19,-465.1 -328.16,-391.6 -285.4,-888.5 -285.4,-888.5"
         style="fill:#f9ab78;fill-opacity:1;fill-rule:nonzero;stroke:none"
         id="path150" /><path
         d="m 10286,10975.7 c 83.6,1.1 234.6,12.6 384,70.5 223,86.6 686.7,744.4 828,1177.2 41.8,128.4 72,349.5 93.6,597.1 36.3,-106.8 77.4,-211.3 104.7,-307.3 v 0 0 c -3,10.5 1.2,29.6 7.5,50.1 -19.9,-139.4 -44,-258.4 -73.3,-339.9 -155.8,-432.8 -667.5,-1090.6 -913.8,-1177.2 -168.8,-59.3 -339.9,-69.8 -430.7,-70.5 m 1478.1,2243.6 c 2.3,96.6 6.4,193.2 14.5,289.5 -3.9,-92.8 -8.6,-190.6 -14.5,-289.5"
         style="fill:#fbc5a2;fill-opacity:1;fill-rule:nonzero;stroke:none"
         id="path152" /><path
         d="m 10153.4,10975.7 c -57.4,0.4 -146.9,4.8 -247.54,22.9 -52.8,9.5 -108.68,22.8 -164.65,41.3 -2.51,7.9 -5.03,15.9 -7.53,23.8 12.48,-7.3 24.41,-13.1 35.72,-17.5 149.4,-57.9 300.4,-69.4 384,-70.5 m -1114.45,802.8 c -98.55,154.1 -181.37,310.4 -229.81,444.9 -36.65,101.8 -65.15,262 -87.31,447.6 12.41,31 27.52,62.7 33.9,87.3 14.03,54.1 24.66,109 33.83,164.1 14.28,41.1 27.67,82.4 41.03,123.5 22,-333.8 56.57,-656.1 110.83,-822.5 41.36,-126.7 110.38,-272.8 192.91,-418.1 -4.05,0.2 -8.13,0.3 -12.23,0.3 -29.95,0 -60.72,-6.5 -83.15,-27.1"
         style="fill:#fbc5a2;fill-opacity:1;fill-rule:nonzero;stroke:none"
         id="path154" /><path
         d="m 8686.4,13052.3 c -3.04,42.2 -5.87,84.6 -8.49,126.8 3.11,-42.2 5.94,-84.5 8.49,-126.8"
         style="fill:#fbc5a2;fill-opacity:1;fill-rule:nonzero;stroke:none"
         id="path156" /><path
         d="m 11393.7,13686.3 c -202.7,375.6 -757.6,327.8 -1113.3,264.8 -185.1,-32.7 -365.81,-89 -552.26,-112.9 -186.44,-24 -385.09,-12.8 -547.88,81.2 30.95,-151.1 -61.09,-297.3 -150.21,-423.1 -174.17,-246 -198.47,-545.3 -341.19,-810.9 70.03,368 58.78,751.2 -32.72,1114.4 -39.42,156.5 0.99,327.6 32.52,485 35.5,177.1 94.46,349.6 176.52,510.6 126.75,248.5 312.08,475.6 559.67,604.3 237.26,123.4 512.58,148.1 779.95,154.2 326.6,7.5 671.1,-14.8 946,-191.3 125.9,-80.9 230.2,-191.7 310.8,-317.2 201.3,-313.5 274.1,-686.2 261.6,-1053.5 -7.1,-208.8 -32.1,-416.5 -47.4,-624.7 -7.6,-104 -13,-208.1 -12.5,-312.4 0.2,-49.7 -18,-265.5 20.3,-297.5 -127.6,106.6 -186.4,274.8 -215.2,438.6 -16.1,91.5 -30.6,186.4 -37.6,279.1 -5,66.4 5.1,119.6 -23,182.6 -4.4,9.7 -9.1,19.3 -14.1,28.7"
         style="fill:#ee8763;fill-opacity:1;fill-rule:nonzero;stroke:none"
         id="path158" /><path
         d="m 9386.8,11999.5 c 6.45,-95.1 34.11,-182.1 77.34,-258.9 13.42,-23.9 28.46,-46.7 44.57,-68.5 122.99,-163.8 323.06,-268.2 535.49,-287.3 304.2,-27.7 596.4,35.7 779,261.8 15,18.5 29,37.9 42.4,58.6 17.7,27.1 34.1,56.1 48.9,87.2 40.3,84.9 49.7,202.2 21.7,298.9 -33.5,115.2 -120.3,200.9 -270.9,165.7 -233.1,-54.3 -474.8,-73.1 -712.97,-45.4 -101.77,11.8 -200.86,33 -298.87,61 -19.88,5.6 -39.48,11.5 -59.08,17.4 -132.12,41.1 -187.71,-68.5 -203.82,-180.4 -5.37,-38.4 -6.18,-77.1 -3.76,-110.1"
         style="fill:#a11c21;fill-opacity:1;fill-rule:nonzero;stroke:none"
         id="path160" /><path
         d="m 9508.71,11672.1 c 122.99,-163.8 323.06,-268.2 535.49,-287.3 304.2,-27.7 596.4,35.7 779,261.8 -243.8,118.2 -541.9,172.7 -830.05,147.4 -170.52,-14.5 -335.93,-56.9 -484.44,-121.9"
         style="fill:#f35f73;fill-opacity:1;fill-rule:nonzero;stroke:none"
         id="path162" /><path
         d="m 9390.56,12109.6 c 32.22,-39 78.69,-62.3 124.86,-82.7 257.27,-113.4 541.68,-164.1 822.28,-147.2 154.7,9.4 310.1,40 448.2,110.4 53.7,27.4 104.7,61.5 150.3,101.2 -33.5,115.2 -120.3,200.9 -270.9,165.7 -233.1,-54.3 -474.8,-73.1 -712.97,-45.4 -101.77,11.8 -200.86,33 -298.87,61 -19.88,5.6 -39.48,11.5 -59.08,17.4 -132.12,41.1 -187.71,-68.5 -203.82,-180.4"
         style="fill:#ffffff;fill-opacity:1;fill-rule:nonzero;stroke:none"
         id="path164" /><path
         d="m 10715.9,12776.5 c 0,-74.2 132.8,-134.4 296.7,-134.4 163.9,0 296.7,60.2 296.7,134.4 0,74.2 -132.8,134.4 -296.7,134.4 -163.9,0 -296.7,-60.2 -296.7,-134.4"
         style="fill:#ee8763;fill-opacity:1;fill-rule:nonzero;stroke:none"
         id="path166" /><path
         d="m 9128.68,12776.5 c 0,-74.2 132.85,-134.4 296.73,-134.4 163.88,0 296.73,60.2 296.73,134.4 0,74.2 -132.85,134.4 -296.73,134.4 -163.88,0 -296.73,-60.2 -296.73,-134.4"
         style="fill:#ee8763;fill-opacity:1;fill-rule:nonzero;stroke:none"
         id="path168" /><path
         d="m 10676.9,13760.3 c -50.2,-19.3 -51.7,-73.7 -25.8,-105.5 15.5,-19 40.9,-29.9 71.7,-20.2 79.6,25.4 185.8,45.6 333.8,18.2 34.3,-6.4 257.5,-128.9 247,-29.9 -1.5,13.8 -11.2,25.2 -20.9,35.1 -92.5,94.7 -194.5,131.8 -323.9,136.4 -118.7,4.2 -215.9,-8.8 -281.9,-34.1"
         style="fill:#361a1e;fill-opacity:1;fill-rule:nonzero;stroke:none"
         id="path170" /><path
         d="m 9803.58,13760.3 c 50.17,-19.3 51.7,-73.7 25.79,-105.5 -15.55,-19 -40.98,-29.9 -71.7,-20.2 -79.67,25.4 -185.82,45.6 -333.8,18.2 -34.32,-6.4 -257.55,-128.9 -247,-29.9 1.47,13.8 11.19,25.2 20.9,35.1 92.43,94.7 194.49,131.8 323.84,136.4 118.76,4.2 215.92,-8.8 281.97,-34.1"
         style="fill:#361a1e;fill-opacity:1;fill-rule:nonzero;stroke:none"
         id="path172" /><path
         d="m 10788.7,13265.9 c 0,-136.2 57.1,-246.6 127.6,-246.6 70.4,0 127.6,110.4 127.6,246.6 0,136.2 -57.2,246.5 -127.6,246.5 -70.5,0 -127.6,-110.3 -127.6,-246.5"
         style="fill:#361a1e;fill-opacity:1;fill-rule:nonzero;stroke:none"
         id="path174" /><path
         d="m 10631.2,13351 c 0,-36.3 63.8,-65.6 142.5,-65.6 78.8,0 142.6,29.3 142.6,65.6 0,36.2 -63.8,65.6 -142.6,65.6 -78.7,0 -142.5,-29.4 -142.5,-65.6"
         style="fill:#feffff;fill-opacity:1;fill-rule:nonzero;stroke:none"
         id="path176" /><path
         d="m 9345.82,13265.9 c 0,-136.2 57.11,-246.6 127.57,-246.6 70.45,0 127.57,110.4 127.57,246.6 0,136.2 -57.12,246.5 -127.57,246.5 -70.46,0 -127.57,-110.3 -127.57,-246.5"
         style="fill:#361a1e;fill-opacity:1;fill-rule:nonzero;stroke:none"
         id="path178" /><path
         d="m 9188.27,13351 c 0,-36.3 63.82,-65.6 142.56,-65.6 78.73,0 142.56,29.3 142.56,65.6 0,36.2 -63.83,65.6 -142.56,65.6 -78.74,0 -142.56,-29.4 -142.56,-65.6"
         style="fill:#feffff;fill-opacity:1;fill-rule:nonzero;stroke:none"
         id="path180" /><path
         d="m 10203.5,12625.3 h -0.2 c -75.2,1.1 -168,9.1 -219.28,63 -25.97,27.3 -38.35,63.5 -36.78,107.8 3.83,108 118.66,144.2 191.36,149.8 v 358.5 c 0,9.2 7.5,16.7 16.8,16.7 9.2,0 16.7,-7.5 16.7,-16.7 v -374.5 c 0,-9.1 -7.3,-16.6 -16.5,-16.8 -1.7,0 -170.77,-4.2 -174.81,-118.2 -1.25,-35.4 7.75,-62.7 27.51,-83.4 43.2,-45.4 132.2,-51.7 195.4,-52.6 9.3,-0.1 16.7,-7.7 16.6,-17 -0.1,-9.2 -7.6,-16.6 -16.8,-16.6"
         style="fill:#c96d57;fill-opacity:1;fill-rule:nonzero;stroke:none"
         id="path182" /><path
         d="m 8440.36,14365 c -36.8,-146.3 -56.69,-296.7 -57.63,-448 96,-16.3 166.96,-15.3 212.39,-112.8 23.04,-49.5 30.43,-104.6 37.07,-158.8 42.62,-347.4 66.28,-697 70.84,-1046.9 -0.59,44.8 40.93,114.4 52.7,159.8 15.41,59.5 26.73,119.9 36.5,180.5 44.04,273.1 60.91,568.6 182.89,821.2 32.37,67 221.53,301.7 153.41,386.3 74.78,-92.5 189.26,-146.9 306.36,-167.7 117.11,-20.9 237.54,-11 355.19,6.5 271.52,40.4 537.52,121.3 811.72,133.7 274.2,12.4 570.7,-56.6 750.3,-264.1 153.1,-177 190.6,-379.2 165.4,-600.4 -27.3,-239.8 114.3,-514.2 178.8,-741.1 -7,24.6 25.5,95.8 30.7,123.2 9.3,48.6 15.8,97.8 20.7,147 9.6,95.9 13.6,190 14.3,286.3 1.2,153.4 4.7,307.1 18.4,460 8,89.1 12.9,189.4 53.8,270.7 20.5,40.8 47.2,68 84.5,93.9 12.1,8.5 174.7,81.6 175.4,58.5 -3.8,133.3 -9.3,252.1 19.5,381.8 114.1,514 -674.6,1054.4 -1082.8,1236.3 -667.1,297.2 -1459.39,303.2 -2007.23,-214.1 C 8740.99,15090 8534.9,14741 8440.36,14365"
         style="fill:#361a1e;fill-opacity:1;fill-rule:nonzero;stroke:none"
         id="path184" /><path
         d="m 12177.9,13784.8 c 0,0 -743.2,989.6 -1840.2,890.3 -635.02,-57.4 -1203.37,-325.3 -1569.27,-540.7 -266.11,-156.6 -425.28,-285.4 -425.28,-285.4 0,0 -42.79,1227.8 54.33,1436.2 147.35,316.4 1364.19,946.2 1786.12,992.8 24.4,2.8 46.2,3.5 64.9,2.1 701.9,-51.9 1719.3,-662.1 1853.6,-879.5 186,-301.4 75.8,-1615.8 75.8,-1615.8"
         style="fill:#ef2e31;fill-opacity:1;fill-rule:nonzero;stroke:none"
         id="path186" /><path
         d="m 8343.15,13849 c 0,0 -9.38,269.2 -9.39,576.9 -0.01,349.4 12.08,748.5 63.72,859.3 147.35,316.4 1364.19,946.2 1786.12,992.8 -26.9,-3 -26.8,-312.7 -26.2,-339.7 2.8,-131.4 11.4,-262.6 25.9,-393.1 16.2,-147.3 39.9,-293.8 70.8,-438.8 5.9,-27.8 12.1,-55.6 18.6,-83.3 -217.2,-12.8 -451.6,-48.6 -701.64,-113.2 -831.51,-214.8 -1104.58,-690.8 -1190.45,-925.2 v 0 c -26.98,-73.4 -35.55,-123 -37.17,-133.6 -0.1,-0.7 -0.17,-1.2 -0.21,-1.5 -0.05,-0.4 -0.08,-0.6 -0.08,-0.6 v 0 0 0 0 c 0,0 0.04,0 0.13,0.1 -0.09,-0.1 -0.13,-0.1 -0.13,-0.1"
         style="fill:#d12b2b;fill-opacity:1;fill-rule:nonzero;stroke:none"
         id="path188" /><path
         d="m 12044.6,14680.4 c -54.9,0 -113.3,39.4 -158.8,77.3 -473.3,394.6 -946.6,789.3 -1419.9,1183.9 -58.5,48.8 -171.9,164.2 -69.2,224.5 18.4,10.9 42.2,15.2 68.7,15.2 88.4,0 208.1,-47.9 268.2,-63.3 272.5,-69.5 543.7,-157.8 785.3,-304.7 339.3,-206.5 619,-553.3 638.5,-950.1 3.1,-62.8 -6.3,-136.7 -60.5,-168.7 -16.7,-9.8 -34.3,-14.1 -52.3,-14.1"
         style="fill:#f35b68;fill-opacity:1;fill-rule:nonzero;stroke:none"
         id="path190" /><path
         d="m 12177.9,13784.8 c 0,0 -1272,713.1 -2094.2,645.1 -840.99,-69.5 -1740.55,-580.9 -1740.55,-580.9 0,0 6.95,52.7 37.46,135.7 85.87,234.4 358.94,710.4 1190.45,925.2 1273.84,329 2144.14,-88.3 2374.34,-500.5 84.1,-150.8 137.9,-274.9 172.1,-371.6 59.5,-167.6 60.4,-253 60.4,-253"
         style="fill:#f03d4c;fill-opacity:1;fill-rule:nonzero;stroke:none"
         id="path192" /><path
         d="m 12177.9,13784.8 c 0,0 -1189.8,689.8 -2011.9,621.9 -841.04,-69.6 -1822.85,-557.7 -1822.85,-557.7 0,0 0.1,0.7 0.29,2.1 1.62,10.6 10.19,60.2 37.17,133.6 121.71,250.7 426.71,642.4 1174.43,831 1300.26,327.7 2189.36,-90.6 2424.66,-503.1 59.6,-104.5 104.3,-196.2 137.8,-274.8 27.2,-76.5 42.1,-136 50.3,-177.9 9.8,-50 10.1,-75.1 10.1,-75.1"
         style="fill:#d52527;fill-opacity:1;fill-rule:nonzero;stroke:none"
         id="path194" /><path
         d="m 12177.9,13784.8 c 0,0 -605.5,351.1 -1251.1,527.6 -216.8,59.4 -438.3,99 -642.8,99 -40.1,0 -79.4,-1.5 -118,-4.7 -666.05,-55.1 -1420.38,-372.7 -1705.45,-502.5 -74.9,-34.1 -117.4,-55.2 -117.4,-55.2 0,0 0.1,0.7 0.29,2.1 201.77,206.3 606.88,570.7 1167.78,697.8 303.3,68.6 583.58,98.2 839.48,98.2 965.4,0 1584.7,-420.4 1791.8,-746.5 8.7,-13.8 17.2,-27.4 25.3,-40.7 9.8,-50 10.1,-75.1 10.1,-75.1"
         style="fill:#b42425;fill-opacity:1;fill-rule:nonzero;stroke:none"
         id="path196" /><path
         d="m 14411.8,4722.8 c -197.3,-391.9 -536.9,-426.4 -925.1,-290.4 -1257.2,440.5 -1980.2,1583.6 -2736.6,2602.8 -369.8,498.2 -746,991.7 -1128.73,1479.8 0,0 -450.63,101.1 -750,457.2 -299.37,356.3 -223.51,578.9 -504.39,963.8 -77.87,106.9 -161.84,208.9 -248.1,309 -42.98,49.9 -111.9,109.1 -134.48,172.9 -20.02,56.5 4.58,78.1 52.14,111.4 106.46,74.4 259.81,-48.4 345.59,-119.1 81.78,-67.4 147.64,-160.6 159.84,-265.8 155.84,-35.3 292.89,-145.9 359.99,-291 -3.14,6.8 31.08,111.5 35.08,127.5 9.24,36.6 24.21,73.6 34.4,110.5 23.64,85 47.19,170.1 70.82,255.2 0.86,3.2 1.81,6.3 2.67,9.6 29.64,106.6 59.28,213.3 88.93,319.9 -317.1,449.2 -260.01,557.8 -172.71,600.3 102.37,49.9 306.81,-286.1 336.17,-335.6 -28.5,50.3 -227.32,405.3 -283.17,668 -59.48,279.3 201.29,180.3 208.34,177.6 l 0.1,-0.1 c -16.49,268.6 147.36,312.2 218.36,212 71.11,-100.3 263.83,-957.8 473.23,-1432.4 59.47,-135 104.32,-245.1 138.02,-333.5 84.8,-222.7 99,-308.4 99,-308.4 70.6,-289.9 176.1,-1009.6 176.1,-1009.6 0,0 631.8,-598.2 1726.6,-1278.1 641.8,-398.6 1352.3,-676.6 1928.1,-1179.1 528.2,-461.2 764.2,-1070.7 429.8,-1734.4"
         style="fill:#f9ab78;fill-opacity:1;fill-rule:nonzero;stroke:none"
         id="path198" /><path
         d="m 8918.22,9473.6 c -1.52,0 -3.07,0.3 -4.57,0.9 -6.54,2.5 -9.8,9.9 -7.27,16.4 50.3,130.2 40.75,281.2 -25.53,404.1 -3.33,6.1 -1.03,13.8 5.14,17.2 6.19,3.3 13.88,1 17.2,-5.2 69.77,-129.2 79.81,-288.2 26.87,-425.3 -1.94,-5 -6.75,-8.1 -11.84,-8.1"
         style="fill:#c96d57;fill-opacity:1;fill-rule:nonzero;stroke:none"
         id="path200" /><path
         d="m 9443.13,10092.9 -400.87,253.7 c 0.86,3.2 1.81,6.3 2.67,9.6 29.64,106.6 59.28,213.3 88.93,319.9 l 309.27,-583.2"
         style="fill:#ee8763;fill-opacity:1;fill-rule:nonzero;stroke:none"
         id="path202" /><path
         d="m 7319.12,5249.3 c 0,0 -191.29,-349.5 -368,-624.9 -88.44,-137.7 -173.18,-256.8 -228.65,-304.6 -166.22,-143.2 -249.43,-138.6 -420.32,-120.1 -170.89,18.5 -329.68,14.7 -468.27,19.4 -138.58,4.5 -183.95,144.5 -327.3,184.1 -163.65,45.3 -169.94,111.3 -326.82,207.6 -177.67,109 -307.86,423.6 -307.86,423.6 -644.5,-57.5 -916.23,214.9 -916.23,214.9 h 3363.45"
         style="fill:#f9ab78;fill-opacity:1;fill-rule:nonzero;stroke:none"
         id="path204" /><path
         d="m 6961.23,4674.5 c 82.35,292.7 -35.83,285.9 -115.36,279 -24.38,-2.1 -45.13,-4.2 -55.35,2.3 -43.55,27.8 -420.99,148.2 -792.71,73.3 -371.71,-74.8 -593.41,38 -593.41,38 l -532.5,-32.7 c -644.5,-57.5 -916.23,214.9 -916.23,214.9 h 3363.45 c 0,0 -191.29,-349.5 -368,-624.9 1.62,15.1 4.96,31.8 10.11,50.1"
         style="fill:#ee8763;fill-opacity:1;fill-rule:nonzero;stroke:none"
         id="path206" /><path
         d="m 5742.24,4674.6 c 5.53,6 27.89,8.9 35.98,11.6 14.08,4.7 28.08,9.7 42,14.9 26.71,9.9 53.12,20.6 79.22,32 52.15,22.7 103.07,48.2 152.76,75.9 49.87,27.8 98.5,57.8 146.02,89.4 41.67,27.7 71.84,68.8 108.7,103.2 114.32,106.7 242.05,199.1 379.28,274.1 25.22,13.8 56.25,45.4 26.99,72.8 -10.62,9.9 -29.54,13.6 -42.74,18.3 -15.99,5.7 -32.72,13.6 -49.5,16.7 -45.23,8.6 -91.8,10.1 -137.53,4.9 -66.55,-7.6 -145.93,-28.6 -206.47,-59 -61.02,-30.6 -93.98,-96 -131.4,-149.9 -57.23,-82.4 -129.18,-151.7 -191.41,-230.4 -71.52,-90.4 -134.11,-189.5 -211.9,-274.5"
         style="fill:#ee8763;fill-opacity:1;fill-rule:nonzero;stroke:none"
         id="path208" /><path
         d="m 5746.97,4650.1 c -2.7,0 -4.92,0.3 -6.63,1.1 -5.64,2.4 -9.14,7.7 -9.14,13.8 0,8.4 0,22.3 227.76,310.7 111.27,140.9 224,280.1 225.13,281.5 4.41,5.5 12.4,6.3 17.85,1.9 5.45,-4.4 6.29,-12.4 1.87,-17.8 -152.53,-188.4 -389.28,-486.4 -438.55,-562.4 80.43,27 392.92,190.1 545.49,331.7 171.07,158.9 338.76,249 340.43,249.8 6.18,3.3 13.87,1 17.17,-5.2 3.3,-6.2 0.95,-13.9 -5.23,-17.2 -1.65,-0.8 -166.58,-89.5 -335.1,-246 -102.72,-95.4 -272.97,-194.8 -341.4,-233.1 -33.93,-19 -196.53,-108.8 -239.65,-108.8"
         style="fill:#c96d57;fill-opacity:1;fill-rule:nonzero;stroke:none"
         id="path210" /><path
         d="m 6168.84,4367.4 c -4.27,0 -8.45,2.2 -10.84,6.1 -3.66,6 -1.78,13.8 4.21,17.5 167.4,102.3 310.62,253 449.13,398.7 41.42,43.6 84.26,88.7 126.53,131.1 111.71,112.1 222.97,225.6 330.68,337.2 4.87,5.1 12.9,5.2 17.95,0.4 5.04,-4.9 5.19,-12.9 0.32,-18 -107.79,-111.7 -219.16,-225.3 -330.96,-337.5 -42.06,-42.2 -84.8,-87.2 -126.12,-130.7 -139.64,-146.9 -284.03,-298.8 -454.29,-402.9 -2.07,-1.3 -4.35,-1.9 -6.61,-1.9"
         style="fill:#c96d57;fill-opacity:1;fill-rule:nonzero;stroke:none"
         id="path212" /><path
         d="m 5342.95,5016.5 c -4.75,0 -9.3,2.6 -11.47,7.2 -3.02,6.3 -0.33,13.9 6,16.9 83.23,39.6 277.26,216.2 279.21,218 5.19,4.7 13.22,4.4 17.93,-0.8 4.72,-5.2 4.36,-13.2 -0.82,-17.9 -8.08,-7.4 -198.77,-181 -285.4,-222.2 -1.76,-0.9 -3.63,-1.2 -5.45,-1.2"
         style="fill:#c96d57;fill-opacity:1;fill-rule:nonzero;stroke:none"
         id="path214" /><path
         d="m 2298.58,5179.8 h 5937.25 v 1462 H 2298.58 Z"
         style="fill:#e3caba;fill-opacity:1;fill-rule:nonzero;stroke:none"
         id="path216" /><path
         d="m 8235.83,5179.8 v 0 c -0.11,1.3 -30.66,573 -27.63,731 3.03,158.1 27.6,731 27.6,731 v 0 -1462"
         style="fill:#f2e7e2;fill-opacity:1;fill-rule:nonzero;stroke:none"
         id="path218" /><path
         d="m 8235.83,5179.8 v 0 h -0.03 0.03 m 0,0 H 2298.58 v 1462 h 0.18 l -0.17,-0.1 3192.32,0.1 C 4806.32,6464.8 4063.06,6129.5 3667.63,5495 l 4568.2,-315.2 c -0.03,0 -0.03,0 -0.03,0"
         style="fill:#d8bda7;fill-opacity:1;fill-rule:nonzero;stroke:none"
         id="path220" /><path
         d="m 8235.83,5179.8 v 0 c -0.03,0 -0.03,0 -0.04,0 h 0.04 -0.03"
         style="fill:#e7d4c7;fill-opacity:1;fill-rule:nonzero;stroke:none"
         id="path222" /><path
         d="M 9542.19,5575.7 8235.8,5179.8 v 1462 l 1306.39,395.8 V 5575.7"
         style="fill:#f9e2d0;fill-opacity:1;fill-rule:nonzero;stroke:none"
         id="path224" /><path
         d="m 2298.59,6641.7 1747.79,395.9 H 9542.19 L 8235.8,6641.8 2298.59,6641.7"
         style="fill:#d0b8a9;fill-opacity:1;fill-rule:nonzero;stroke:none"
         id="path226" /><path
         d="m 2585.47,6711.2 h 5603.85 v 5120.03 H 2585.47 Z"
         style="fill:#e0b88d;fill-opacity:1;fill-rule:nonzero;stroke:none"
         id="path228" /><path
         d="m 4971.84,8807.5 c -341.46,3 -660.6,7 -947.45,11.1 4.98,9.2 9.9,18.3 14.94,27.6 h 932.51 l -0.03,-38.7"
         style="fill:#d0ad82;fill-opacity:1;fill-rule:nonzero;stroke:none"
         id="path230" /><path
         d="m 6223.21,8801.3 c -121.14,0 -245.93,0.2 -374.47,0.6 -0.07,14.7 -0.13,29.5 -0.2,44.3 h 2293.59 c 0.02,-1.2 0.04,-2.2 0.06,-3.4 -450.59,-31 -1099.03,-41.5 -1918.98,-41.5 m -420.14,0.8 v 0 44.1 l 0.03,-44.1"
         style="fill:#d0ad82;fill-opacity:1;fill-rule:nonzero;stroke:none"
         id="path232" /><path
         d="M 8142.13,8846.2 H 5848.54 c -1.3,276.2 -3.8,557.3 -6.98,831.2 h 2295.93 c -1.71,-157.9 -2.27,-300.2 -1.19,-415.6 1.09,-115.8 3.14,-258 5.83,-415.6 m -2339.03,0 h -0.05 v 831.2 h 0.07 l -0.02,-831.2 m -831.29,0 h -932.48 c 93.53,171.8 197.75,355.7 313.69,551.6 55.17,93.2 113.03,186.5 173.1,279.6 h 445.69 v -831.2"
         style="fill:#f2e0d0;fill-opacity:1;fill-rule:nonzero;stroke:none"
         id="path234" /><path
         d="m 8189.32,6711.2 v 0 c 0,0 -32.67,1285.2 -47.13,2131.6 15.98,1.1 31.68,2.2 47.17,3.4 l -0.04,-2135 m -47.19,2135 v 0 h 47.23 -0.04 -47.19 m 47.23,831.2 h -51.87 c 9.2,850.5 51.83,2153.8 51.83,2153.8 v -1294.9 -374.2 -484.7"
         style="fill:#f2e0d0;fill-opacity:1;fill-rule:nonzero;stroke:none"
         id="path236" /><path
         d="m 8142.19,8842.8 c -0.02,1.2 -0.04,2.2 -0.06,3.4 h 47.23 -0.04 c -15.45,-1.2 -31.15,-2.3 -47.13,-3.4"
         style="fill:#ebddcb;fill-opacity:1;fill-rule:nonzero;stroke:none"
         id="path238" /><path
         d="m 8189.36,8846.2 h -47.23 c -2.69,157.6 -4.74,299.8 -5.83,415.6 -1.08,115.4 -0.52,257.7 1.19,415.6 h 51.87 l -0.04,-831.2"
         style="fill:#f8f2ec;fill-opacity:1;fill-rule:nonzero;stroke:none"
         id="path240" /><path
         d="m 5815.13,6842.8 -12.08,0.7 0.05,1958.6 c 15.25,-0.1 30.46,-0.1 45.64,-0.2 3.4,-802 -3.59,-1556.1 -33.61,-1959.1 m -12.03,2003.4 v 0 h 45.44 v 0 h -45.47 m 38.49,831.2 h -38.44 l 0.03,1653.8 c 3.66,4.2 7.28,8.3 10.93,12.4 8.43,-403.3 19.9,-1014.2 27.48,-1666.2"
         style="fill:#d0ad82;fill-opacity:1;fill-rule:nonzero;stroke:none"
         id="path242" /><path
         d="m 5848.74,8801.9 c -15.18,0.1 -30.39,0.1 -45.67,0.2 l 0.03,44.1 h 45.44 c 0.07,-14.8 0.13,-29.6 0.2,-44.3"
         style="fill:#c5a77a;fill-opacity:1;fill-rule:nonzero;stroke:none"
         id="path244" /><path
         d="m 5848.54,8846.2 h -45.44 l 0.02,831.2 h 38.44 c 3.18,-273.9 5.68,-555 6.98,-831.2"
         style="fill:#dcc9af;fill-opacity:1;fill-rule:nonzero;stroke:none"
         id="path246" /><path
         d="m 5803.05,6843.5 -406.09,22.5 v 1980.2 h 406.09 V 6843.5 m 0,2833.9 h -406.09 v 1177.7 c 136.41,165.6 273.01,325.1 406.09,476 V 9677.4"
         style="fill:#f2e0d0;fill-opacity:1;fill-rule:nonzero;stroke:none"
         id="path248" /><path
         d="m 5396.96,8846.2 h 406.09 v 831.203 h -406.09 z"
         style="fill:#f8f2ec;fill-opacity:1;fill-rule:nonzero;stroke:none"
         id="path250" /><path
         d="m 5377.9,6867.1 -406.09,22.5 v 1917.9 c 0.03,0 0.03,0 0.03,0 v 38.7 h -0.03 406.09 V 6867.1 m 0,2810.3 h -406.09 v 637.5 c 132.54,176.9 269.13,350 406.09,517 V 9677.4"
         style="fill:#f2e0d0;fill-opacity:1;fill-rule:nonzero;stroke:none"
         id="path252" /><path
         d="m 4971.84,8807.5 v 0 l -0.03,38.7 h 0.03 v -38.7"
         style="fill:#ebddcb;fill-opacity:1;fill-rule:nonzero;stroke:none"
         id="path254" /><path
         d="m 4971.81,8846.2 h 406.09 v 831.203 h -406.09 z"
         style="fill:#f8f2ec;fill-opacity:1;fill-rule:nonzero;stroke:none"
         id="path256" /><path
         d="m 5377.9,6711.2 h 19.0625 v 5120 H 5377.9 Z"
         style="fill:#b98d64;fill-opacity:1;fill-rule:nonzero;stroke:none"
         id="path258" /><path
         d="M 9489.27,11525.3 9444.95,8584.7 9422.36,7084.9 8189.32,6711.2 v 5120 l 819.58,-192.9 480.37,-113"
         style="fill:#f4cfa0;fill-opacity:1;fill-rule:nonzero;stroke:none"
         id="path260" /><path
         d="m 9440.09,8574.8 c 0,0 -57.66,1058.2 -53.56,1232.7 4,174.4 -73.01,336.6 -409.18,823.3 -332.05,480.6 -62.77,614.9 -55.98,618.2 -61.55,-67.3 -44.69,-265.4 547.22,-1096.8 l -1.77,-116.7 -26.73,-1460.7 v 0 m -142.77,2366 c -24.77,41.8 -174.16,287.5 -281.74,333.3 -91.8,249.8 -9.49,360.5 -6.75,364.1 1.36,-9.3 3.12,-19.1 5.32,-29.4 55.85,-262.7 254.67,-617.7 283.17,-668"
         style="fill:#dab88d;fill-opacity:1;fill-rule:nonzero;stroke:none"
         id="path262" /><path
         d="M 8189.32,6711.2 H 2585.47 v 5120 h 3673.5 c -139.48,-148.2 -289.72,-312 -444.89,-487.6 -6.31,301.9 -10.91,487.6 -10.91,487.6 l -0.02,-500 c -0.04,0 -0.06,0 -0.1,-0.1 v 500 h -406.09 v 0.1 h -19.06 l -406.09,-0.1 v -1516.2 c -156.26,-208.6 -306.85,-422.4 -445.69,-637.5 H 2585.51 v -831.2 c 0,0 571.85,-14.9 1438.88,-27.6 C 3359.25,7590.8 3242.16,6985.5 3242.16,6985.5 l 1729.65,-95.9 v -178.4 h 406.09 19.06 406.09 c 4.39,38.2 8.41,82.3 12.08,131.6 l 2374.19,-131.6 m -4149.99,2135 H 2585.51 4039.33 v 0"
         style="fill:#d0a77d;fill-opacity:1;fill-rule:nonzero;stroke:none"
         id="path264" /><path
         d="m 4024.39,8818.6 c -867.03,12.7 -1438.88,27.6 -1438.88,27.6 v 0 h 1453.82 c -5.04,-9.3 -9.96,-18.4 -14.94,-27.6"
         style="fill:#c7a276;fill-opacity:1;fill-rule:nonzero;stroke:none"
         id="path266" /><path
         d="M 4039.33,8846.2 H 2585.51 v 0 831.2 H 4526.12 C 4466.05,9584.3 4408.19,9491 4353.02,9397.8 4237.08,9201.9 4132.86,9018 4039.33,8846.2"
         style="fill:#d9bda3;fill-opacity:1;fill-rule:nonzero;stroke:none"
         id="path268" /><path
         d="m 5803.05,6711.2 v 132.3 -132.3"
         style="fill:#d0a77d;fill-opacity:1;fill-rule:nonzero;stroke:none"
         id="path270" /><path
         d="m 5803.05,6711.2 v 0 132.3 l 12.08,-0.7 c -3.67,-49.3 -7.69,-93.4 -12.08,-131.6 m 0.1,4620 0.02,500 c 0,0 4.6,-185.7 10.91,-487.6 -3.65,-4.1 -7.27,-8.2 -10.93,-12.4"
         style="fill:#c7a276;fill-opacity:1;fill-rule:nonzero;stroke:none"
         id="path272" /><path
         d="M 5803.05,6711.2 H 5396.96 V 6866 l 406.09,-22.5 v -132.3 0 m -406.09,4143.9 v 976.1 l 406.09,-0.1 v -500 c -133.08,-150.9 -269.68,-310.4 -406.09,-476"
         style="fill:#d9bda3;fill-opacity:1;fill-rule:nonzero;stroke:none"
         id="path274" /><path
         d="m 5377.9,6711.2 h -406.09 v 178.4 l 406.09,-22.5 v -155.9 m -406.09,3603.7 v 1516.2 h 406.09 v -999.2 c -136.96,-167 -273.55,-340.1 -406.09,-517"
         style="fill:#d9bda3;fill-opacity:1;fill-rule:nonzero;stroke:none"
         id="path276" /><path
         d="m 5396.96,6711.2 h -19.06 v 155.9 l 19.06,-1.1 v -154.8 m -19.06,4120.7 v 999.3 h 19.06 v -976.1 c -6.33,-7.7 -12.73,-15.5 -19.06,-23.2"
         style="fill:#b98d64;fill-opacity:1;fill-rule:nonzero;stroke:none"
         id="path278" /><path
         d="m 10052.2,10232.4 -829.61,1553.9 c -16.49,268.6 147.36,312.2 218.36,212 71.11,-100.3 263.83,-957.8 473.22,-1432.4 59.48,-135 104.33,-245.1 138.03,-333.5"
         style="fill:#ee8763;fill-opacity:1;fill-rule:nonzero;stroke:none"
         id="path280" /><path
         d="m 14411.8,4722.8 c -197.3,-391.9 -536.9,-426.4 -925.1,-290.4 -553.9,194.1 -1004.3,524.7 -1399.2,920.9 l -1.7,1.6 c -500.8,502.6 -913.1,1110.8 -1335.7,1680.3 -369.8,498.2 -746,991.7 -1128.73,1479.8 0,0 -73.67,16.5 -181.28,59.8 l 26.88,1469 1.62,108.4 c -703.3,987.8 -594.74,1081.7 -507.44,1124.2 102.37,49.9 306.81,-286.1 336.17,-335.6 -28.5,50.3 -227.32,405.3 -283.17,668 -59.48,279.3 201.29,180.3 208.34,177.6 l 0.1,-0.1 c -16.49,268.6 147.36,312.2 218.36,212 71.11,-100.3 263.83,-957.8 473.23,-1432.4 59.47,-135 104.32,-245.1 138.02,-333.5 84.8,-222.7 99,-308.4 99,-308.4 70.6,-289.9 176.1,-1009.6 176.1,-1009.6 0,0 631.8,-598.2 1726.6,-1278.1 641.8,-398.6 1352.3,-676.6 1928.1,-1179.1 528.2,-461.2 764.2,-1070.7 429.8,-1734.4"
         style="fill:#f9ab78;fill-opacity:1;fill-rule:nonzero;stroke:none"
         id="path282" /><path
         d="m 9541.19,10982.6 c -21.63,0 -40.98,28.8 -53.62,43 -34.28,38.4 -64.09,80.7 -89.97,125.2 -55.02,94.5 -92.58,198 -126.26,302.1 -6.34,19.6 -42.6,143.3 -7.87,143.3 0.33,0 0.67,0 1.01,0 31.57,-2.1 81.15,-122.4 95.86,-147.4 40.7,-69 81.39,-138 122.09,-207.1 23.59,-40 60.81,-86.9 81.38,-135.6 9.98,-23.6 16.05,-47.7 14.75,-71.6 -1.06,-19.3 -12.23,-49.3 -34.73,-51.8 -0.88,-0.1 -1.76,-0.1 -2.64,-0.1"
         style="fill:#fbc5a2;fill-opacity:1;fill-rule:nonzero;stroke:none"
         id="path284" /><path
         d="m 9258.23,10843.6 c -20.09,0 -40.35,8.4 -56.56,20.8 -21.37,16.3 -37.03,38.8 -52.35,60.9 -31.2,45 -62.42,90 -93.63,135.1 -11.25,16.2 -22.63,32.7 -29.06,51.4 -8.15,23.6 -3.59,68.4 24.53,68.4 4.26,0 9.07,-1 14.46,-3.3 28.87,-12.3 65.94,-72.7 85.16,-97.6 13.33,-17.3 139.71,-229 126.42,-233 -6.21,-1.8 -12.58,-2.7 -18.97,-2.7"
         style="fill:#fbc5a2;fill-opacity:1;fill-rule:nonzero;stroke:none"
         id="path286" /><path
         d="m 13688.8,5989 c -62.7,0 -129.2,14.1 -180.6,28.5 -162.9,45.5 -310,134.7 -449.7,230.3 -290.3,198.8 -557.6,429 -824.2,658.6 -441.3,380.1 -882.6,760.2 -1323.9,1140.3 -53.8,46.2 -142.8,135.1 -85.1,212.6 15.4,20.6 32.5,28.4 50.2,28.4 40.3,0 84,-40.8 118.2,-65.7 167.8,-122.3 340.9,-237.8 513,-354 355.1,-240 714.1,-474.3 1076.8,-702.8 206,-129.8 413.2,-257.7 621.5,-383.7 137.2,-83 274.8,-166.5 402.2,-264.2 118.7,-91 293.5,-212.8 274.4,-384.6 -12.5,-111.6 -98.3,-143.7 -192.8,-143.7"
         style="fill:#fbc5a2;fill-opacity:1;fill-rule:nonzero;stroke:none"
         id="path288" /><path
         d="m 12085.8,5354.9 c -500.8,502.6 -913.1,1110.8 -1335.7,1680.3 -369.8,498.2 -745.9,991.7 -1128.72,1479.8 0,0 -73.68,16.5 -181.29,59.8 l 26.88,1469 1.62,108.4 168.22,-344.7 c 0,0 -27.44,-993.3 38.14,-1068.2 43.92,-50.2 165.06,-85.2 227.8,-69.2 -10.19,-2.6 -64.54,-88.2 -86.65,-102.8 0,0 1808.5,-2744.1 2269.7,-3212.4"
         style="fill:#ee8763;fill-opacity:1;fill-rule:nonzero;stroke:none"
         id="path290" /><path
         d="m 9719.12,10174.6 c -7.01,0 -12.69,5.7 -12.69,12.7 0,101.4 -74.85,142.6 -75.61,143 -2.12,1.2 -3.87,2.9 -5.05,5 l -339.5,599.3 c -3.45,6.1 -1.31,13.8 4.79,17.3 6.09,3.4 13.85,1.3 17.3,-4.8 l 337.81,-596.3 c 16.47,-10.1 85.65,-58.7 85.65,-163.5 0,-7 -5.69,-12.7 -12.7,-12.7"
         style="fill:#c96d57;fill-opacity:1;fill-rule:nonzero;stroke:none"
         id="path292" /><path
         d="m 10052.2,10232.4 -829.61,1553.9 c -16.49,268.6 147.36,312.2 218.36,212 71.11,-100.3 263.83,-957.8 473.22,-1432.4 59.48,-135 104.33,-245.1 138.03,-333.5"
         style="fill:#ee8763;fill-opacity:1;fill-rule:nonzero;stroke:none"
         id="path294" /><path
         d="m 10052.2,10219.7 c -5.1,0 -10,3.1 -11.9,8.2 -37.3,98.2 -83.69,210.2 -137.74,332.8 -119.06,269.9 -231.33,658.3 -321.53,970.4 -64.87,224.4 -120.88,418.2 -150.43,459.9 -4.33,6.1 -9.11,11.7 -14.21,16.6 -5.03,4.9 -5.13,13 -0.24,18 4.89,5 12.93,5.1 17.95,0.2 6.21,-6 12,-12.8 17.21,-20.2 32.03,-45.1 83.24,-222.3 154.11,-467.5 89.99,-311.3 201.99,-698.8 320.37,-967.1 54.23,-123.1 100.71,-235.5 138.31,-334.1 2.4,-6.6 -0.8,-13.9 -7.4,-16.4 -1.5,-0.6 -3,-0.8 -4.5,-0.8"
         style="fill:#c96d57;fill-opacity:1;fill-rule:nonzero;stroke:none"
         id="path296" /><path
         d="m 16630,14568.5 v -2435.1 c 0,-55.9 -12.1,-109 -33.9,-156.9 -59.6,-131.5 -192.1,-222.9 -345.9,-222.9 H 13815 c -209.7,0 -379.8,170 -379.8,379.8 v 2435.1 c 0,209.8 170.1,379.9 379.8,379.9 h 2435.2 c 131,0 246.6,-66.4 314.9,-167.4 41,-60.6 64.9,-133.7 64.9,-212.5"
         style="fill:#ef2e31;fill-opacity:1;fill-rule:nonzero;stroke:none"
         id="path298" /><path
         d="m 16630,13483.2 v -1305.4 h -1061.6 v 1305.4 H 16630"
         style="fill:#678ed1;fill-opacity:1;fill-rule:nonzero;stroke:none"
         id="path300" /><path
         d="m 16630,14568.5 v -983.9 h -2499.4 l 1363.8,1363.8 h 755.8 c 131,0 246.6,-66.4 314.9,-167.4 41,-60.6 64.9,-133.7 64.9,-212.5"
         style="fill:#dce0f3;fill-opacity:1;fill-rule:nonzero;stroke:none"
         id="path302" /><path
         d="m 15568.4,14948.4 -2133.2,-2133.2 v 1753.3 c 0,209.8 170.1,379.9 379.8,379.9 h 1753.4"
         style="fill:#f7ee25;fill-opacity:1;fill-rule:nonzero;stroke:none"
         id="path304" /><path
         d="M 15505.3,13565.9 V 11753.6 H 13815 c -209.7,0 -379.8,170 -379.8,379.8 v 807.6 l 714.2,624.9 h 1355.9"
         style="fill:#4bbf6d;fill-opacity:1;fill-rule:nonzero;stroke:none"
         id="path306" /><path
         d="m 16630,13375.7 v 390.8 h -2056.6 l 1178.7,1178.6 -3.3,3.3 h -546.1 l -1767.5,-1767.5 v -552.6 l 747.5,747.4 h 1130.7 v -1622.1 h 390.8 v 222.9 h 891.9 c 21.8,47.9 33.9,101 33.9,156.9 v 233.9 h -925.8 v 1008.4 h 925.8"
         style="fill:#fafcfc;fill-opacity:1;fill-rule:nonzero;stroke:none"
         id="path308" /><path
         d="m 15032.5,13390.5 c -162.9,0 -295.1,132.1 -295.1,295.2 0,163 132.2,295.2 295.1,295.2 163.1,0 295.2,-132.2 295.2,-295.2 0,-163.1 -132.1,-295.2 -295.2,-295.2 z m 0,987.8 c -382.5,0 -692.6,-310 -692.6,-692.6 0,-382.6 692.6,-1362.1 692.6,-1362.1 0,0 692.8,979.5 692.8,1362.1 0,382.6 -310.2,692.6 -692.8,692.6"
         style="fill:#ef2e31;fill-opacity:1;fill-rule:nonzero;stroke:none"
         id="path310" /><path
         d="M 6807.77,13641.5 H 4372.66 c -209.77,0 -379.83,170.1 -379.83,379.8 v 2435.1 c 0,209.8 170.06,379.9 379.83,379.9 h 2435.11 c 131.09,0 246.66,-66.4 314.93,-167.4 40.98,-60.7 64.91,-133.8 64.91,-212.5 v -2435.1 c 0,-209.7 -170.06,-379.8 -379.84,-379.8"
         style="fill:#abaeb5;fill-opacity:1;fill-rule:nonzero;stroke:none"
         id="path312" /><path
         d="M 6274.13,13887.1 H 4906.4 c -68.59,0 -134.13,13.8 -193.68,38.8 -181.2,75.8 -308.53,254.7 -308.53,463.4 v 115.9 h 308.53 v 1856.6 h 2063.53 v -1972.5 c 0,-114.8 -38.52,-220.6 -103.26,-305.1 -74.89,-97.7 -184.75,-167.1 -310.86,-189.3 -28.55,-5.1 -58.02,-7.8 -88,-7.8"
         style="fill:#969aa1;fill-opacity:1;fill-rule:nonzero;stroke:none"
         id="path314" /><path
         d="m 6625.33,16476.2 v -1972.4 c 0,-114.9 -38.51,-220.7 -103.25,-305.2 -74.89,-97.7 -184.75,-167.1 -310.86,-189.3 -28.55,-5.1 -58.02,-7.7 -88,-7.7 H 4755.49 c -68.59,0 -134.14,13.8 -193.69,38.7 v 2435.9 h 2063.53"
         style="fill:#ffffff;fill-opacity:1;fill-rule:nonzero;stroke:none"
         id="path316" /><path
         d="m 6211.22,14009.3 c -28.55,-5.1 -58.02,-7.7 -88,-7.7 H 4755.49 c -68.59,0 -134.14,13.8 -193.69,38.7 -181.19,75.8 -308.52,254.7 -308.52,463.5 v 115.8 h 1543.83 v -115.8 c 0,-247.4 178.76,-453 414.11,-494.5"
         style="fill:#dce0f3;fill-opacity:1;fill-rule:nonzero;stroke:none"
         id="path318" /><path
         d="m 5016.48,16232.4 h -190.11 v -168.1 h 190.11 v 168.1"
         style="fill:#bec2d2;fill-opacity:1;fill-rule:nonzero;stroke:none"
         id="path320" /><path
         d="m 5155.06,16232.4 v -168.1 h 1205.7 v 168.1 h -1205.7"
         style="fill:#bec2d2;fill-opacity:1;fill-rule:nonzero;stroke:none"
         id="path322" /><path
         d="m 5016.48,15906.6 h -190.11 v -168.1 h 190.11 v 168.1"
         style="fill:#bec2d2;fill-opacity:1;fill-rule:nonzero;stroke:none"
         id="path324" /><path
         d="m 5155.06,15906.6 v -168.1 h 1205.7 v 168.1 h -1205.7"
         style="fill:#bec2d2;fill-opacity:1;fill-rule:nonzero;stroke:none"
         id="path326" /><path
         d="m 5016.48,15580.7 h -190.11 v -168 h 190.11 v 168"
         style="fill:#bec2d2;fill-opacity:1;fill-rule:nonzero;stroke:none"
         id="path328" /><path
         d="m 5155.06,15580.7 v -168 h 1205.7 v 168 h -1205.7"
         style="fill:#bec2d2;fill-opacity:1;fill-rule:nonzero;stroke:none"
         id="path330" /><path
         d="m 5016.48,15254.9 h -190.11 v -168.1 h 190.11 v 168.1"
         style="fill:#bec2d2;fill-opacity:1;fill-rule:nonzero;stroke:none"
         id="path332" /><path
         d="m 5155.06,15254.9 v -168.1 h 1205.7 v 168.1 h -1205.7"
         style="fill:#bec2d2;fill-opacity:1;fill-rule:nonzero;stroke:none"
         id="path334" /><path
         d="M 5155.06,14929.1 V 14761 h 1205.7 v 168.1 h -1205.7"
         style="fill:#bec2d2;fill-opacity:1;fill-rule:nonzero;stroke:none"
         id="path336" /><path
         d="M 5016.48,14929.1 H 4826.37 V 14761 h 190.11 v 168.1"
         style="fill:#bec2d2;fill-opacity:1;fill-rule:nonzero;stroke:none"
         id="path338" /><path
         d="m 4921.43,16129.3 c -4.88,0 -9.76,1.8 -13.49,5.6 l -128.56,128.5 c -7.45,7.5 -7.45,19.5 0,27 7.45,7.4 19.51,7.4 26.96,0 l 115.09,-115.1 233.16,233.2 c 7.46,7.4 19.52,7.4 26.97,0 7.44,-7.5 7.44,-19.5 0,-27 l -246.65,-246.6 c -3.73,-3.8 -8.61,-5.6 -13.48,-5.6"
         style="fill:#4bbf6d;fill-opacity:1;fill-rule:nonzero;stroke:none"
         id="path340" /><path
         d="m 4921.43,15798.6 v 0 c -5.06,0 -9.91,2 -13.49,5.6 l -128.56,128.6 c -7.45,7.4 -7.45,19.5 0,26.9 7.44,7.5 19.51,7.5 26.96,0 l 115.09,-115.1 233.16,233.2 c 7.46,7.4 19.52,7.4 26.97,0 7.44,-7.4 7.44,-19.5 0,-27 l -246.65,-246.6 c -3.58,-3.6 -8.43,-5.6 -13.48,-5.6"
         style="fill:#4bbf6d;fill-opacity:1;fill-rule:nonzero;stroke:none"
         id="path342" /><path
         d="m 4921.43,15467.9 v 0 c -5.06,0 -9.91,2 -13.49,5.6 l -128.56,128.6 c -7.45,7.4 -7.45,19.5 0,26.9 7.44,7.5 19.51,7.5 26.96,0 l 115.09,-115.1 233.16,233.2 c 7.46,7.5 19.52,7.5 26.97,0 7.44,-7.4 7.44,-19.5 0,-26.9 l -246.65,-246.7 c -3.58,-3.6 -8.43,-5.6 -13.48,-5.6"
         style="fill:#4bbf6d;fill-opacity:1;fill-rule:nonzero;stroke:none"
         id="path344" /></g></g></svg>
